<svg width="280" height="70" viewBox="0 0 280 70" fill="none" xmlns="http://www.w3.org/2000/svg">
<g clip-path="url(#clip0)">
<rect width="280" height="70" fill="white"/>
<path d="M81.5423 62.07C80.9497 62.07 80.3943 61.958 79.8763 61.734C79.8203 61.7107 79.7737 61.6733 79.7363 61.622C79.699 61.566 79.6803 61.5077 79.6803 61.447C79.6803 61.3677 79.706 61.3 79.7573 61.244C79.8133 61.1833 79.8833 61.153 79.9673 61.153C80.014 61.153 80.0583 61.1623 80.1003 61.181C80.5297 61.3723 80.9893 61.468 81.4793 61.468C82.296 61.468 82.7043 61.1997 82.7043 60.663C82.7043 60.523 82.6507 60.4063 82.5433 60.313C82.4407 60.2197 82.3123 60.1473 82.1583 60.096C82.0043 60.04 81.785 59.9747 81.5003 59.9C81.1223 59.802 80.8167 59.7087 80.5833 59.62C80.35 59.5267 80.1493 59.389 79.9813 59.207C79.8133 59.025 79.7293 58.7823 79.7293 58.479C79.7293 58.213 79.7993 57.9727 79.9393 57.758C80.0793 57.5387 80.2847 57.366 80.5553 57.24C80.8307 57.1093 81.1597 57.044 81.5423 57.044C82.0557 57.044 82.52 57.121 82.9353 57.275C83.066 57.3217 83.1313 57.415 83.1313 57.555C83.1313 57.6297 83.1057 57.6973 83.0543 57.758C83.003 57.8187 82.9353 57.849 82.8513 57.849C82.8233 57.849 82.786 57.8397 82.7393 57.821C82.3753 57.695 81.9997 57.632 81.6123 57.632C81.2437 57.632 80.9427 57.702 80.7093 57.842C80.4807 57.982 80.3663 58.178 80.3663 58.43C80.3663 58.598 80.42 58.7357 80.5273 58.843C80.6393 58.9457 80.777 59.0273 80.9403 59.088C81.1083 59.144 81.3347 59.2047 81.6193 59.27C81.988 59.3587 82.2843 59.4473 82.5083 59.536C82.737 59.6247 82.9307 59.7623 83.0893 59.949C83.2527 60.1357 83.3343 60.3877 83.3343 60.705C83.3343 60.9663 83.2597 61.202 83.1103 61.412C82.961 61.6173 82.751 61.7783 82.4803 61.895C82.2097 62.0117 81.897 62.07 81.5423 62.07ZM87.2208 62.035C87.1322 62.035 87.0575 62.0047 86.9968 61.944C86.9362 61.8833 86.9058 61.8087 86.9058 61.72V57.401C86.9058 57.3123 86.9362 57.2377 86.9968 57.177C87.0575 57.1117 87.1322 57.079 87.2208 57.079C87.3095 57.079 87.3842 57.1117 87.4448 57.177C87.5102 57.2377 87.5428 57.3123 87.5428 57.401V61.72C87.5428 61.8087 87.5102 61.8833 87.4448 61.944C87.3842 62.0047 87.3095 62.035 87.2208 62.035ZM91.8069 62.035C91.7182 62.035 91.6436 62.0047 91.5829 61.944C91.5222 61.8833 91.4919 61.8087 91.4919 61.72V57.541C91.4919 57.415 91.5362 57.3077 91.6249 57.219C91.7136 57.1257 91.8209 57.079 91.9469 57.079H92.1779C92.2712 57.079 92.3552 57.107 92.4299 57.163C92.5092 57.219 92.5676 57.289 92.6049 57.373L94.1939 61.335L95.7829 57.373C95.8202 57.289 95.8762 57.219 95.9509 57.163C96.0302 57.107 96.1166 57.079 96.2099 57.079H96.4409C96.5669 57.079 96.6742 57.1257 96.7629 57.219C96.8516 57.3077 96.8959 57.415 96.8959 57.541V61.72C96.8959 61.8087 96.8656 61.8833 96.8049 61.944C96.7442 62.0047 96.6696 62.035 96.5809 62.035C96.4922 62.035 96.4152 62.0047 96.3499 61.944C96.2892 61.8833 96.2589 61.8087 96.2589 61.72V57.744L94.6419 61.741C94.6046 61.8297 94.5439 61.902 94.4599 61.958C94.3806 62.0093 94.2919 62.035 94.1939 62.035C94.0959 62.035 94.0049 62.0093 93.9209 61.958C93.8416 61.902 93.7832 61.8297 93.7459 61.741L92.1289 57.744V61.72C92.1289 61.8087 92.0962 61.8833 92.0309 61.944C91.9702 62.0047 91.8956 62.035 91.8069 62.035ZM101.158 62.035C101.069 62.035 100.994 62.0047 100.934 61.944C100.873 61.8833 100.843 61.8087 100.843 61.72V57.436C100.843 57.3473 100.873 57.2727 100.934 57.212C100.994 57.1467 101.069 57.114 101.158 57.114H102.754C103.197 57.114 103.559 57.1887 103.839 57.338C104.119 57.4873 104.319 57.6787 104.441 57.912C104.562 58.1453 104.623 58.3973 104.623 58.668C104.623 58.9387 104.562 59.1907 104.441 59.424C104.319 59.6573 104.119 59.8487 103.839 59.998C103.559 60.1473 103.197 60.222 102.754 60.222H101.48V61.72C101.48 61.8087 101.447 61.8833 101.382 61.944C101.321 62.0047 101.246 62.035 101.158 62.035ZM102.691 59.62C103.167 59.62 103.5 59.529 103.692 59.347C103.888 59.165 103.986 58.9387 103.986 58.668C103.986 58.3973 103.888 58.171 103.692 57.989C103.5 57.807 103.167 57.716 102.691 57.716H101.48V59.62H102.691ZM108.577 62C108.455 62 108.35 61.958 108.262 61.874C108.178 61.7853 108.136 61.6803 108.136 61.559V57.401C108.136 57.3123 108.166 57.2377 108.227 57.177C108.287 57.1117 108.362 57.079 108.451 57.079C108.539 57.079 108.614 57.1117 108.675 57.177C108.74 57.2377 108.773 57.3123 108.773 57.401V61.363H111.062C111.15 61.363 111.225 61.3957 111.286 61.461C111.351 61.5217 111.384 61.5963 111.384 61.685C111.384 61.7737 111.351 61.8483 111.286 61.909C111.225 61.9697 111.15 62 111.062 62H108.577ZM115.074 62C114.985 62 114.911 61.9697 114.85 61.909C114.789 61.8483 114.759 61.7737 114.759 61.685V57.436C114.759 57.3473 114.789 57.2727 114.85 57.212C114.911 57.1467 114.985 57.114 115.074 57.114H117.881C117.965 57.114 118.035 57.1443 118.091 57.205C118.152 57.261 118.182 57.331 118.182 57.415C118.182 57.499 118.152 57.569 118.091 57.625C118.035 57.681 117.965 57.709 117.881 57.709H115.396V59.256H117.629C117.713 59.256 117.783 59.2863 117.839 59.347C117.9 59.403 117.93 59.473 117.93 59.557C117.93 59.641 117.9 59.711 117.839 59.767C117.783 59.823 117.713 59.851 117.629 59.851H115.396V61.405H117.881C117.965 61.405 118.035 61.4353 118.091 61.496C118.152 61.552 118.182 61.622 118.182 61.706C118.182 61.79 118.152 61.86 118.091 61.916C118.035 61.972 117.965 62 117.881 62H115.074ZM126.424 63.372C126.345 63.372 126.277 63.344 126.221 63.288C126.17 63.2367 126.144 63.1713 126.144 63.092V57.1C126.144 57.0207 126.17 56.953 126.221 56.897C126.277 56.841 126.345 56.813 126.424 56.813C126.504 56.813 126.571 56.841 126.627 56.897C126.683 56.953 126.711 57.0207 126.711 57.1V63.092C126.711 63.1713 126.683 63.2367 126.627 63.288C126.571 63.344 126.504 63.372 126.424 63.372ZM135.305 62C135.216 62 135.142 61.9697 135.081 61.909C135.02 61.8483 134.99 61.7737 134.99 61.685V57.436C134.99 57.3473 135.02 57.2727 135.081 57.212C135.142 57.1467 135.216 57.114 135.305 57.114H138.112C138.196 57.114 138.266 57.1443 138.322 57.205C138.383 57.261 138.413 57.331 138.413 57.415C138.413 57.499 138.383 57.569 138.322 57.625C138.266 57.681 138.196 57.709 138.112 57.709H135.627V59.256H137.86C137.944 59.256 138.014 59.2863 138.07 59.347C138.131 59.403 138.161 59.473 138.161 59.557C138.161 59.641 138.131 59.711 138.07 59.767C138.014 59.823 137.944 59.851 137.86 59.851H135.627V61.405H138.112C138.196 61.405 138.266 61.4353 138.322 61.496C138.383 61.552 138.413 61.622 138.413 61.706C138.413 61.79 138.383 61.86 138.322 61.916C138.266 61.972 138.196 62 138.112 62H135.305ZM142.03 62.035C141.937 62.035 141.86 62.0047 141.799 61.944C141.743 61.8833 141.715 61.8087 141.715 61.72C141.715 61.6827 141.727 61.636 141.75 61.58L143.535 57.366C143.572 57.282 143.624 57.2143 143.689 57.163C143.759 57.107 143.843 57.079 143.941 57.079H144.011C144.109 57.079 144.191 57.107 144.256 57.163C144.326 57.2143 144.38 57.282 144.417 57.366L146.202 61.58C146.225 61.636 146.237 61.6827 146.237 61.72C146.237 61.8087 146.207 61.8833 146.146 61.944C146.09 62.0047 146.015 62.035 145.922 62.035C145.857 62.035 145.796 62.0187 145.74 61.986C145.689 61.9487 145.649 61.8997 145.621 61.839L145.166 60.747H142.786L142.331 61.839C142.303 61.8997 142.261 61.9487 142.205 61.986C142.154 62.0187 142.095 62.035 142.03 62.035ZM143.031 60.166H144.921L143.976 57.891L143.031 60.166ZM151.397 62.07C150.804 62.07 150.249 61.958 149.731 61.734C149.675 61.7107 149.628 61.6733 149.591 61.622C149.553 61.566 149.535 61.5077 149.535 61.447C149.535 61.3677 149.56 61.3 149.612 61.244C149.668 61.1833 149.738 61.153 149.822 61.153C149.868 61.153 149.913 61.1623 149.955 61.181C150.384 61.3723 150.844 61.468 151.334 61.468C152.15 61.468 152.559 61.1997 152.559 60.663C152.559 60.523 152.505 60.4063 152.398 60.313C152.295 60.2197 152.167 60.1473 152.013 60.096C151.859 60.04 151.639 59.9747 151.355 59.9C150.977 59.802 150.671 59.7087 150.438 59.62C150.204 59.5267 150.004 59.389 149.836 59.207C149.668 59.025 149.584 58.7823 149.584 58.479C149.584 58.213 149.654 57.9727 149.794 57.758C149.934 57.5387 150.139 57.366 150.41 57.24C150.685 57.1093 151.014 57.044 151.397 57.044C151.91 57.044 152.374 57.121 152.79 57.275C152.92 57.3217 152.986 57.415 152.986 57.555C152.986 57.6297 152.96 57.6973 152.909 57.758C152.857 57.8187 152.79 57.849 152.706 57.849C152.678 57.849 152.64 57.8397 152.594 57.821C152.23 57.695 151.854 57.632 151.467 57.632C151.098 57.632 150.797 57.702 150.564 57.842C150.335 57.982 150.221 58.178 150.221 58.43C150.221 58.598 150.274 58.7357 150.382 58.843C150.494 58.9457 150.631 59.0273 150.795 59.088C150.963 59.144 151.189 59.2047 151.474 59.27C151.842 59.3587 152.139 59.4473 152.363 59.536C152.591 59.6247 152.785 59.7623 152.944 59.949C153.107 60.1357 153.189 60.3877 153.189 60.705C153.189 60.9663 153.114 61.202 152.965 61.412C152.815 61.6173 152.605 61.7783 152.335 61.895C152.064 62.0117 151.751 62.07 151.397 62.07ZM158.266 62.035C158.178 62.035 158.101 62.0047 158.035 61.944C157.975 61.8833 157.944 61.8087 157.944 61.72V59.935L156.271 57.59C156.234 57.5293 156.215 57.4663 156.215 57.401C156.215 57.3123 156.243 57.2377 156.299 57.177C156.36 57.1117 156.435 57.079 156.523 57.079C156.64 57.079 156.733 57.1327 156.803 57.24L158.266 59.368L159.729 57.24C159.799 57.1327 159.893 57.079 160.009 57.079C160.098 57.079 160.173 57.1117 160.233 57.177C160.294 57.2377 160.322 57.3123 160.317 57.401C160.317 57.4663 160.299 57.5293 160.261 57.59L158.581 59.935V61.72C158.581 61.8087 158.551 61.8833 158.49 61.944C158.43 62.0047 158.355 62.035 158.266 62.035ZM168.377 63.372C168.298 63.372 168.23 63.344 168.174 63.288C168.123 63.2367 168.097 63.1713 168.097 63.092V57.1C168.097 57.0207 168.123 56.953 168.174 56.897C168.23 56.841 168.298 56.813 168.377 56.813C168.457 56.813 168.524 56.841 168.58 56.897C168.636 56.953 168.664 57.0207 168.664 57.1V63.092C168.664 63.1713 168.636 63.2367 168.58 63.288C168.524 63.344 168.457 63.372 168.377 63.372ZM179.106 62.07C178.616 62.07 178.187 61.9627 177.818 61.748C177.45 61.5333 177.165 61.237 176.964 60.859C176.764 60.481 176.659 60.047 176.649 59.557C176.659 59.067 176.764 58.633 176.964 58.255C177.165 57.877 177.45 57.5807 177.818 57.366C178.187 57.1513 178.616 57.044 179.106 57.044C179.596 57.044 180.023 57.1513 180.387 57.366C180.756 57.5807 181.041 57.8793 181.241 58.262C181.447 58.64 181.554 59.0717 181.563 59.557C181.554 60.0423 181.447 60.4763 181.241 60.859C181.041 61.237 180.756 61.5333 180.387 61.748C180.023 61.9627 179.596 62.07 179.106 62.07ZM179.106 61.475C179.48 61.475 179.804 61.391 180.079 61.223C180.355 61.055 180.565 60.8263 180.709 60.537C180.854 60.2477 180.926 59.921 180.926 59.557C180.926 59.193 180.854 58.8663 180.709 58.577C180.565 58.2877 180.355 58.059 180.079 57.891C179.804 57.723 179.48 57.639 179.106 57.639C178.728 57.639 178.402 57.723 178.126 57.891C177.856 58.059 177.648 58.2877 177.503 58.577C177.359 58.8663 177.286 59.193 177.286 59.557C177.286 59.921 177.359 60.2477 177.503 60.537C177.648 60.8263 177.856 61.055 178.126 61.223C178.402 61.391 178.728 61.475 179.106 61.475ZM185.529 62.035C185.44 62.035 185.366 62.0047 185.305 61.944C185.244 61.8833 185.214 61.8087 185.214 61.72V57.436C185.214 57.3473 185.244 57.2727 185.305 57.212C185.366 57.1467 185.44 57.114 185.529 57.114H187.125C187.568 57.114 187.93 57.1887 188.21 57.338C188.49 57.4873 188.691 57.6787 188.812 57.912C188.933 58.1453 188.994 58.3973 188.994 58.668C188.994 58.9387 188.933 59.1907 188.812 59.424C188.691 59.6573 188.49 59.8487 188.21 59.998C187.93 60.1473 187.568 60.222 187.125 60.222H185.851V61.72C185.851 61.8087 185.818 61.8833 185.753 61.944C185.692 62.0047 185.618 62.035 185.529 62.035ZM187.062 59.62C187.538 59.62 187.872 59.529 188.063 59.347C188.259 59.165 188.357 58.9387 188.357 58.668C188.357 58.3973 188.259 58.171 188.063 57.989C187.872 57.807 187.538 57.716 187.062 57.716H185.851V59.62H187.062ZM193.956 62.035C193.867 62.035 193.793 62.0047 193.732 61.944C193.671 61.8833 193.641 61.8087 193.641 61.72V57.709H192.213C192.129 57.709 192.059 57.681 192.003 57.625C191.947 57.569 191.919 57.499 191.919 57.415C191.919 57.331 191.947 57.261 192.003 57.205C192.059 57.1443 192.129 57.114 192.213 57.114H195.699C195.783 57.114 195.853 57.1443 195.909 57.205C195.97 57.261 196 57.331 196 57.415C196 57.499 195.97 57.569 195.909 57.625C195.853 57.681 195.783 57.709 195.699 57.709H194.278V61.72C194.278 61.8087 194.245 61.8833 194.18 61.944C194.119 62.0047 194.045 62.035 193.956 62.035ZM199.678 62.035C199.589 62.035 199.514 62.0047 199.454 61.944C199.393 61.8833 199.363 61.8087 199.363 61.72V57.401C199.363 57.3123 199.393 57.2377 199.454 57.177C199.514 57.1117 199.589 57.079 199.678 57.079C199.766 57.079 199.841 57.1117 199.902 57.177C199.967 57.2377 200 57.3123 200 57.401V61.72C200 61.8087 199.967 61.8833 199.902 61.944C199.841 62.0047 199.766 62.035 199.678 62.035ZM204.264 62.035C204.175 62.035 204.1 62.0047 204.04 61.944C203.979 61.8833 203.949 61.8087 203.949 61.72V57.541C203.949 57.415 203.993 57.3077 204.082 57.219C204.17 57.1257 204.278 57.079 204.404 57.079H204.635C204.728 57.079 204.812 57.107 204.887 57.163C204.966 57.219 205.024 57.289 205.062 57.373L206.651 61.335L208.24 57.373C208.277 57.289 208.333 57.219 208.408 57.163C208.487 57.107 208.573 57.079 208.667 57.079H208.898C209.024 57.079 209.131 57.1257 209.22 57.219C209.308 57.3077 209.353 57.415 209.353 57.541V61.72C209.353 61.8087 209.322 61.8833 209.262 61.944C209.201 62.0047 209.126 62.035 209.038 62.035C208.949 62.035 208.872 62.0047 208.807 61.944C208.746 61.8833 208.716 61.8087 208.716 61.72V57.744L207.099 61.741C207.061 61.8297 207.001 61.902 206.917 61.958C206.837 62.0093 206.749 62.035 206.651 62.035C206.553 62.035 206.462 62.0093 206.378 61.958C206.298 61.902 206.24 61.8297 206.203 61.741L204.586 57.744V61.72C204.586 61.8087 204.553 61.8833 204.488 61.944C204.427 62.0047 204.352 62.035 204.264 62.035ZM213.615 62.035C213.526 62.035 213.451 62.0047 213.391 61.944C213.33 61.8833 213.3 61.8087 213.3 61.72V57.401C213.3 57.3123 213.33 57.2377 213.391 57.177C213.451 57.1117 213.526 57.079 213.615 57.079C213.703 57.079 213.778 57.1117 213.839 57.177C213.904 57.2377 213.937 57.3123 213.937 57.401V61.72C213.937 61.8087 213.904 61.8833 213.839 61.944C213.778 62.0047 213.703 62.035 213.615 62.035ZM217.942 62C217.83 62 217.734 61.9603 217.655 61.881C217.575 61.8017 217.536 61.706 217.536 61.594C217.536 61.4913 217.564 61.405 217.62 61.335L220.546 57.723H217.851C217.767 57.723 217.694 57.695 217.634 57.639C217.578 57.5783 217.55 57.506 217.55 57.422C217.55 57.338 217.578 57.2657 217.634 57.205C217.694 57.1443 217.767 57.114 217.851 57.114H220.889C221.019 57.114 221.122 57.156 221.197 57.24C221.276 57.324 221.316 57.4267 221.316 57.548C221.316 57.5947 221.304 57.6437 221.281 57.695C221.262 57.7463 221.236 57.7907 221.204 57.828L218.313 61.405H221.057C221.141 61.405 221.211 61.4353 221.267 61.496C221.327 61.552 221.358 61.622 221.358 61.706C221.358 61.79 221.327 61.86 221.267 61.916C221.211 61.972 221.141 62 221.057 62H217.942ZM225.255 62C225.166 62 225.091 61.9697 225.031 61.909C224.97 61.8483 224.94 61.7737 224.94 61.685V57.436C224.94 57.3473 224.97 57.2727 225.031 57.212C225.091 57.1467 225.166 57.114 225.255 57.114H228.062C228.146 57.114 228.216 57.1443 228.272 57.205C228.332 57.261 228.363 57.331 228.363 57.415C228.363 57.499 228.332 57.569 228.272 57.625C228.216 57.681 228.146 57.709 228.062 57.709H225.577V59.256H227.81C227.894 59.256 227.964 59.2863 228.02 59.347C228.08 59.403 228.111 59.473 228.111 59.557C228.111 59.641 228.08 59.711 228.02 59.767C227.964 59.823 227.894 59.851 227.81 59.851H225.577V61.405H228.062C228.146 61.405 228.216 61.4353 228.272 61.496C228.332 61.552 228.363 61.622 228.363 61.706C228.363 61.79 228.332 61.86 228.272 61.916C228.216 61.972 228.146 62 228.062 62H225.255ZM232.308 62C232.22 62 232.145 61.9697 232.084 61.909C232.024 61.8483 231.993 61.7737 231.993 61.685V57.436C231.993 57.3473 232.024 57.2727 232.084 57.212C232.145 57.1467 232.22 57.114 232.308 57.114H233.715C234.247 57.114 234.698 57.233 235.066 57.471C235.44 57.7043 235.72 58.0077 235.906 58.381C236.093 58.7543 236.186 59.1463 236.186 59.557C236.186 59.9677 236.093 60.3597 235.906 60.733C235.72 61.1063 235.44 61.412 235.066 61.65C234.698 61.8833 234.247 62 233.715 62H232.308ZM233.638 61.405C234.021 61.405 234.357 61.328 234.646 61.174C234.936 61.0153 235.16 60.7983 235.318 60.523C235.477 60.243 235.556 59.921 235.556 59.557C235.556 59.193 235.477 58.8733 235.318 58.598C235.16 58.318 234.936 58.101 234.646 57.947C234.357 57.7883 234.021 57.709 233.638 57.709H232.63V61.405H233.638ZM244.452 63.372C244.372 63.372 244.305 63.344 244.249 63.288C244.197 63.2367 244.172 63.1713 244.172 63.092V57.1C244.172 57.0207 244.197 56.953 244.249 56.897C244.305 56.841 244.372 56.813 244.452 56.813C244.531 56.813 244.599 56.841 244.655 56.897C244.711 56.953 244.739 57.0207 244.739 57.1V63.092C244.739 63.1713 244.711 63.2367 244.655 63.288C244.599 63.344 244.531 63.372 244.452 63.372ZM253.332 62.035C253.244 62.035 253.169 62.0047 253.108 61.944C253.048 61.8833 253.017 61.8087 253.017 61.72V57.541C253.017 57.415 253.062 57.3077 253.15 57.219C253.239 57.1257 253.346 57.079 253.472 57.079H253.563C253.713 57.079 253.841 57.149 253.948 57.289L256.643 61.181V57.401C256.643 57.3123 256.674 57.2377 256.734 57.177C256.795 57.1117 256.87 57.079 256.958 57.079C257.047 57.079 257.122 57.1117 257.182 57.177C257.248 57.2377 257.28 57.3123 257.28 57.401V61.58C257.28 61.706 257.234 61.8133 257.14 61.902C257.052 61.9907 256.944 62.035 256.818 62.035H256.734C256.66 62.035 256.59 62.0187 256.524 61.986C256.459 61.9487 256.405 61.902 256.363 61.846L253.654 57.933V61.72C253.654 61.8087 253.622 61.8833 253.556 61.944C253.496 62.0047 253.421 62.035 253.332 62.035ZM261.542 62C261.453 62 261.378 61.9697 261.318 61.909C261.257 61.8483 261.227 61.7737 261.227 61.685V57.436C261.227 57.3473 261.257 57.2727 261.318 57.212C261.378 57.1467 261.453 57.114 261.542 57.114H264.349C264.433 57.114 264.503 57.1443 264.559 57.205C264.619 57.261 264.65 57.331 264.65 57.415C264.65 57.499 264.619 57.569 264.559 57.625C264.503 57.681 264.433 57.709 264.349 57.709H261.864V59.256H264.097C264.181 59.256 264.251 59.2863 264.307 59.347C264.367 59.403 264.398 59.473 264.398 59.557C264.398 59.641 264.367 59.711 264.307 59.767C264.251 59.823 264.181 59.851 264.097 59.851H261.864V61.405H264.349C264.433 61.405 264.503 61.4353 264.559 61.496C264.619 61.552 264.65 61.622 264.65 61.706C264.65 61.79 264.619 61.86 264.559 61.916C264.503 61.972 264.433 62 264.349 62H261.542ZM269.603 62.035C269.51 62.035 269.426 62.0093 269.351 61.958C269.281 61.902 269.228 61.8227 269.19 61.72L267.818 57.506C267.804 57.4547 267.797 57.415 267.797 57.387C267.793 57.2983 267.818 57.226 267.874 57.17C267.935 57.1093 268.012 57.079 268.105 57.079C268.18 57.079 268.245 57.1023 268.301 57.149C268.357 57.1957 268.397 57.2563 268.42 57.331L269.596 61.195L270.779 57.345C270.803 57.2657 270.847 57.2027 270.912 57.156C270.982 57.1047 271.059 57.079 271.143 57.079C271.227 57.079 271.302 57.1047 271.367 57.156C271.437 57.2027 271.484 57.2657 271.507 57.345L272.69 61.195L273.866 57.331C273.89 57.2563 273.929 57.1957 273.985 57.149C274.041 57.1023 274.107 57.079 274.181 57.079C274.275 57.079 274.349 57.1093 274.405 57.17C274.466 57.226 274.494 57.2983 274.489 57.387C274.489 57.415 274.482 57.4547 274.468 57.506L273.096 61.72C273.059 61.8227 273.003 61.902 272.928 61.958C272.858 62.0093 272.777 62.035 272.683 62.035C272.59 62.035 272.504 62.007 272.424 61.951C272.35 61.8903 272.298 61.8133 272.27 61.72L271.143 58.15L270.016 61.72C269.988 61.8133 269.935 61.8903 269.855 61.951C269.781 62.007 269.697 62.035 269.603 62.035Z" fill="black"/>
<path d="M118.406 42.4463H117.099V46H116.22V42.4463H114.931V41.7344H118.406V42.4463ZM122.616 44.1514H120.929V45.2939H122.909V46H120.05V41.7344H122.903V42.4463H120.929V43.4629H122.616V44.1514ZM127.913 44.5791C127.88 45.0381 127.71 45.3994 127.404 45.6631C127.099 45.9268 126.697 46.0586 126.197 46.0586C125.65 46.0586 125.219 45.875 124.905 45.5078C124.592 45.1387 124.436 44.6328 124.436 43.9902V43.7295C124.436 43.3193 124.508 42.958 124.653 42.6455C124.797 42.333 125.003 42.0938 125.271 41.9277C125.54 41.7598 125.853 41.6758 126.208 41.6758C126.701 41.6758 127.097 41.8076 127.398 42.0713C127.699 42.335 127.872 42.7051 127.919 43.1816H127.04C127.019 42.9062 126.942 42.707 126.809 42.584C126.678 42.459 126.478 42.3965 126.208 42.3965C125.915 42.3965 125.696 42.502 125.549 42.7129C125.405 42.9219 125.33 43.2471 125.327 43.6885V44.0107C125.327 44.4717 125.396 44.8086 125.535 45.0215C125.675 45.2344 125.896 45.3408 126.197 45.3408C126.468 45.3408 126.67 45.2793 126.803 45.1562C126.938 45.0312 127.015 44.8389 127.035 44.5791H127.913ZM133.102 46H132.223V44.1719H130.509V46H129.631V41.7344H130.509V43.4629H132.223V41.7344H133.102V46ZM138.482 46H137.603L135.892 43.1934V46H135.013V41.7344H135.892L137.606 44.5469V41.7344H138.482V46ZM143.893 43.9639C143.893 44.3838 143.819 44.752 143.67 45.0684C143.522 45.3848 143.309 45.6289 143.032 45.8008C142.756 45.9727 142.44 46.0586 142.082 46.0586C141.729 46.0586 141.414 45.9736 141.136 45.8037C140.859 45.6338 140.644 45.3916 140.492 45.0771C140.339 44.7607 140.262 44.3975 140.26 43.9873V43.7764C140.26 43.3564 140.335 42.9873 140.486 42.6689C140.638 42.3486 140.852 42.1035 141.127 41.9336C141.405 41.7617 141.721 41.6758 142.077 41.6758C142.432 41.6758 142.748 41.7617 143.023 41.9336C143.3 42.1035 143.514 42.3486 143.664 42.6689C143.817 42.9873 143.893 43.3555 143.893 43.7734V43.9639ZM143.002 43.7705C143.002 43.3232 142.922 42.9834 142.762 42.751C142.602 42.5186 142.373 42.4023 142.077 42.4023C141.782 42.4023 141.554 42.5176 141.394 42.748C141.234 42.9766 141.153 43.3125 141.151 43.7559V43.9639C141.151 44.3994 141.231 44.7373 141.391 44.9775C141.551 45.2178 141.782 45.3379 142.082 45.3379C142.377 45.3379 142.604 45.2227 142.762 44.9922C142.92 44.7598 143 44.4219 143.002 43.9785V43.7705ZM146.551 45.2939H148.417V46H145.672V41.7344H146.551V45.2939ZM153.38 43.9639C153.38 44.3838 153.306 44.752 153.157 45.0684C153.009 45.3848 152.796 45.6289 152.519 45.8008C152.243 45.9727 151.927 46.0586 151.569 46.0586C151.216 46.0586 150.901 45.9736 150.623 45.8037C150.346 45.6338 150.131 45.3916 149.979 45.0771C149.826 44.7607 149.749 44.3975 149.747 43.9873V43.7764C149.747 43.3564 149.822 42.9873 149.973 42.6689C150.125 42.3486 150.339 42.1035 150.614 41.9336C150.892 41.7617 151.208 41.6758 151.564 41.6758C151.919 41.6758 152.235 41.7617 152.51 41.9336C152.787 42.1035 153.001 42.3486 153.152 42.6689C153.304 42.9873 153.38 43.3555 153.38 43.7734V43.9639ZM152.489 43.7705C152.489 43.3232 152.409 42.9834 152.249 42.751C152.089 42.5186 151.861 42.4023 151.564 42.4023C151.269 42.4023 151.041 42.5176 150.881 42.748C150.721 42.9766 150.64 43.3125 150.638 43.7559V43.9639C150.638 44.3994 150.718 44.7373 150.878 44.9775C151.038 45.2178 151.269 45.3379 151.569 45.3379C151.864 45.3379 152.091 45.2227 152.249 44.9922C152.407 44.7598 152.487 44.4219 152.489 43.9785V43.7705ZM158.534 45.4609C158.376 45.6504 158.152 45.7979 157.863 45.9033C157.574 46.0068 157.253 46.0586 156.902 46.0586C156.533 46.0586 156.209 45.9785 155.929 45.8184C155.652 45.6562 155.437 45.4219 155.285 45.1152C155.134 44.8086 155.057 44.4482 155.053 44.0342V43.7441C155.053 43.3184 155.125 42.9502 155.267 42.6396C155.412 42.3271 155.619 42.0889 155.888 41.9248C156.16 41.7588 156.477 41.6758 156.84 41.6758C157.346 41.6758 157.742 41.7969 158.027 42.0391C158.312 42.2793 158.481 42.6299 158.534 43.0908H157.678C157.639 42.8467 157.552 42.668 157.417 42.5547C157.285 42.4414 157.101 42.3848 156.867 42.3848C156.568 42.3848 156.34 42.4971 156.184 42.7217C156.028 42.9463 155.949 43.2803 155.947 43.7236V43.9961C155.947 44.4434 156.032 44.7812 156.202 45.0098C156.372 45.2383 156.621 45.3525 156.949 45.3525C157.279 45.3525 157.514 45.2822 157.655 45.1416V44.4062H156.855V43.7588H158.534V45.4609ZM161.323 46H160.444V41.7344H161.323V46ZM165.847 44.1514H164.159V45.2939H166.14V46H163.281V41.7344H166.134V42.4463H164.159V43.4629H165.847V44.1514ZM170.007 44.8809C170.007 44.7148 169.949 44.5879 169.832 44.5C169.714 44.4102 169.504 44.3164 169.199 44.2188C168.894 44.1191 168.653 44.0215 168.475 43.9258C167.991 43.6641 167.749 43.3115 167.749 42.8682C167.749 42.6377 167.813 42.4326 167.942 42.2529C168.073 42.0713 168.259 41.9297 168.502 41.8281C168.746 41.7266 169.019 41.6758 169.322 41.6758C169.627 41.6758 169.898 41.7314 170.136 41.8428C170.375 41.9521 170.559 42.1074 170.69 42.3086C170.823 42.5098 170.889 42.7383 170.889 42.9941H170.01C170.01 42.7988 169.949 42.6475 169.826 42.54C169.703 42.4307 169.53 42.376 169.307 42.376C169.092 42.376 168.925 42.4219 168.806 42.5137C168.687 42.6035 168.628 42.7227 168.628 42.8711C168.628 43.0098 168.697 43.126 168.836 43.2197C168.976 43.3135 169.182 43.4014 169.454 43.4834C169.954 43.6338 170.318 43.8203 170.546 44.043C170.775 44.2656 170.889 44.543 170.889 44.875C170.889 45.2441 170.75 45.5342 170.47 45.7451C170.191 45.9541 169.815 46.0586 169.342 46.0586C169.014 46.0586 168.715 45.999 168.446 45.8799C168.176 45.7588 167.97 45.5938 167.828 45.3848C167.687 45.1758 167.617 44.9336 167.617 44.6582H168.499C168.499 45.1289 168.78 45.3643 169.342 45.3643C169.551 45.3643 169.714 45.3223 169.832 45.2383C169.949 45.1523 170.007 45.0332 170.007 44.8809ZM176.14 44.4971V46H175.261V41.7344H176.925C177.245 41.7344 177.527 41.793 177.769 41.9102C178.013 42.0273 178.201 42.1943 178.331 42.4111C178.462 42.626 178.528 42.8711 178.528 43.1465C178.528 43.5645 178.384 43.8945 178.097 44.1367C177.812 44.377 177.416 44.4971 176.91 44.4971H176.14ZM176.14 43.7852H176.925C177.158 43.7852 177.334 43.7305 177.455 43.6211C177.578 43.5117 177.64 43.3555 177.64 43.1523C177.64 42.9434 177.578 42.7744 177.455 42.6455C177.332 42.5166 177.162 42.4502 176.946 42.4463H176.14V43.7852ZM181.853 44.4385H181.153V46H180.274V41.7344H181.859C182.363 41.7344 182.752 41.8467 183.025 42.0713C183.299 42.2959 183.435 42.6133 183.435 43.0234C183.435 43.3145 183.372 43.5576 183.245 43.7529C183.12 43.9463 182.929 44.1006 182.674 44.2158L183.596 45.959V46H182.653L181.853 44.4385ZM181.153 43.7266H181.862C182.083 43.7266 182.254 43.6709 182.375 43.5596C182.496 43.4463 182.556 43.291 182.556 43.0938C182.556 42.8926 182.499 42.7344 182.383 42.6191C182.27 42.5039 182.095 42.4463 181.859 42.4463H181.153V43.7266ZM186.181 46H185.302V41.7344H186.181V46ZM189.714 44.9424L190.681 41.7344H191.66L190.174 46H189.257L187.778 41.7344H188.753L189.714 44.9424ZM195.389 45.1211H193.848L193.555 46H192.621L194.209 41.7344H195.023L196.62 46H195.685L195.389 45.1211ZM194.086 44.4092H195.152L194.616 42.8125L194.086 44.4092ZM201.018 42.4463H199.711V46H198.832V42.4463H197.543V41.7344H201.018V42.4463ZM205.228 44.1514H203.541V45.2939H205.521V46H202.662V41.7344H205.515V42.4463H203.541V43.4629H205.228V44.1514ZM210.69 45.2939H212.556V46H209.811V41.7344H210.69V45.2939ZM215.137 46H214.258V41.7344H215.137V46ZM218.243 41.7344L219.339 44.8281L220.429 41.7344H221.583V46H220.701V44.834L220.789 42.8213L219.638 46H219.034L217.886 42.8242L217.974 44.834V46H217.095V41.7344H218.243ZM224.425 46H223.546V41.7344H224.425V46ZM229.506 42.4463H228.199V46H227.32V42.4463H226.031V41.7344H229.506V42.4463ZM233.716 44.1514H232.028V45.2939H234.009V46H231.149V41.7344H234.003V42.4463H232.028V43.4629H233.716V44.1514ZM235.664 46V41.7344H236.977C237.352 41.7344 237.687 41.8193 237.982 41.9893C238.279 42.1572 238.51 42.3975 238.676 42.71C238.842 43.0205 238.925 43.374 238.925 43.7705V43.9668C238.925 44.3633 238.843 44.7158 238.679 45.0244C238.517 45.333 238.287 45.5723 237.991 45.7422C237.694 45.9121 237.359 45.998 236.986 46H235.664ZM236.543 42.4463V45.2939H236.968C237.312 45.2939 237.575 45.1816 237.756 44.957C237.938 44.7324 238.031 44.4111 238.035 43.9932V43.7676C238.035 43.334 237.945 43.0059 237.765 42.7832C237.585 42.5586 237.323 42.4463 236.977 42.4463H236.543Z" fill="black"/>
<path d="M80.353 31.17C79.8997 31.17 79.5257 31.0227 79.231 30.728C78.959 30.4333 78.823 30.0707 78.823 29.64C78.823 29.4587 78.8797 29.232 78.993 28.96L87.663 8.492C87.8444 8.084 88.0937 7.75533 88.411 7.506C88.751 7.234 89.159 7.098 89.635 7.098H89.975C90.451 7.098 90.8477 7.234 91.165 7.506C91.505 7.75533 91.7657 8.084 91.947 8.492L100.617 28.96C100.73 29.232 100.787 29.4587 100.787 29.64C100.787 30.0707 100.64 30.4333 100.345 30.728C100.073 31.0227 99.7104 31.17 99.257 31.17C98.9397 31.17 98.645 31.0907 98.373 30.932C98.1237 30.7507 97.931 30.5127 97.795 30.218L95.585 24.914H84.025L81.815 30.218C81.679 30.5127 81.475 30.7507 81.203 30.932C80.9537 31.0907 80.6704 31.17 80.353 31.17ZM85.215 22.092H94.395L89.805 11.042L85.215 22.092ZM107.318 31.17C106.888 31.17 106.525 31.0227 106.23 30.728C105.936 30.4333 105.788 30.0707 105.788 29.64V8.832C105.788 8.40133 105.936 8.03867 106.23 7.744C106.525 7.42667 106.888 7.268 107.318 7.268H115.07C117.224 7.268 118.98 7.63067 120.34 8.356C121.7 9.08133 122.675 10.0107 123.264 11.144C123.854 12.2773 124.148 13.5013 124.148 14.816C124.148 16.1307 123.854 17.3547 123.264 18.488C122.675 19.6213 121.7 20.5507 120.34 21.276C118.98 22.0013 117.224 22.364 115.07 22.364H108.882V29.64C108.882 30.0707 108.724 30.4333 108.406 30.728C108.112 31.0227 107.749 31.17 107.318 31.17ZM114.764 19.44C117.076 19.44 118.697 18.998 119.626 18.114C120.578 17.23 121.054 16.1307 121.054 14.816C121.054 13.5013 120.578 12.402 119.626 11.518C118.697 10.634 117.076 10.192 114.764 10.192H108.882V19.44H114.764ZM130.162 31.17C129.731 31.17 129.369 31.0227 129.074 30.728C128.779 30.4333 128.632 30.0707 128.632 29.64V8.832C128.632 8.40133 128.779 8.03867 129.074 7.744C129.369 7.42667 129.731 7.268 130.162 7.268H137.914C140.067 7.268 141.824 7.63067 143.184 8.356C144.544 9.08133 145.519 10.0107 146.108 11.144C146.697 12.2773 146.992 13.5013 146.992 14.816C146.992 16.1307 146.697 17.3547 146.108 18.488C145.519 19.6213 144.544 20.5507 143.184 21.276C141.824 22.0013 140.067 22.364 137.914 22.364H131.726V29.64C131.726 30.0707 131.567 30.4333 131.25 30.728C130.955 31.0227 130.593 31.17 130.162 31.17ZM137.608 19.44C139.92 19.44 141.541 18.998 142.47 18.114C143.422 17.23 143.898 16.1307 143.898 14.816C143.898 13.5013 143.422 12.402 142.47 11.518C141.541 10.634 139.92 10.192 137.608 10.192H131.726V19.44H137.608ZM158.956 31.34C156.077 31.34 153.38 30.796 150.864 29.708C150.592 29.5947 150.365 29.4133 150.184 29.164C150.002 28.892 149.912 28.6087 149.912 28.314C149.912 27.9287 150.036 27.6 150.286 27.328C150.558 27.0333 150.898 26.886 151.306 26.886C151.532 26.886 151.748 26.9313 151.952 27.022C154.037 27.9513 156.27 28.416 158.65 28.416C162.616 28.416 164.6 27.1127 164.6 24.506C164.6 23.826 164.339 23.2593 163.818 22.806C163.319 22.3527 162.696 22.0013 161.948 21.752C161.2 21.48 160.134 21.1627 158.752 20.8C156.916 20.324 155.431 19.8707 154.298 19.44C153.164 18.9867 152.19 18.318 151.374 17.434C150.558 16.55 150.15 15.3713 150.15 13.898C150.15 12.606 150.49 11.4387 151.17 10.396C151.85 9.33067 152.847 8.492 154.162 7.88C155.499 7.24533 157.097 6.928 158.956 6.928C161.449 6.928 163.704 7.302 165.722 8.05C166.356 8.27667 166.674 8.73 166.674 9.41C166.674 9.77267 166.549 10.1013 166.3 10.396C166.05 10.6907 165.722 10.838 165.314 10.838C165.178 10.838 164.996 10.7927 164.77 10.702C163.002 10.09 161.177 9.784 159.296 9.784C157.505 9.784 156.043 10.124 154.91 10.804C153.799 11.484 153.244 12.436 153.244 13.66C153.244 14.476 153.504 15.1447 154.026 15.666C154.57 16.1647 155.238 16.5613 156.032 16.856C156.848 17.128 157.947 17.4227 159.33 17.74C161.12 18.1707 162.56 18.6013 163.648 19.032C164.758 19.4627 165.699 20.1313 166.47 21.038C167.263 21.9447 167.66 23.1687 167.66 24.71C167.66 25.9793 167.297 27.124 166.572 28.144C165.846 29.1413 164.826 29.9233 163.512 30.49C162.197 31.0567 160.678 31.34 158.956 31.34ZM173.957 31C173.526 31 173.164 30.8527 172.869 30.558C172.574 30.2633 172.427 29.9007 172.427 29.47V8.832C172.427 8.40133 172.574 8.03867 172.869 7.744C173.164 7.42667 173.526 7.268 173.957 7.268H187.591C187.999 7.268 188.339 7.41533 188.611 7.71C188.906 7.982 189.053 8.322 189.053 8.73C189.053 9.138 188.906 9.478 188.611 9.75C188.339 10.022 187.999 10.158 187.591 10.158H175.521V17.672H186.367C186.775 17.672 187.115 17.8193 187.387 18.114C187.682 18.386 187.829 18.726 187.829 19.134C187.829 19.542 187.682 19.882 187.387 20.154C187.115 20.426 186.775 20.562 186.367 20.562H175.521V28.11H187.591C187.999 28.11 188.339 28.2573 188.611 28.552C188.906 28.824 189.053 29.164 189.053 29.572C189.053 29.98 188.906 30.32 188.611 30.592C188.339 30.864 187.999 31 187.591 31H173.957ZM204.382 31.34C202.002 31.34 199.917 30.8187 198.126 29.776C196.335 28.7333 194.953 27.294 193.978 25.458C193.003 23.622 192.493 21.514 192.448 19.134C192.493 16.754 193.003 14.646 193.978 12.81C194.953 10.974 196.335 9.53466 198.126 8.492C199.917 7.44933 202.002 6.928 204.382 6.928C206.762 6.928 208.836 7.44933 210.604 8.492C212.395 9.53466 213.777 10.9853 214.752 12.844C215.749 14.68 216.271 16.7767 216.316 19.134C216.271 21.4913 215.749 23.5993 214.752 25.458C213.777 27.294 212.395 28.7333 210.604 29.776C208.836 30.8187 206.762 31.34 204.382 31.34ZM204.382 28.45C206.195 28.45 207.771 28.042 209.108 27.226C210.445 26.41 211.465 25.2993 212.168 23.894C212.871 22.4887 213.222 20.902 213.222 19.134C213.222 17.366 212.871 15.7793 212.168 14.374C211.465 12.9687 210.445 11.858 209.108 11.042C207.771 10.226 206.195 9.818 204.382 9.818C202.546 9.818 200.959 10.226 199.622 11.042C198.307 11.858 197.299 12.9687 196.596 14.374C195.893 15.7793 195.542 17.366 195.542 19.134C195.542 20.902 195.893 22.4887 196.596 23.894C197.299 25.2993 198.307 26.41 199.622 27.226C200.959 28.042 202.546 28.45 204.382 28.45ZM222.998 31.17C222.567 31.17 222.205 31.0227 221.91 30.728C221.615 30.4333 221.468 30.0707 221.468 29.64V9.342C221.468 8.73 221.683 8.20867 222.114 7.778C222.545 7.32467 223.066 7.098 223.678 7.098H224.12C224.845 7.098 225.469 7.438 225.99 8.118L239.08 27.022V8.662C239.08 8.23133 239.227 7.86867 239.522 7.574C239.817 7.25667 240.179 7.098 240.61 7.098C241.041 7.098 241.403 7.25667 241.698 7.574C242.015 7.86867 242.174 8.23133 242.174 8.662V28.96C242.174 29.572 241.947 30.0933 241.494 30.524C241.063 30.9547 240.542 31.17 239.93 31.17H239.522C239.159 31.17 238.819 31.0907 238.502 30.932C238.185 30.7507 237.924 30.524 237.72 30.252L224.562 11.246V29.64C224.562 30.0707 224.403 30.4333 224.086 30.728C223.791 31.0227 223.429 31.17 222.998 31.17ZM250.291 31.17C249.86 31.17 249.498 31.0227 249.203 30.728C248.908 30.4333 248.761 30.0707 248.761 29.64V8.662C248.761 8.23133 248.908 7.86867 249.203 7.574C249.498 7.25667 249.86 7.098 250.291 7.098C250.722 7.098 251.084 7.25667 251.379 7.574C251.696 7.86867 251.855 8.23133 251.855 8.662V29.64C251.855 30.0707 251.696 30.4333 251.379 30.728C251.084 31.0227 250.722 31.17 250.291 31.17ZM265.494 31.17C265.064 31.17 264.701 31.0227 264.406 30.728C264.112 30.4333 263.964 30.0707 263.964 29.64V10.158H257.028C256.62 10.158 256.28 10.022 256.008 9.75C255.736 9.478 255.6 9.138 255.6 8.73C255.6 8.322 255.736 7.982 256.008 7.71C256.28 7.41533 256.62 7.268 257.028 7.268H273.96C274.368 7.268 274.708 7.41533 274.98 7.71C275.275 7.982 275.422 8.322 275.422 8.73C275.422 9.138 275.275 9.478 274.98 9.75C274.708 10.022 274.368 10.158 273.96 10.158H267.058V29.64C267.058 30.0707 266.9 30.4333 266.582 30.728C266.288 31.0227 265.925 31.17 265.494 31.17Z" fill="black"/>
<line x1="73" y1="65" x2="73" y2="6" stroke="black" stroke-width="2"/>
<g filter="url(#filter0_d)">
<rect x="20.1618" y="20.3776" width="30.8465" height="17.5145" fill="#00C2FF"/>
</g>
<rect x="21.2075" y="37.3693" width="30.8465" height="13.0705" fill="#00C2FF"/>
<g filter="url(#filter1_d)">
<path d="M58.5789 20.5866C60.2597 20.7481 61.1002 20.8288 61.4417 21.4112C61.7832 21.9936 61.434 22.7506 60.7355 24.2646L57.3178 31.6733C56.3948 33.6741 55.9333 34.6745 55.1338 34.7088C54.3342 34.7432 53.7734 33.7867 52.6517 31.8738L47.8444 23.6752C46.7227 21.7623 46.1619 20.8059 46.5919 20.1413C47.0219 19.4766 48.1325 19.5833 50.3538 19.7966L58.5789 20.5866Z" fill="#1EB4D5"/>
</g>
<g filter="url(#filter2_d)">
<path d="M46.1154 13.8867C47.5961 13.13 48.3365 12.7517 48.9341 13.0515C49.5317 13.3513 49.656 14.1635 49.9047 15.7878L51.1345 23.8221C51.4709 26.0197 51.6391 27.1185 50.9865 27.5874C50.3339 28.0563 49.3344 27.5549 47.3354 26.552L38.7813 22.2604C36.7823 21.2575 35.7827 20.7561 35.7844 19.9606C35.7861 19.1651 36.7878 18.6533 38.7911 17.6295L46.1154 13.8867Z" fill="#0B589F"/>
</g>
<g filter="url(#filter3_d)">
<path d="M34.7765 8.91479C35.7426 7.58367 36.2257 6.9181 36.8921 6.9181C37.5585 6.9181 38.0415 7.58367 39.0077 8.9148L43.8413 15.5744C45.1589 17.3897 45.8176 18.2973 45.4539 19.0107C45.0902 19.7241 43.9687 19.7241 41.7257 19.7241H32.0584C29.8155 19.7241 28.694 19.7241 28.3303 19.0107C27.9666 18.2973 28.6253 17.3897 29.9429 15.5744L34.7765 8.91479Z" fill="#1500FF"/>
</g>
<g filter="url(#filter4_d)">
<path d="M22.6287 15.6965C22.8485 14.0676 22.9585 13.2532 23.551 12.943C24.1434 12.6328 24.8906 12.9985 26.3851 13.7299L33.7749 17.3464C35.7954 18.3352 36.8057 18.8297 36.8213 19.6248C36.8368 20.4199 35.8464 20.9384 33.8654 21.9755L25.3883 26.4136C23.4074 27.4507 22.4169 27.9693 21.7562 27.5119C21.0954 27.0546 21.2441 25.9534 21.5414 23.7511L22.6287 15.6965Z" fill="#8C06FF"/>
</g>
<g filter="url(#filter5_d)">
<path d="M12.0327 24.4847C11.2805 22.9946 10.9044 22.2495 11.2254 21.6551C11.5464 21.0607 12.384 20.9511 14.0592 20.7319L22.2519 19.6597C24.4629 19.3703 25.5684 19.2256 26.0211 19.875C26.4738 20.5244 25.9472 21.4995 24.894 23.4498L20.3799 31.8092C19.3267 33.7595 18.8001 34.7346 18.0002 34.7282C17.2003 34.7218 16.7039 33.7385 15.7112 31.7719L12.0327 24.4847Z" fill="#620A82"/>
</g>
<g filter="url(#filter6_d)">
<path d="M12.0323 37.5591C10.6193 36.5825 9.91285 36.0942 9.91285 35.4087C9.91285 34.7233 10.6193 34.2349 12.0323 33.2583L18.7408 28.6214C20.5411 27.3771 21.4413 26.7549 22.1413 27.122C22.8413 27.4891 22.8413 28.5833 22.8413 30.7718V40.0456C22.8413 42.2341 22.8413 43.3283 22.1413 43.6954C21.4413 44.0625 20.5411 43.4404 18.7408 42.196L12.0323 37.5591Z" fill="#FF004D"/>
</g>
<g filter="url(#filter7_d)">
<path d="M14.717 52.3084C13.0362 52.147 12.1957 52.0662 11.8542 51.4838C11.5127 50.9014 11.8619 50.1444 12.5604 48.6304L15.9781 41.2217C16.9011 39.2209 17.3626 38.2206 18.1621 38.1862C18.9617 38.1518 19.5225 39.1083 20.6442 41.0212L25.4515 49.2198C26.5732 51.1327 27.134 52.0891 26.704 52.7538C26.274 53.4184 25.1634 53.3117 22.9421 53.0984L14.717 52.3084Z" fill="#813137"/>
</g>
<g filter="url(#filter8_d)">
<path d="M25.5127 56.1469C23.9665 56.7747 23.1934 57.0887 22.6229 56.7383C22.0523 56.388 22.0006 55.5676 21.8971 53.9268L21.3859 45.823C21.2463 43.6103 21.1765 42.5039 21.8685 42.0944C22.5606 41.6849 23.5124 42.2693 25.4161 43.4382L33.5638 48.441C35.4674 49.6099 36.4193 50.1943 36.3481 50.9851C36.2769 51.7758 35.2343 52.1991 33.1492 53.0459L25.5127 56.1469Z" fill="#FF7807"/>
</g>
<g filter="url(#filter9_d)">
<path d="M38.8955 61.5395C37.9237 62.9131 37.4378 63.5999 36.7614 63.5999C36.0851 63.5999 35.5992 62.9131 34.6274 61.5395L29.831 54.7598C28.5523 52.9523 27.913 52.0486 28.2785 51.3422C28.644 50.6359 29.751 50.6359 31.9651 50.6359H41.5578C43.7719 50.6359 44.8789 50.6359 45.2444 51.3422C45.6099 52.0486 44.9706 52.9523 43.6919 54.7598L38.8955 61.5395Z" fill="#1F6B13"/>
</g>
<g filter="url(#filter10_d)">
<path d="M50.5008 53.9419C50.3967 55.5841 50.3447 56.4053 49.7745 56.7561C49.2042 57.1069 48.4319 56.793 46.8872 56.1652L39.2579 53.0646C37.1748 52.218 36.1332 51.7947 36.0624 51.0033C35.9916 50.2119 36.9429 49.6266 38.8455 48.456L46.9889 43.4456C48.8915 42.275 49.8428 41.6897 50.5341 42.0993C51.2255 42.5089 51.1553 43.6162 51.0149 45.8308L50.5008 53.9419Z" fill="#22FF00"/>
</g>
<g filter="url(#filter11_d)">
<path d="M60.5806 46.66C61.3328 48.1501 61.7088 48.8951 61.3879 49.4895C61.0669 50.0839 60.2293 50.1935 58.5541 50.4128L50.3614 51.485C48.1504 51.7744 47.0449 51.919 46.5922 51.2697C46.1395 50.6203 46.6661 49.6451 47.7193 47.6949L52.2334 39.3354C53.2866 37.3852 53.8132 36.41 54.6131 36.4164C55.413 36.4228 55.9093 37.4061 56.9021 39.3728L60.5806 46.66Z" fill="#F6D336"/>
</g>
<g filter="url(#filter12_d)">
<path d="M60.5658 33.7763C61.9026 34.7172 62.571 35.1877 62.5824 35.8515C62.5937 36.5152 61.9418 37.0093 60.638 37.9973L54.0083 43.0215C52.2141 44.3812 51.317 45.0611 50.5957 44.7106C49.8744 44.3602 49.8552 43.2352 49.8167 40.9851L49.6491 31.1761C49.6107 28.926 49.5915 27.801 50.3003 27.425C51.0092 27.0491 51.929 27.6966 53.7686 28.9915L60.5658 33.7763Z" fill="#15EAF8"/>
</g>
<g filter="url(#filter13_d)">
<rect x="20.1618" y="20.3776" width="30.8465" height="17.5145" fill="#3498DB"/>
</g>
<rect x="21.2075" y="37.3693" width="30.8465" height="13.0705" fill="#3498DB"/>
<g filter="url(#filter14_d)">
<path d="M58.5789 20.5866C60.2597 20.7481 61.1002 20.8288 61.4417 21.4112C61.7832 21.9936 61.434 22.7506 60.7355 24.2646L57.3178 31.6733C56.3948 33.6741 55.9333 34.6745 55.1338 34.7088C54.3342 34.7432 53.7734 33.7867 52.6517 31.8738L47.8444 23.6752C46.7227 21.7623 46.1619 20.8059 46.5919 20.1413C47.0219 19.4766 48.1325 19.5833 50.3538 19.7966L58.5789 20.5866Z" fill="#1EB4D5"/>
</g>
<g filter="url(#filter15_d)">
<path d="M46.1154 13.8867C47.5961 13.13 48.3365 12.7517 48.9341 13.0515C49.5317 13.3513 49.656 14.1635 49.9047 15.7878L51.1345 23.8221C51.4709 26.0197 51.6391 27.1185 50.9865 27.5874C50.3339 28.0563 49.3344 27.5549 47.3354 26.552L38.7813 22.2604C36.7823 21.2575 35.7827 20.7561 35.7844 19.9606C35.7861 19.1651 36.7878 18.6533 38.7911 17.6295L46.1154 13.8867Z" fill="#0B589F"/>
</g>
<g filter="url(#filter16_d)">
<path d="M34.7765 8.91479C35.7426 7.58367 36.2257 6.9181 36.8921 6.9181C37.5585 6.9181 38.0415 7.58367 39.0077 8.9148L43.8413 15.5744C45.1589 17.3897 45.8176 18.2973 45.4539 19.0107C45.0902 19.7241 43.9687 19.7241 41.7257 19.7241H32.0584C29.8155 19.7241 28.694 19.7241 28.3303 19.0107C27.9666 18.2973 28.6253 17.3897 29.9429 15.5744L34.7765 8.91479Z" fill="#1500FF"/>
</g>
<g filter="url(#filter17_d)">
<path d="M22.6287 15.6965C22.8485 14.0676 22.9585 13.2532 23.551 12.943C24.1434 12.6328 24.8906 12.9985 26.3851 13.7299L33.7749 17.3464C35.7954 18.3352 36.8057 18.8297 36.8213 19.6248C36.8368 20.4199 35.8464 20.9384 33.8654 21.9755L25.3883 26.4136C23.4074 27.4507 22.4169 27.9693 21.7562 27.5119C21.0954 27.0546 21.2441 25.9534 21.5414 23.7511L22.6287 15.6965Z" fill="#8C06FF"/>
</g>
<g filter="url(#filter18_d)">
<path d="M12.0327 24.4847C11.2805 22.9946 10.9044 22.2495 11.2254 21.6551C11.5464 21.0607 12.384 20.9511 14.0592 20.7319L22.2519 19.6597C24.4629 19.3703 25.5684 19.2256 26.0211 19.875C26.4738 20.5244 25.9472 21.4995 24.894 23.4498L20.3799 31.8092C19.3267 33.7595 18.8001 34.7346 18.0002 34.7282C17.2003 34.7218 16.7039 33.7385 15.7112 31.7719L12.0327 24.4847Z" fill="#620A82"/>
</g>
<g filter="url(#filter19_d)">
<path d="M12.0323 37.5591C10.6193 36.5825 9.91285 36.0942 9.91285 35.4087C9.91285 34.7233 10.6193 34.2349 12.0323 33.2583L18.7408 28.6214C20.5411 27.3771 21.4413 26.7549 22.1413 27.122C22.8413 27.4891 22.8413 28.5833 22.8413 30.7718V40.0456C22.8413 42.2341 22.8413 43.3283 22.1413 43.6954C21.4413 44.0625 20.5411 43.4404 18.7408 42.196L12.0323 37.5591Z" fill="#FF004D"/>
</g>
<g filter="url(#filter20_d)">
<path d="M14.717 52.3084C13.0362 52.147 12.1957 52.0662 11.8542 51.4838C11.5127 50.9014 11.8619 50.1444 12.5604 48.6304L15.9781 41.2217C16.9011 39.2209 17.3626 38.2206 18.1621 38.1862C18.9617 38.1518 19.5225 39.1083 20.6442 41.0212L25.4515 49.2198C26.5732 51.1327 27.134 52.0891 26.704 52.7538C26.274 53.4184 25.1634 53.3117 22.9421 53.0984L14.717 52.3084Z" fill="#813137"/>
</g>
<g filter="url(#filter21_d)">
<path d="M25.5127 56.1469C23.9665 56.7747 23.1934 57.0887 22.6229 56.7383C22.0523 56.388 22.0006 55.5676 21.8971 53.9268L21.3859 45.823C21.2463 43.6103 21.1765 42.5039 21.8685 42.0944C22.5606 41.6849 23.5124 42.2693 25.4161 43.4382L33.5638 48.441C35.4674 49.6099 36.4193 50.1943 36.3481 50.9851C36.2769 51.7758 35.2343 52.1991 33.1492 53.0459L25.5127 56.1469Z" fill="#FF7807"/>
</g>
<g filter="url(#filter22_d)">
<path d="M38.8955 61.5395C37.9237 62.9131 37.4378 63.5999 36.7614 63.5999C36.0851 63.5999 35.5992 62.9131 34.6274 61.5395L29.831 54.7598C28.5523 52.9523 27.913 52.0486 28.2785 51.3422C28.644 50.6359 29.751 50.6359 31.9651 50.6359H41.5578C43.7719 50.6359 44.8789 50.6359 45.2444 51.3422C45.6099 52.0486 44.9706 52.9523 43.6919 54.7598L38.8955 61.5395Z" fill="#1F6B13"/>
</g>
<g filter="url(#filter23_d)">
<path d="M50.5008 53.9419C50.3967 55.5841 50.3447 56.4053 49.7745 56.7561C49.2042 57.1069 48.4319 56.793 46.8872 56.1652L39.2579 53.0646C37.1748 52.218 36.1332 51.7947 36.0624 51.0033C35.9916 50.2119 36.9429 49.6266 38.8455 48.456L46.9889 43.4456C48.8915 42.275 49.8428 41.6897 50.5341 42.0993C51.2255 42.5089 51.1553 43.6162 51.0149 45.8308L50.5008 53.9419Z" fill="#22FF00"/>
</g>
<g filter="url(#filter24_d)">
<path d="M60.5806 46.66C61.3328 48.1501 61.7088 48.8951 61.3879 49.4895C61.0669 50.0839 60.2293 50.1935 58.5541 50.4128L50.3614 51.485C48.1504 51.7744 47.0449 51.919 46.5922 51.2697C46.1395 50.6203 46.6661 49.6451 47.7193 47.6949L52.2334 39.3354C53.2866 37.3852 53.8132 36.41 54.6131 36.4164C55.413 36.4228 55.9093 37.4061 56.9021 39.3728L60.5806 46.66Z" fill="#F6D336"/>
</g>
<g filter="url(#filter25_d)">
<path d="M60.5658 33.7763C61.9026 34.7172 62.571 35.1877 62.5824 35.8515C62.5937 36.5152 61.9418 37.0093 60.638 37.9973L54.0083 43.0215C52.2141 44.3812 51.317 45.0611 50.5957 44.7106C49.8744 44.3602 49.8552 43.2352 49.8167 40.9851L49.6491 31.1761C49.6107 28.926 49.5915 27.801 50.3003 27.425C51.0092 27.0491 51.929 27.6966 53.7686 28.9915L60.5658 33.7763Z" fill="#15EAF8"/>
</g>
</g>
<defs>
<filter id="filter0_d" x="12.0581" y="16.9792" width="41.3029" height="27.971" filterUnits="userSpaceOnUse" color-interpolation-filters="sRGB">
<feFlood flood-opacity="0" result="BackgroundImageFix"/>
<feColorMatrix in="SourceAlpha" type="matrix" values="0 0 0 0 0 0 0 0 0 0 0 0 0 0 0 0 0 0 127 0"/>
<feOffset dx="-2.87552" dy="1.82988"/>
<feGaussianBlur stdDeviation="2.61411"/>
<feColorMatrix type="matrix" values="0 0 0 0 0 0 0 0 0 0 0 0 0 0 0 0 0 0 0.69 0"/>
<feBlend mode="normal" in2="BackgroundImageFix" result="effect1_dropShadow"/>
<feBlend mode="normal" in="SourceGraphic" in2="effect1_dropShadow" result="shape"/>
</filter>
<filter id="filter1_d" x="38.3435" y="16.2351" width="25.5832" height="25.5327" filterUnits="userSpaceOnUse" color-interpolation-filters="sRGB">
<feFlood flood-opacity="0" result="BackgroundImageFix"/>
<feColorMatrix in="SourceAlpha" type="matrix" values="0 0 0 0 0 0 0 0 0 0 0 0 0 0 0 0 0 0 127 0"/>
<feOffset dx="-2.87552" dy="1.82988"/>
<feGaussianBlur stdDeviation="2.61411"/>
<feColorMatrix type="matrix" values="0 0 0 0 0 0 0 0 0 0 0 0 0 0 0 0 0 0 0.69 0"/>
<feBlend mode="normal" in2="BackgroundImageFix" result="effect1_dropShadow"/>
<feBlend mode="normal" in="SourceGraphic" in2="effect1_dropShadow" result="shape"/>
</filter>
<filter id="filter2_d" x="27.6807" y="9.55027" width="26.1034" height="25.2725" filterUnits="userSpaceOnUse" color-interpolation-filters="sRGB">
<feFlood flood-opacity="0" result="BackgroundImageFix"/>
<feColorMatrix in="SourceAlpha" type="matrix" values="0 0 0 0 0 0 0 0 0 0 0 0 0 0 0 0 0 0 127 0"/>
<feOffset dx="-2.87552" dy="1.82988"/>
<feGaussianBlur stdDeviation="2.61411"/>
<feColorMatrix type="matrix" values="0 0 0 0 0 0 0 0 0 0 0 0 0 0 0 0 0 0 0.69 0"/>
<feBlend mode="normal" in2="BackgroundImageFix" result="effect1_dropShadow"/>
<feBlend mode="normal" in="SourceGraphic" in2="effect1_dropShadow" result="shape"/>
</filter>
<filter id="filter3_d" x="20.1273" y="3.51975" width="27.7784" height="23.2624" filterUnits="userSpaceOnUse" color-interpolation-filters="sRGB">
<feFlood flood-opacity="0" result="BackgroundImageFix"/>
<feColorMatrix in="SourceAlpha" type="matrix" values="0 0 0 0 0 0 0 0 0 0 0 0 0 0 0 0 0 0 127 0"/>
<feOffset dx="-2.87552" dy="1.82988"/>
<feGaussianBlur stdDeviation="2.61411"/>
<feColorMatrix type="matrix" values="0 0 0 0 0 0 0 0 0 0 0 0 0 0 0 0 0 0 0.69 0"/>
<feBlend mode="normal" in2="BackgroundImageFix" result="effect1_dropShadow"/>
<feBlend mode="normal" in="SourceGraphic" in2="effect1_dropShadow" result="shape"/>
</filter>
<filter id="filter4_d" x="13.1853" y="9.43381" width="25.9888" height="25.3034" filterUnits="userSpaceOnUse" color-interpolation-filters="sRGB">
<feFlood flood-opacity="0" result="BackgroundImageFix"/>
<feColorMatrix in="SourceAlpha" type="matrix" values="0 0 0 0 0 0 0 0 0 0 0 0 0 0 0 0 0 0 127 0"/>
<feOffset dx="-2.87552" dy="1.82988"/>
<feGaussianBlur stdDeviation="2.61411"/>
<feColorMatrix type="matrix" values="0 0 0 0 0 0 0 0 0 0 0 0 0 0 0 0 0 0 0.69 0"/>
<feBlend mode="normal" in2="BackgroundImageFix" result="effect1_dropShadow"/>
<feBlend mode="normal" in="SourceGraphic" in2="effect1_dropShadow" result="shape"/>
</filter>
<filter id="filter5_d" x="3.00656" y="16.0165" width="25.5302" height="25.7699" filterUnits="userSpaceOnUse" color-interpolation-filters="sRGB">
<feFlood flood-opacity="0" result="BackgroundImageFix"/>
<feColorMatrix in="SourceAlpha" type="matrix" values="0 0 0 0 0 0 0 0 0 0 0 0 0 0 0 0 0 0 127 0"/>
<feOffset dx="-2.87552" dy="1.82988"/>
<feGaussianBlur stdDeviation="2.61411"/>
<feColorMatrix type="matrix" values="0 0 0 0 0 0 0 0 0 0 0 0 0 0 0 0 0 0 0.69 0"/>
<feBlend mode="normal" in2="BackgroundImageFix" result="effect1_dropShadow"/>
<feBlend mode="normal" in="SourceGraphic" in2="effect1_dropShadow" result="shape"/>
</filter>
<filter id="filter6_d" x="1.80911" y="23.619" width="23.3849" height="27.2392" filterUnits="userSpaceOnUse" color-interpolation-filters="sRGB">
<feFlood flood-opacity="0" result="BackgroundImageFix"/>
<feColorMatrix in="SourceAlpha" type="matrix" values="0 0 0 0 0 0 0 0 0 0 0 0 0 0 0 0 0 0 127 0"/>
<feOffset dx="-2.87552" dy="1.82988"/>
<feGaussianBlur stdDeviation="2.61411"/>
<feColorMatrix type="matrix" values="0 0 0 0 0 0 0 0 0 0 0 0 0 0 0 0 0 0 0.69 0"/>
<feBlend mode="normal" in2="BackgroundImageFix" result="effect1_dropShadow"/>
<feBlend mode="normal" in="SourceGraphic" in2="effect1_dropShadow" result="shape"/>
</filter>
<filter id="filter7_d" x="3.61816" y="34.787" width="25.5832" height="25.5327" filterUnits="userSpaceOnUse" color-interpolation-filters="sRGB">
<feFlood flood-opacity="0" result="BackgroundImageFix"/>
<feColorMatrix in="SourceAlpha" type="matrix" values="0 0 0 0 0 0 0 0 0 0 0 0 0 0 0 0 0 0 127 0"/>
<feOffset dx="-2.87552" dy="1.82988"/>
<feGaussianBlur stdDeviation="2.61411"/>
<feColorMatrix type="matrix" values="0 0 0 0 0 0 0 0 0 0 0 0 0 0 0 0 0 0 0.69 0"/>
<feBlend mode="normal" in2="BackgroundImageFix" result="effect1_dropShadow"/>
<feBlend mode="normal" in="SourceGraphic" in2="effect1_dropShadow" result="shape"/>
</filter>
<filter id="filter8_d" x="13.1908" y="38.5656" width="25.5137" height="25.3765" filterUnits="userSpaceOnUse" color-interpolation-filters="sRGB">
<feFlood flood-opacity="0" result="BackgroundImageFix"/>
<feColorMatrix in="SourceAlpha" type="matrix" values="0 0 0 0 0 0 0 0 0 0 0 0 0 0 0 0 0 0 127 0"/>
<feOffset dx="-2.87552" dy="1.82988"/>
<feGaussianBlur stdDeviation="2.61411"/>
<feColorMatrix type="matrix" values="0 0 0 0 0 0 0 0 0 0 0 0 0 0 0 0 0 0 0.69 0"/>
<feBlend mode="normal" in2="BackgroundImageFix" result="effect1_dropShadow"/>
<feBlend mode="normal" in="SourceGraphic" in2="effect1_dropShadow" result="shape"/>
</filter>
<filter id="filter9_d" x="20.0727" y="47.2376" width="27.6264" height="23.4205" filterUnits="userSpaceOnUse" color-interpolation-filters="sRGB">
<feFlood flood-opacity="0" result="BackgroundImageFix"/>
<feColorMatrix in="SourceAlpha" type="matrix" values="0 0 0 0 0 0 0 0 0 0 0 0 0 0 0 0 0 0 127 0"/>
<feOffset dx="-2.87552" dy="1.82988"/>
<feGaussianBlur stdDeviation="2.61411"/>
<feColorMatrix type="matrix" values="0 0 0 0 0 0 0 0 0 0 0 0 0 0 0 0 0 0 0.69 0"/>
<feBlend mode="normal" in2="BackgroundImageFix" result="effect1_dropShadow"/>
<feBlend mode="normal" in="SourceGraphic" in2="effect1_dropShadow" result="shape"/>
</filter>
<filter id="filter10_d" x="27.955" y="38.5707" width="25.5047" height="25.3896" filterUnits="userSpaceOnUse" color-interpolation-filters="sRGB">
<feFlood flood-opacity="0" result="BackgroundImageFix"/>
<feColorMatrix in="SourceAlpha" type="matrix" values="0 0 0 0 0 0 0 0 0 0 0 0 0 0 0 0 0 0 127 0"/>
<feOffset dx="-2.87552" dy="1.82988"/>
<feGaussianBlur stdDeviation="2.61411"/>
<feColorMatrix type="matrix" values="0 0 0 0 0 0 0 0 0 0 0 0 0 0 0 0 0 0 0.69 0"/>
<feBlend mode="normal" in2="BackgroundImageFix" result="effect1_dropShadow"/>
<feBlend mode="normal" in="SourceGraphic" in2="effect1_dropShadow" result="shape"/>
</filter>
<filter id="filter11_d" x="38.3254" y="33.018" width="25.5302" height="25.7699" filterUnits="userSpaceOnUse" color-interpolation-filters="sRGB">
<feFlood flood-opacity="0" result="BackgroundImageFix"/>
<feColorMatrix in="SourceAlpha" type="matrix" values="0 0 0 0 0 0 0 0 0 0 0 0 0 0 0 0 0 0 127 0"/>
<feOffset dx="-2.87552" dy="1.82988"/>
<feGaussianBlur stdDeviation="2.61411"/>
<feColorMatrix type="matrix" values="0 0 0 0 0 0 0 0 0 0 0 0 0 0 0 0 0 0 0.69 0"/>
<feBlend mode="normal" in2="BackgroundImageFix" result="effect1_dropShadow"/>
<feBlend mode="normal" in="SourceGraphic" in2="effect1_dropShadow" result="shape"/>
</filter>
<filter id="filter12_d" x="41.5303" y="23.9207" width="23.4049" height="27.9393" filterUnits="userSpaceOnUse" color-interpolation-filters="sRGB">
<feFlood flood-opacity="0" result="BackgroundImageFix"/>
<feColorMatrix in="SourceAlpha" type="matrix" values="0 0 0 0 0 0 0 0 0 0 0 0 0 0 0 0 0 0 127 0"/>
<feOffset dx="-2.87552" dy="1.82988"/>
<feGaussianBlur stdDeviation="2.61411"/>
<feColorMatrix type="matrix" values="0 0 0 0 0 0 0 0 0 0 0 0 0 0 0 0 0 0 0.69 0"/>
<feBlend mode="normal" in2="BackgroundImageFix" result="effect1_dropShadow"/>
<feBlend mode="normal" in="SourceGraphic" in2="effect1_dropShadow" result="shape"/>
</filter>
<filter id="filter13_d" x="12.0581" y="16.9792" width="41.3029" height="27.971" filterUnits="userSpaceOnUse" color-interpolation-filters="sRGB">
<feFlood flood-opacity="0" result="BackgroundImageFix"/>
<feColorMatrix in="SourceAlpha" type="matrix" values="0 0 0 0 0 0 0 0 0 0 0 0 0 0 0 0 0 0 127 0"/>
<feOffset dx="-2.87552" dy="1.82988"/>
<feGaussianBlur stdDeviation="2.61411"/>
<feColorMatrix type="matrix" values="0 0 0 0 0 0 0 0 0 0 0 0 0 0 0 0 0 0 0.69 0"/>
<feBlend mode="normal" in2="BackgroundImageFix" result="effect1_dropShadow"/>
<feBlend mode="normal" in="SourceGraphic" in2="effect1_dropShadow" result="shape"/>
</filter>
<filter id="filter14_d" x="38.3435" y="16.2351" width="25.5832" height="25.5327" filterUnits="userSpaceOnUse" color-interpolation-filters="sRGB">
<feFlood flood-opacity="0" result="BackgroundImageFix"/>
<feColorMatrix in="SourceAlpha" type="matrix" values="0 0 0 0 0 0 0 0 0 0 0 0 0 0 0 0 0 0 127 0"/>
<feOffset dx="-2.87552" dy="1.82988"/>
<feGaussianBlur stdDeviation="2.61411"/>
<feColorMatrix type="matrix" values="0 0 0 0 0 0 0 0 0 0 0 0 0 0 0 0 0 0 0.69 0"/>
<feBlend mode="normal" in2="BackgroundImageFix" result="effect1_dropShadow"/>
<feBlend mode="normal" in="SourceGraphic" in2="effect1_dropShadow" result="shape"/>
</filter>
<filter id="filter15_d" x="27.6807" y="9.55027" width="26.1034" height="25.2725" filterUnits="userSpaceOnUse" color-interpolation-filters="sRGB">
<feFlood flood-opacity="0" result="BackgroundImageFix"/>
<feColorMatrix in="SourceAlpha" type="matrix" values="0 0 0 0 0 0 0 0 0 0 0 0 0 0 0 0 0 0 127 0"/>
<feOffset dx="-2.87552" dy="1.82988"/>
<feGaussianBlur stdDeviation="2.61411"/>
<feColorMatrix type="matrix" values="0 0 0 0 0 0 0 0 0 0 0 0 0 0 0 0 0 0 0.69 0"/>
<feBlend mode="normal" in2="BackgroundImageFix" result="effect1_dropShadow"/>
<feBlend mode="normal" in="SourceGraphic" in2="effect1_dropShadow" result="shape"/>
</filter>
<filter id="filter16_d" x="20.1273" y="3.51975" width="27.7784" height="23.2624" filterUnits="userSpaceOnUse" color-interpolation-filters="sRGB">
<feFlood flood-opacity="0" result="BackgroundImageFix"/>
<feColorMatrix in="SourceAlpha" type="matrix" values="0 0 0 0 0 0 0 0 0 0 0 0 0 0 0 0 0 0 127 0"/>
<feOffset dx="-2.87552" dy="1.82988"/>
<feGaussianBlur stdDeviation="2.61411"/>
<feColorMatrix type="matrix" values="0 0 0 0 0 0 0 0 0 0 0 0 0 0 0 0 0 0 0.69 0"/>
<feBlend mode="normal" in2="BackgroundImageFix" result="effect1_dropShadow"/>
<feBlend mode="normal" in="SourceGraphic" in2="effect1_dropShadow" result="shape"/>
</filter>
<filter id="filter17_d" x="13.1853" y="9.43381" width="25.9888" height="25.3034" filterUnits="userSpaceOnUse" color-interpolation-filters="sRGB">
<feFlood flood-opacity="0" result="BackgroundImageFix"/>
<feColorMatrix in="SourceAlpha" type="matrix" values="0 0 0 0 0 0 0 0 0 0 0 0 0 0 0 0 0 0 127 0"/>
<feOffset dx="-2.87552" dy="1.82988"/>
<feGaussianBlur stdDeviation="2.61411"/>
<feColorMatrix type="matrix" values="0 0 0 0 0 0 0 0 0 0 0 0 0 0 0 0 0 0 0.69 0"/>
<feBlend mode="normal" in2="BackgroundImageFix" result="effect1_dropShadow"/>
<feBlend mode="normal" in="SourceGraphic" in2="effect1_dropShadow" result="shape"/>
</filter>
<filter id="filter18_d" x="3.00656" y="16.0165" width="25.5302" height="25.7699" filterUnits="userSpaceOnUse" color-interpolation-filters="sRGB">
<feFlood flood-opacity="0" result="BackgroundImageFix"/>
<feColorMatrix in="SourceAlpha" type="matrix" values="0 0 0 0 0 0 0 0 0 0 0 0 0 0 0 0 0 0 127 0"/>
<feOffset dx="-2.87552" dy="1.82988"/>
<feGaussianBlur stdDeviation="2.61411"/>
<feColorMatrix type="matrix" values="0 0 0 0 0 0 0 0 0 0 0 0 0 0 0 0 0 0 0.69 0"/>
<feBlend mode="normal" in2="BackgroundImageFix" result="effect1_dropShadow"/>
<feBlend mode="normal" in="SourceGraphic" in2="effect1_dropShadow" result="shape"/>
</filter>
<filter id="filter19_d" x="1.80911" y="23.619" width="23.3849" height="27.2392" filterUnits="userSpaceOnUse" color-interpolation-filters="sRGB">
<feFlood flood-opacity="0" result="BackgroundImageFix"/>
<feColorMatrix in="SourceAlpha" type="matrix" values="0 0 0 0 0 0 0 0 0 0 0 0 0 0 0 0 0 0 127 0"/>
<feOffset dx="-2.87552" dy="1.82988"/>
<feGaussianBlur stdDeviation="2.61411"/>
<feColorMatrix type="matrix" values="0 0 0 0 0 0 0 0 0 0 0 0 0 0 0 0 0 0 0.69 0"/>
<feBlend mode="normal" in2="BackgroundImageFix" result="effect1_dropShadow"/>
<feBlend mode="normal" in="SourceGraphic" in2="effect1_dropShadow" result="shape"/>
</filter>
<filter id="filter20_d" x="3.61816" y="34.787" width="25.5832" height="25.5327" filterUnits="userSpaceOnUse" color-interpolation-filters="sRGB">
<feFlood flood-opacity="0" result="BackgroundImageFix"/>
<feColorMatrix in="SourceAlpha" type="matrix" values="0 0 0 0 0 0 0 0 0 0 0 0 0 0 0 0 0 0 127 0"/>
<feOffset dx="-2.87552" dy="1.82988"/>
<feGaussianBlur stdDeviation="2.61411"/>
<feColorMatrix type="matrix" values="0 0 0 0 0 0 0 0 0 0 0 0 0 0 0 0 0 0 0.69 0"/>
<feBlend mode="normal" in2="BackgroundImageFix" result="effect1_dropShadow"/>
<feBlend mode="normal" in="SourceGraphic" in2="effect1_dropShadow" result="shape"/>
</filter>
<filter id="filter21_d" x="13.1908" y="38.5656" width="25.5137" height="25.3765" filterUnits="userSpaceOnUse" color-interpolation-filters="sRGB">
<feFlood flood-opacity="0" result="BackgroundImageFix"/>
<feColorMatrix in="SourceAlpha" type="matrix" values="0 0 0 0 0 0 0 0 0 0 0 0 0 0 0 0 0 0 127 0"/>
<feOffset dx="-2.87552" dy="1.82988"/>
<feGaussianBlur stdDeviation="2.61411"/>
<feColorMatrix type="matrix" values="0 0 0 0 0 0 0 0 0 0 0 0 0 0 0 0 0 0 0.69 0"/>
<feBlend mode="normal" in2="BackgroundImageFix" result="effect1_dropShadow"/>
<feBlend mode="normal" in="SourceGraphic" in2="effect1_dropShadow" result="shape"/>
</filter>
<filter id="filter22_d" x="20.0727" y="47.2376" width="27.6264" height="23.4205" filterUnits="userSpaceOnUse" color-interpolation-filters="sRGB">
<feFlood flood-opacity="0" result="BackgroundImageFix"/>
<feColorMatrix in="SourceAlpha" type="matrix" values="0 0 0 0 0 0 0 0 0 0 0 0 0 0 0 0 0 0 127 0"/>
<feOffset dx="-2.87552" dy="1.82988"/>
<feGaussianBlur stdDeviation="2.61411"/>
<feColorMatrix type="matrix" values="0 0 0 0 0 0 0 0 0 0 0 0 0 0 0 0 0 0 0.69 0"/>
<feBlend mode="normal" in2="BackgroundImageFix" result="effect1_dropShadow"/>
<feBlend mode="normal" in="SourceGraphic" in2="effect1_dropShadow" result="shape"/>
</filter>
<filter id="filter23_d" x="27.955" y="38.5707" width="25.5047" height="25.3896" filterUnits="userSpaceOnUse" color-interpolation-filters="sRGB">
<feFlood flood-opacity="0" result="BackgroundImageFix"/>
<feColorMatrix in="SourceAlpha" type="matrix" values="0 0 0 0 0 0 0 0 0 0 0 0 0 0 0 0 0 0 127 0"/>
<feOffset dx="-2.87552" dy="1.82988"/>
<feGaussianBlur stdDeviation="2.61411"/>
<feColorMatrix type="matrix" values="0 0 0 0 0 0 0 0 0 0 0 0 0 0 0 0 0 0 0.69 0"/>
<feBlend mode="normal" in2="BackgroundImageFix" result="effect1_dropShadow"/>
<feBlend mode="normal" in="SourceGraphic" in2="effect1_dropShadow" result="shape"/>
</filter>
<filter id="filter24_d" x="38.3254" y="33.018" width="25.5302" height="25.7699" filterUnits="userSpaceOnUse" color-interpolation-filters="sRGB">
<feFlood flood-opacity="0" result="BackgroundImageFix"/>
<feColorMatrix in="SourceAlpha" type="matrix" values="0 0 0 0 0 0 0 0 0 0 0 0 0 0 0 0 0 0 127 0"/>
<feOffset dx="-2.87552" dy="1.82988"/>
<feGaussianBlur stdDeviation="2.61411"/>
<feColorMatrix type="matrix" values="0 0 0 0 0 0 0 0 0 0 0 0 0 0 0 0 0 0 0.69 0"/>
<feBlend mode="normal" in2="BackgroundImageFix" result="effect1_dropShadow"/>
<feBlend mode="normal" in="SourceGraphic" in2="effect1_dropShadow" result="shape"/>
</filter>
<filter id="filter25_d" x="41.5303" y="23.9207" width="23.4049" height="27.9393" filterUnits="userSpaceOnUse" color-interpolation-filters="sRGB">
<feFlood flood-opacity="0" result="BackgroundImageFix"/>
<feColorMatrix in="SourceAlpha" type="matrix" values="0 0 0 0 0 0 0 0 0 0 0 0 0 0 0 0 0 0 127 0"/>
<feOffset dx="-2.87552" dy="1.82988"/>
<feGaussianBlur stdDeviation="2.61411"/>
<feColorMatrix type="matrix" values="0 0 0 0 0 0 0 0 0 0 0 0 0 0 0 0 0 0 0.69 0"/>
<feBlend mode="normal" in2="BackgroundImageFix" result="effect1_dropShadow"/>
<feBlend mode="normal" in="SourceGraphic" in2="effect1_dropShadow" result="shape"/>
</filter>
<clipPath id="clip0">
<rect width="280" height="70" fill="white"/>
</clipPath>
</defs>
</svg>
