<svg width="250" height="65" viewBox="0 0 250 65" fill="none" xmlns="http://www.w3.org/2000/svg">
<rect width="250" height="65" fill="#0B589F"/>
<g clip-path="url(#clip0)">
<g clip-path="url(#clip1)">
<rect width="250" height="65" fill="white"/>
<text fill="black" xml:space="preserve" style="white-space: pre" font-family="Trebuchet MS" font-size="40" letter-spacing="0em"><tspan x="70.5625" y="33.3359">Appseonit</tspan></text>
<line x1="65.7544" y1="60.0056" x2="65.7544" y2="3.99887" stroke="black"/>
<text fill="black" xml:space="preserve" style="white-space: pre" font-family="Trebuchet MS" font-size="11" letter-spacing="0.04em"><tspan x="70.0929" y="57.4424">Simple | Easy | Optimized | New</tspan></text>
</g>
<g filter="url(#filter0_d)">
<rect x="17.1618" y="17.3776" width="30.8465" height="17.5145" fill="#00C2FF"/>
</g>
<rect x="18.2075" y="34.3693" width="30.8465" height="13.0705" fill="#00C2FF"/>
<g filter="url(#filter1_d)">
<path d="M55.5789 17.5866C57.2597 17.7481 58.1002 17.8288 58.4417 18.4112C58.7832 18.9936 58.434 19.7506 57.7355 21.2646L54.3178 28.6733C53.3948 30.6741 52.9333 31.6745 52.1338 31.7088C51.3342 31.7432 50.7734 30.7867 49.6517 28.8738L44.8444 20.6752C43.7227 18.7623 43.1619 17.8059 43.5919 17.1413C44.0219 16.4766 45.1325 16.5833 47.3538 16.7966L55.5789 17.5866Z" fill="#1EB4D5"/>
</g>
<g filter="url(#filter2_d)">
<path d="M43.1154 10.8867C44.5961 10.13 45.3365 9.7517 45.9341 10.0515C46.5317 10.3513 46.656 11.1635 46.9047 12.7878L48.1345 20.8221C48.4709 23.0197 48.6391 24.1185 47.9865 24.5874C47.3339 25.0563 46.3344 24.5549 44.3354 23.552L35.7813 19.2604C33.7823 18.2575 32.7827 17.7561 32.7844 16.9606C32.7861 16.1651 33.7878 15.6533 35.7911 14.6295L43.1154 10.8867Z" fill="#0B589F"/>
</g>
<g filter="url(#filter3_d)">
<path d="M31.7765 5.91479C32.7426 4.58367 33.2257 3.9181 33.8921 3.9181C34.5585 3.9181 35.0415 4.58367 36.0077 5.9148L40.8413 12.5744C42.1589 14.3897 42.8176 15.2973 42.4539 16.0107C42.0902 16.7241 40.9687 16.7241 38.7257 16.7241H29.0584C26.8155 16.7241 25.694 16.7241 25.3303 16.0107C24.9666 15.2973 25.6253 14.3897 26.9429 12.5744L31.7765 5.91479Z" fill="#1500FF"/>
</g>
<g filter="url(#filter4_d)">
<path d="M19.6287 12.6965C19.8485 11.0676 19.9585 10.2532 20.551 9.943C21.1434 9.63281 21.8906 9.99849 23.3851 10.7299L30.7749 14.3464C32.7954 15.3352 33.8057 15.8297 33.8213 16.6248C33.8368 17.4199 32.8464 17.9384 30.8654 18.9755L22.3883 23.4136C20.4074 24.4507 19.4169 24.9693 18.7562 24.5119C18.0954 24.0546 18.2441 22.9534 18.5414 20.7511L19.6287 12.6965Z" fill="#8C06FF"/>
</g>
<g filter="url(#filter5_d)">
<path d="M9.0327 21.4847C8.28052 19.9946 7.90444 19.2495 8.22542 18.6551C8.5464 18.0607 9.38401 17.9511 11.0592 17.7319L19.2519 16.6597C21.4629 16.3703 22.5684 16.2256 23.0211 16.875C23.4738 17.5244 22.9472 18.4995 21.894 20.4498L17.3799 28.8092C16.3267 30.7595 15.8001 31.7346 15.0002 31.7282C14.2003 31.7218 13.7039 30.7385 12.7112 28.7719L9.0327 21.4847Z" fill="#620A82"/>
</g>
<g filter="url(#filter6_d)">
<path d="M9.03231 34.5591C7.61934 33.5825 6.91285 33.0942 6.91285 32.4087C6.91285 31.7233 7.61934 31.2349 9.03231 30.2583L15.7408 25.6214C17.5411 24.3771 18.4413 23.7549 19.1413 24.122C19.8413 24.4891 19.8413 25.5833 19.8413 27.7718V37.0456C19.8413 39.2341 19.8413 40.3283 19.1413 40.6954C18.4413 41.0625 17.5411 40.4404 15.7408 39.196L9.03231 34.5591Z" fill="#FF004D"/>
</g>
<g filter="url(#filter7_d)">
<path d="M11.717 49.3083C10.0362 49.1469 9.19575 49.0662 8.85423 48.4838C8.51271 47.9013 8.86193 47.1443 9.56037 45.6303L12.9781 38.2217C13.9011 36.2209 14.3626 35.2205 15.1621 35.1861C15.9617 35.1518 16.5225 36.1082 17.6442 38.0211L22.4515 46.2197C23.5732 48.1326 24.134 49.0891 23.704 49.7537C23.274 50.4183 22.1634 50.3117 19.9421 50.0983L11.717 49.3083Z" fill="#813137"/>
</g>
<g filter="url(#filter8_d)">
<path d="M22.5127 53.1469C20.9665 53.7748 20.1934 54.0887 19.6229 53.7384C19.0523 53.3881 19.0006 52.5677 18.8971 50.9269L18.3859 42.8231C18.2463 40.6103 18.1765 39.504 18.8685 39.0944C19.5606 38.6849 20.5124 39.2694 22.4161 40.4383L30.5638 45.4411C32.4674 46.61 33.4193 47.1944 33.3481 47.9851C33.2769 48.7759 32.2343 49.1992 30.1492 50.0459L22.5127 53.1469Z" fill="#FF7807"/>
</g>
<g filter="url(#filter9_d)">
<path d="M35.8955 58.5395C34.9237 59.9131 34.4378 60.5999 33.7614 60.5999C33.0851 60.5999 32.5992 59.9131 31.6274 58.5395L26.831 51.7598C25.5523 49.9523 24.913 49.0486 25.2785 48.3422C25.644 47.6359 26.751 47.6359 28.9651 47.6359H38.5578C40.7719 47.6359 41.8789 47.6359 42.2444 48.3422C42.6099 49.0486 41.9706 49.9523 40.6919 51.7598L35.8955 58.5395Z" fill="#1F6B13"/>
</g>
<g filter="url(#filter10_d)">
<path d="M47.5008 50.9419C47.3967 52.5841 47.3447 53.4053 46.7745 53.7561C46.2042 54.1069 45.4319 53.793 43.8872 53.1652L36.2579 50.0646C34.1748 49.218 33.1332 48.7947 33.0624 48.0033C32.9916 47.2119 33.9429 46.6266 35.8455 45.456L43.9889 40.4456C45.8915 39.275 46.8428 38.6897 47.5341 39.0993C48.2255 39.5089 48.1553 40.6162 48.0149 42.8308L47.5008 50.9419Z" fill="#22FF00"/>
</g>
<g filter="url(#filter11_d)">
<path d="M57.5806 43.66C58.3328 45.1501 58.7088 45.8951 58.3879 46.4895C58.0669 47.0839 57.2293 47.1935 55.5541 47.4128L47.3614 48.485C45.1504 48.7744 44.0449 48.919 43.5922 48.2697C43.1395 47.6203 43.6661 46.6451 44.7193 44.6949L49.2334 36.3354C50.2866 34.3852 50.8132 33.41 51.6131 33.4164C52.413 33.4228 52.9093 34.4061 53.9021 36.3728L57.5806 43.66Z" fill="#F6D336"/>
</g>
<g filter="url(#filter12_d)">
<path d="M57.5658 30.7763C58.9026 31.7172 59.571 32.1877 59.5824 32.8515C59.5937 33.5152 58.9418 34.0093 57.638 34.9973L51.0083 40.0215C49.2141 41.3812 48.317 42.0611 47.5957 41.7106C46.8744 41.3602 46.8552 40.2352 46.8167 37.9851L46.6491 28.1761C46.6107 25.926 46.5915 24.801 47.3003 24.425C48.0092 24.0491 48.929 24.6966 50.7686 25.9915L57.5658 30.7763Z" fill="#15EAF8"/>
</g>
<g filter="url(#filter13_d)">
<rect x="17.1618" y="17.3776" width="30.8465" height="17.5145" fill="#3498DB"/>
</g>
<rect x="18.2075" y="34.3693" width="30.8465" height="13.0705" fill="#3498DB"/>
<g filter="url(#filter14_d)">
<path d="M55.5789 17.5866C57.2597 17.7481 58.1002 17.8288 58.4417 18.4112C58.7832 18.9936 58.434 19.7506 57.7355 21.2646L54.3178 28.6733C53.3948 30.6741 52.9333 31.6745 52.1338 31.7088C51.3342 31.7432 50.7734 30.7867 49.6517 28.8738L44.8444 20.6752C43.7227 18.7623 43.1619 17.8059 43.5919 17.1413C44.0219 16.4766 45.1325 16.5833 47.3538 16.7966L55.5789 17.5866Z" fill="#1EB4D5"/>
</g>
<g filter="url(#filter15_d)">
<path d="M43.1154 10.8867C44.5961 10.13 45.3365 9.7517 45.9341 10.0515C46.5317 10.3513 46.656 11.1635 46.9047 12.7878L48.1345 20.8221C48.4709 23.0197 48.6391 24.1185 47.9865 24.5874C47.3339 25.0563 46.3344 24.5549 44.3354 23.552L35.7813 19.2604C33.7823 18.2575 32.7827 17.7561 32.7844 16.9606C32.7861 16.1651 33.7878 15.6533 35.7911 14.6295L43.1154 10.8867Z" fill="#0B589F"/>
</g>
<g filter="url(#filter16_d)">
<path d="M31.7765 5.91479C32.7426 4.58367 33.2257 3.9181 33.8921 3.9181C34.5585 3.9181 35.0415 4.58367 36.0077 5.9148L40.8413 12.5744C42.1589 14.3897 42.8176 15.2973 42.4539 16.0107C42.0902 16.7241 40.9687 16.7241 38.7257 16.7241H29.0584C26.8155 16.7241 25.694 16.7241 25.3303 16.0107C24.9666 15.2973 25.6253 14.3897 26.9429 12.5744L31.7765 5.91479Z" fill="#1500FF"/>
</g>
<g filter="url(#filter17_d)">
<path d="M19.6287 12.6965C19.8485 11.0676 19.9585 10.2532 20.551 9.943C21.1434 9.63281 21.8906 9.99849 23.3851 10.7299L30.7749 14.3464C32.7954 15.3352 33.8057 15.8297 33.8213 16.6248C33.8368 17.4199 32.8464 17.9384 30.8654 18.9755L22.3883 23.4136C20.4074 24.4507 19.4169 24.9693 18.7562 24.5119C18.0954 24.0546 18.2441 22.9534 18.5414 20.7511L19.6287 12.6965Z" fill="#8C06FF"/>
</g>
<g filter="url(#filter18_d)">
<path d="M9.0327 21.4847C8.28052 19.9946 7.90444 19.2495 8.22542 18.6551C8.5464 18.0607 9.38401 17.9511 11.0592 17.7319L19.2519 16.6597C21.4629 16.3703 22.5684 16.2256 23.0211 16.875C23.4738 17.5244 22.9472 18.4995 21.894 20.4498L17.3799 28.8092C16.3267 30.7595 15.8001 31.7346 15.0002 31.7282C14.2003 31.7218 13.7039 30.7385 12.7112 28.7719L9.0327 21.4847Z" fill="#620A82"/>
</g>
<g filter="url(#filter19_d)">
<path d="M9.03231 34.5591C7.61934 33.5825 6.91285 33.0942 6.91285 32.4087C6.91285 31.7233 7.61934 31.2349 9.03231 30.2583L15.7408 25.6214C17.5411 24.3771 18.4413 23.7549 19.1413 24.122C19.8413 24.4891 19.8413 25.5833 19.8413 27.7718V37.0456C19.8413 39.2341 19.8413 40.3283 19.1413 40.6954C18.4413 41.0625 17.5411 40.4404 15.7408 39.196L9.03231 34.5591Z" fill="#FF004D"/>
</g>
<g filter="url(#filter20_d)">
<path d="M11.717 49.3083C10.0362 49.1469 9.19575 49.0662 8.85423 48.4838C8.51271 47.9013 8.86193 47.1443 9.56037 45.6303L12.9781 38.2217C13.9011 36.2209 14.3626 35.2205 15.1621 35.1861C15.9617 35.1518 16.5225 36.1082 17.6442 38.0211L22.4515 46.2197C23.5732 48.1326 24.134 49.0891 23.704 49.7537C23.274 50.4183 22.1634 50.3117 19.9421 50.0983L11.717 49.3083Z" fill="#813137"/>
</g>
<g filter="url(#filter21_d)">
<path d="M22.5127 53.1469C20.9665 53.7748 20.1934 54.0887 19.6229 53.7384C19.0523 53.3881 19.0006 52.5677 18.8971 50.9269L18.3859 42.8231C18.2463 40.6103 18.1765 39.504 18.8685 39.0944C19.5606 38.6849 20.5124 39.2694 22.4161 40.4383L30.5638 45.4411C32.4674 46.61 33.4193 47.1944 33.3481 47.9851C33.2769 48.7759 32.2343 49.1992 30.1492 50.0459L22.5127 53.1469Z" fill="#FF7807"/>
</g>
<g filter="url(#filter22_d)">
<path d="M35.8955 58.5395C34.9237 59.9131 34.4378 60.5999 33.7614 60.5999C33.0851 60.5999 32.5992 59.9131 31.6274 58.5395L26.831 51.7598C25.5523 49.9523 24.913 49.0486 25.2785 48.3422C25.644 47.6359 26.751 47.6359 28.9651 47.6359H38.5578C40.7719 47.6359 41.8789 47.6359 42.2444 48.3422C42.6099 49.0486 41.9706 49.9523 40.6919 51.7598L35.8955 58.5395Z" fill="#1F6B13"/>
</g>
<g filter="url(#filter23_d)">
<path d="M47.5008 50.9419C47.3967 52.5841 47.3447 53.4053 46.7745 53.7561C46.2042 54.1069 45.4319 53.793 43.8872 53.1652L36.2579 50.0646C34.1748 49.218 33.1332 48.7947 33.0624 48.0033C32.9916 47.2119 33.9429 46.6266 35.8455 45.456L43.9889 40.4456C45.8915 39.275 46.8428 38.6897 47.5341 39.0993C48.2255 39.5089 48.1553 40.6162 48.0149 42.8308L47.5008 50.9419Z" fill="#22FF00"/>
</g>
<g filter="url(#filter24_d)">
<path d="M57.5806 43.66C58.3328 45.1501 58.7088 45.8951 58.3879 46.4895C58.0669 47.0839 57.2293 47.1935 55.5541 47.4128L47.3614 48.485C45.1504 48.7744 44.0449 48.919 43.5922 48.2697C43.1395 47.6203 43.6661 46.6451 44.7193 44.6949L49.2334 36.3354C50.2866 34.3852 50.8132 33.41 51.6131 33.4164C52.413 33.4228 52.9093 34.4061 53.9021 36.3728L57.5806 43.66Z" fill="#F6D336"/>
</g>
<g filter="url(#filter25_d)">
<path d="M57.5658 30.7763C58.9026 31.7172 59.571 32.1877 59.5824 32.8515C59.5937 33.5152 58.9418 34.0093 57.638 34.9973L51.0083 40.0215C49.2141 41.3812 48.317 42.0611 47.5957 41.7106C46.8744 41.3602 46.8552 40.2352 46.8167 37.9851L46.6491 28.1761C46.6107 25.926 46.5915 24.801 47.3003 24.425C48.0092 24.0491 48.929 24.6966 50.7686 25.9915L57.5658 30.7763Z" fill="#15EAF8"/>
</g>
</g>
<defs>
<filter id="filter0_d" x="9.05807" y="13.9792" width="41.3029" height="27.971" filterUnits="userSpaceOnUse" color-interpolation-filters="sRGB">
<feFlood flood-opacity="0" result="BackgroundImageFix"/>
<feColorMatrix in="SourceAlpha" type="matrix" values="0 0 0 0 0 0 0 0 0 0 0 0 0 0 0 0 0 0 127 0"/>
<feOffset dx="-2.87552" dy="1.82988"/>
<feGaussianBlur stdDeviation="2.61411"/>
<feColorMatrix type="matrix" values="0 0 0 0 0 0 0 0 0 0 0 0 0 0 0 0 0 0 0.69 0"/>
<feBlend mode="normal" in2="BackgroundImageFix" result="effect1_dropShadow"/>
<feBlend mode="normal" in="SourceGraphic" in2="effect1_dropShadow" result="shape"/>
</filter>
<filter id="filter1_d" x="35.3435" y="13.2351" width="25.5832" height="25.5327" filterUnits="userSpaceOnUse" color-interpolation-filters="sRGB">
<feFlood flood-opacity="0" result="BackgroundImageFix"/>
<feColorMatrix in="SourceAlpha" type="matrix" values="0 0 0 0 0 0 0 0 0 0 0 0 0 0 0 0 0 0 127 0"/>
<feOffset dx="-2.87552" dy="1.82988"/>
<feGaussianBlur stdDeviation="2.61411"/>
<feColorMatrix type="matrix" values="0 0 0 0 0 0 0 0 0 0 0 0 0 0 0 0 0 0 0.69 0"/>
<feBlend mode="normal" in2="BackgroundImageFix" result="effect1_dropShadow"/>
<feBlend mode="normal" in="SourceGraphic" in2="effect1_dropShadow" result="shape"/>
</filter>
<filter id="filter2_d" x="24.6807" y="6.55027" width="26.1034" height="25.2725" filterUnits="userSpaceOnUse" color-interpolation-filters="sRGB">
<feFlood flood-opacity="0" result="BackgroundImageFix"/>
<feColorMatrix in="SourceAlpha" type="matrix" values="0 0 0 0 0 0 0 0 0 0 0 0 0 0 0 0 0 0 127 0"/>
<feOffset dx="-2.87552" dy="1.82988"/>
<feGaussianBlur stdDeviation="2.61411"/>
<feColorMatrix type="matrix" values="0 0 0 0 0 0 0 0 0 0 0 0 0 0 0 0 0 0 0.69 0"/>
<feBlend mode="normal" in2="BackgroundImageFix" result="effect1_dropShadow"/>
<feBlend mode="normal" in="SourceGraphic" in2="effect1_dropShadow" result="shape"/>
</filter>
<filter id="filter3_d" x="17.1273" y="0.51975" width="27.7784" height="23.2624" filterUnits="userSpaceOnUse" color-interpolation-filters="sRGB">
<feFlood flood-opacity="0" result="BackgroundImageFix"/>
<feColorMatrix in="SourceAlpha" type="matrix" values="0 0 0 0 0 0 0 0 0 0 0 0 0 0 0 0 0 0 127 0"/>
<feOffset dx="-2.87552" dy="1.82988"/>
<feGaussianBlur stdDeviation="2.61411"/>
<feColorMatrix type="matrix" values="0 0 0 0 0 0 0 0 0 0 0 0 0 0 0 0 0 0 0.69 0"/>
<feBlend mode="normal" in2="BackgroundImageFix" result="effect1_dropShadow"/>
<feBlend mode="normal" in="SourceGraphic" in2="effect1_dropShadow" result="shape"/>
</filter>
<filter id="filter4_d" x="10.1853" y="6.43381" width="25.9888" height="25.3034" filterUnits="userSpaceOnUse" color-interpolation-filters="sRGB">
<feFlood flood-opacity="0" result="BackgroundImageFix"/>
<feColorMatrix in="SourceAlpha" type="matrix" values="0 0 0 0 0 0 0 0 0 0 0 0 0 0 0 0 0 0 127 0"/>
<feOffset dx="-2.87552" dy="1.82988"/>
<feGaussianBlur stdDeviation="2.61411"/>
<feColorMatrix type="matrix" values="0 0 0 0 0 0 0 0 0 0 0 0 0 0 0 0 0 0 0.69 0"/>
<feBlend mode="normal" in2="BackgroundImageFix" result="effect1_dropShadow"/>
<feBlend mode="normal" in="SourceGraphic" in2="effect1_dropShadow" result="shape"/>
</filter>
<filter id="filter5_d" x="0.00655532" y="13.0165" width="25.5302" height="25.7699" filterUnits="userSpaceOnUse" color-interpolation-filters="sRGB">
<feFlood flood-opacity="0" result="BackgroundImageFix"/>
<feColorMatrix in="SourceAlpha" type="matrix" values="0 0 0 0 0 0 0 0 0 0 0 0 0 0 0 0 0 0 127 0"/>
<feOffset dx="-2.87552" dy="1.82988"/>
<feGaussianBlur stdDeviation="2.61411"/>
<feColorMatrix type="matrix" values="0 0 0 0 0 0 0 0 0 0 0 0 0 0 0 0 0 0 0.69 0"/>
<feBlend mode="normal" in2="BackgroundImageFix" result="effect1_dropShadow"/>
<feBlend mode="normal" in="SourceGraphic" in2="effect1_dropShadow" result="shape"/>
</filter>
<filter id="filter6_d" x="-1.19089" y="20.619" width="23.3849" height="27.2392" filterUnits="userSpaceOnUse" color-interpolation-filters="sRGB">
<feFlood flood-opacity="0" result="BackgroundImageFix"/>
<feColorMatrix in="SourceAlpha" type="matrix" values="0 0 0 0 0 0 0 0 0 0 0 0 0 0 0 0 0 0 127 0"/>
<feOffset dx="-2.87552" dy="1.82988"/>
<feGaussianBlur stdDeviation="2.61411"/>
<feColorMatrix type="matrix" values="0 0 0 0 0 0 0 0 0 0 0 0 0 0 0 0 0 0 0.69 0"/>
<feBlend mode="normal" in2="BackgroundImageFix" result="effect1_dropShadow"/>
<feBlend mode="normal" in="SourceGraphic" in2="effect1_dropShadow" result="shape"/>
</filter>
<filter id="filter7_d" x="0.618128" y="31.7869" width="25.5832" height="25.5327" filterUnits="userSpaceOnUse" color-interpolation-filters="sRGB">
<feFlood flood-opacity="0" result="BackgroundImageFix"/>
<feColorMatrix in="SourceAlpha" type="matrix" values="0 0 0 0 0 0 0 0 0 0 0 0 0 0 0 0 0 0 127 0"/>
<feOffset dx="-2.87552" dy="1.82988"/>
<feGaussianBlur stdDeviation="2.61411"/>
<feColorMatrix type="matrix" values="0 0 0 0 0 0 0 0 0 0 0 0 0 0 0 0 0 0 0.69 0"/>
<feBlend mode="normal" in2="BackgroundImageFix" result="effect1_dropShadow"/>
<feBlend mode="normal" in="SourceGraphic" in2="effect1_dropShadow" result="shape"/>
</filter>
<filter id="filter8_d" x="10.1908" y="35.5657" width="25.5137" height="25.3765" filterUnits="userSpaceOnUse" color-interpolation-filters="sRGB">
<feFlood flood-opacity="0" result="BackgroundImageFix"/>
<feColorMatrix in="SourceAlpha" type="matrix" values="0 0 0 0 0 0 0 0 0 0 0 0 0 0 0 0 0 0 127 0"/>
<feOffset dx="-2.87552" dy="1.82988"/>
<feGaussianBlur stdDeviation="2.61411"/>
<feColorMatrix type="matrix" values="0 0 0 0 0 0 0 0 0 0 0 0 0 0 0 0 0 0 0.69 0"/>
<feBlend mode="normal" in2="BackgroundImageFix" result="effect1_dropShadow"/>
<feBlend mode="normal" in="SourceGraphic" in2="effect1_dropShadow" result="shape"/>
</filter>
<filter id="filter9_d" x="17.0727" y="44.2376" width="27.6264" height="23.4205" filterUnits="userSpaceOnUse" color-interpolation-filters="sRGB">
<feFlood flood-opacity="0" result="BackgroundImageFix"/>
<feColorMatrix in="SourceAlpha" type="matrix" values="0 0 0 0 0 0 0 0 0 0 0 0 0 0 0 0 0 0 127 0"/>
<feOffset dx="-2.87552" dy="1.82988"/>
<feGaussianBlur stdDeviation="2.61411"/>
<feColorMatrix type="matrix" values="0 0 0 0 0 0 0 0 0 0 0 0 0 0 0 0 0 0 0.69 0"/>
<feBlend mode="normal" in2="BackgroundImageFix" result="effect1_dropShadow"/>
<feBlend mode="normal" in="SourceGraphic" in2="effect1_dropShadow" result="shape"/>
</filter>
<filter id="filter10_d" x="24.955" y="35.5707" width="25.5047" height="25.3896" filterUnits="userSpaceOnUse" color-interpolation-filters="sRGB">
<feFlood flood-opacity="0" result="BackgroundImageFix"/>
<feColorMatrix in="SourceAlpha" type="matrix" values="0 0 0 0 0 0 0 0 0 0 0 0 0 0 0 0 0 0 127 0"/>
<feOffset dx="-2.87552" dy="1.82988"/>
<feGaussianBlur stdDeviation="2.61411"/>
<feColorMatrix type="matrix" values="0 0 0 0 0 0 0 0 0 0 0 0 0 0 0 0 0 0 0.69 0"/>
<feBlend mode="normal" in2="BackgroundImageFix" result="effect1_dropShadow"/>
<feBlend mode="normal" in="SourceGraphic" in2="effect1_dropShadow" result="shape"/>
</filter>
<filter id="filter11_d" x="35.3254" y="30.018" width="25.5302" height="25.7699" filterUnits="userSpaceOnUse" color-interpolation-filters="sRGB">
<feFlood flood-opacity="0" result="BackgroundImageFix"/>
<feColorMatrix in="SourceAlpha" type="matrix" values="0 0 0 0 0 0 0 0 0 0 0 0 0 0 0 0 0 0 127 0"/>
<feOffset dx="-2.87552" dy="1.82988"/>
<feGaussianBlur stdDeviation="2.61411"/>
<feColorMatrix type="matrix" values="0 0 0 0 0 0 0 0 0 0 0 0 0 0 0 0 0 0 0.69 0"/>
<feBlend mode="normal" in2="BackgroundImageFix" result="effect1_dropShadow"/>
<feBlend mode="normal" in="SourceGraphic" in2="effect1_dropShadow" result="shape"/>
</filter>
<filter id="filter12_d" x="38.5303" y="20.9207" width="23.4049" height="27.9393" filterUnits="userSpaceOnUse" color-interpolation-filters="sRGB">
<feFlood flood-opacity="0" result="BackgroundImageFix"/>
<feColorMatrix in="SourceAlpha" type="matrix" values="0 0 0 0 0 0 0 0 0 0 0 0 0 0 0 0 0 0 127 0"/>
<feOffset dx="-2.87552" dy="1.82988"/>
<feGaussianBlur stdDeviation="2.61411"/>
<feColorMatrix type="matrix" values="0 0 0 0 0 0 0 0 0 0 0 0 0 0 0 0 0 0 0.69 0"/>
<feBlend mode="normal" in2="BackgroundImageFix" result="effect1_dropShadow"/>
<feBlend mode="normal" in="SourceGraphic" in2="effect1_dropShadow" result="shape"/>
</filter>
<filter id="filter13_d" x="9.05807" y="13.9792" width="41.3029" height="27.971" filterUnits="userSpaceOnUse" color-interpolation-filters="sRGB">
<feFlood flood-opacity="0" result="BackgroundImageFix"/>
<feColorMatrix in="SourceAlpha" type="matrix" values="0 0 0 0 0 0 0 0 0 0 0 0 0 0 0 0 0 0 127 0"/>
<feOffset dx="-2.87552" dy="1.82988"/>
<feGaussianBlur stdDeviation="2.61411"/>
<feColorMatrix type="matrix" values="0 0 0 0 0 0 0 0 0 0 0 0 0 0 0 0 0 0 0.69 0"/>
<feBlend mode="normal" in2="BackgroundImageFix" result="effect1_dropShadow"/>
<feBlend mode="normal" in="SourceGraphic" in2="effect1_dropShadow" result="shape"/>
</filter>
<filter id="filter14_d" x="35.3435" y="13.2351" width="25.5832" height="25.5327" filterUnits="userSpaceOnUse" color-interpolation-filters="sRGB">
<feFlood flood-opacity="0" result="BackgroundImageFix"/>
<feColorMatrix in="SourceAlpha" type="matrix" values="0 0 0 0 0 0 0 0 0 0 0 0 0 0 0 0 0 0 127 0"/>
<feOffset dx="-2.87552" dy="1.82988"/>
<feGaussianBlur stdDeviation="2.61411"/>
<feColorMatrix type="matrix" values="0 0 0 0 0 0 0 0 0 0 0 0 0 0 0 0 0 0 0.69 0"/>
<feBlend mode="normal" in2="BackgroundImageFix" result="effect1_dropShadow"/>
<feBlend mode="normal" in="SourceGraphic" in2="effect1_dropShadow" result="shape"/>
</filter>
<filter id="filter15_d" x="24.6807" y="6.55027" width="26.1034" height="25.2725" filterUnits="userSpaceOnUse" color-interpolation-filters="sRGB">
<feFlood flood-opacity="0" result="BackgroundImageFix"/>
<feColorMatrix in="SourceAlpha" type="matrix" values="0 0 0 0 0 0 0 0 0 0 0 0 0 0 0 0 0 0 127 0"/>
<feOffset dx="-2.87552" dy="1.82988"/>
<feGaussianBlur stdDeviation="2.61411"/>
<feColorMatrix type="matrix" values="0 0 0 0 0 0 0 0 0 0 0 0 0 0 0 0 0 0 0.69 0"/>
<feBlend mode="normal" in2="BackgroundImageFix" result="effect1_dropShadow"/>
<feBlend mode="normal" in="SourceGraphic" in2="effect1_dropShadow" result="shape"/>
</filter>
<filter id="filter16_d" x="17.1273" y="0.51975" width="27.7784" height="23.2624" filterUnits="userSpaceOnUse" color-interpolation-filters="sRGB">
<feFlood flood-opacity="0" result="BackgroundImageFix"/>
<feColorMatrix in="SourceAlpha" type="matrix" values="0 0 0 0 0 0 0 0 0 0 0 0 0 0 0 0 0 0 127 0"/>
<feOffset dx="-2.87552" dy="1.82988"/>
<feGaussianBlur stdDeviation="2.61411"/>
<feColorMatrix type="matrix" values="0 0 0 0 0 0 0 0 0 0 0 0 0 0 0 0 0 0 0.69 0"/>
<feBlend mode="normal" in2="BackgroundImageFix" result="effect1_dropShadow"/>
<feBlend mode="normal" in="SourceGraphic" in2="effect1_dropShadow" result="shape"/>
</filter>
<filter id="filter17_d" x="10.1853" y="6.43381" width="25.9888" height="25.3034" filterUnits="userSpaceOnUse" color-interpolation-filters="sRGB">
<feFlood flood-opacity="0" result="BackgroundImageFix"/>
<feColorMatrix in="SourceAlpha" type="matrix" values="0 0 0 0 0 0 0 0 0 0 0 0 0 0 0 0 0 0 127 0"/>
<feOffset dx="-2.87552" dy="1.82988"/>
<feGaussianBlur stdDeviation="2.61411"/>
<feColorMatrix type="matrix" values="0 0 0 0 0 0 0 0 0 0 0 0 0 0 0 0 0 0 0.69 0"/>
<feBlend mode="normal" in2="BackgroundImageFix" result="effect1_dropShadow"/>
<feBlend mode="normal" in="SourceGraphic" in2="effect1_dropShadow" result="shape"/>
</filter>
<filter id="filter18_d" x="0.00655532" y="13.0165" width="25.5302" height="25.7699" filterUnits="userSpaceOnUse" color-interpolation-filters="sRGB">
<feFlood flood-opacity="0" result="BackgroundImageFix"/>
<feColorMatrix in="SourceAlpha" type="matrix" values="0 0 0 0 0 0 0 0 0 0 0 0 0 0 0 0 0 0 127 0"/>
<feOffset dx="-2.87552" dy="1.82988"/>
<feGaussianBlur stdDeviation="2.61411"/>
<feColorMatrix type="matrix" values="0 0 0 0 0 0 0 0 0 0 0 0 0 0 0 0 0 0 0.69 0"/>
<feBlend mode="normal" in2="BackgroundImageFix" result="effect1_dropShadow"/>
<feBlend mode="normal" in="SourceGraphic" in2="effect1_dropShadow" result="shape"/>
</filter>
<filter id="filter19_d" x="-1.19089" y="20.619" width="23.3849" height="27.2392" filterUnits="userSpaceOnUse" color-interpolation-filters="sRGB">
<feFlood flood-opacity="0" result="BackgroundImageFix"/>
<feColorMatrix in="SourceAlpha" type="matrix" values="0 0 0 0 0 0 0 0 0 0 0 0 0 0 0 0 0 0 127 0"/>
<feOffset dx="-2.87552" dy="1.82988"/>
<feGaussianBlur stdDeviation="2.61411"/>
<feColorMatrix type="matrix" values="0 0 0 0 0 0 0 0 0 0 0 0 0 0 0 0 0 0 0.69 0"/>
<feBlend mode="normal" in2="BackgroundImageFix" result="effect1_dropShadow"/>
<feBlend mode="normal" in="SourceGraphic" in2="effect1_dropShadow" result="shape"/>
</filter>
<filter id="filter20_d" x="0.618128" y="31.7869" width="25.5832" height="25.5327" filterUnits="userSpaceOnUse" color-interpolation-filters="sRGB">
<feFlood flood-opacity="0" result="BackgroundImageFix"/>
<feColorMatrix in="SourceAlpha" type="matrix" values="0 0 0 0 0 0 0 0 0 0 0 0 0 0 0 0 0 0 127 0"/>
<feOffset dx="-2.87552" dy="1.82988"/>
<feGaussianBlur stdDeviation="2.61411"/>
<feColorMatrix type="matrix" values="0 0 0 0 0 0 0 0 0 0 0 0 0 0 0 0 0 0 0.69 0"/>
<feBlend mode="normal" in2="BackgroundImageFix" result="effect1_dropShadow"/>
<feBlend mode="normal" in="SourceGraphic" in2="effect1_dropShadow" result="shape"/>
</filter>
<filter id="filter21_d" x="10.1908" y="35.5657" width="25.5137" height="25.3765" filterUnits="userSpaceOnUse" color-interpolation-filters="sRGB">
<feFlood flood-opacity="0" result="BackgroundImageFix"/>
<feColorMatrix in="SourceAlpha" type="matrix" values="0 0 0 0 0 0 0 0 0 0 0 0 0 0 0 0 0 0 127 0"/>
<feOffset dx="-2.87552" dy="1.82988"/>
<feGaussianBlur stdDeviation="2.61411"/>
<feColorMatrix type="matrix" values="0 0 0 0 0 0 0 0 0 0 0 0 0 0 0 0 0 0 0.69 0"/>
<feBlend mode="normal" in2="BackgroundImageFix" result="effect1_dropShadow"/>
<feBlend mode="normal" in="SourceGraphic" in2="effect1_dropShadow" result="shape"/>
</filter>
<filter id="filter22_d" x="17.0727" y="44.2376" width="27.6264" height="23.4205" filterUnits="userSpaceOnUse" color-interpolation-filters="sRGB">
<feFlood flood-opacity="0" result="BackgroundImageFix"/>
<feColorMatrix in="SourceAlpha" type="matrix" values="0 0 0 0 0 0 0 0 0 0 0 0 0 0 0 0 0 0 127 0"/>
<feOffset dx="-2.87552" dy="1.82988"/>
<feGaussianBlur stdDeviation="2.61411"/>
<feColorMatrix type="matrix" values="0 0 0 0 0 0 0 0 0 0 0 0 0 0 0 0 0 0 0.69 0"/>
<feBlend mode="normal" in2="BackgroundImageFix" result="effect1_dropShadow"/>
<feBlend mode="normal" in="SourceGraphic" in2="effect1_dropShadow" result="shape"/>
</filter>
<filter id="filter23_d" x="24.955" y="35.5707" width="25.5047" height="25.3896" filterUnits="userSpaceOnUse" color-interpolation-filters="sRGB">
<feFlood flood-opacity="0" result="BackgroundImageFix"/>
<feColorMatrix in="SourceAlpha" type="matrix" values="0 0 0 0 0 0 0 0 0 0 0 0 0 0 0 0 0 0 127 0"/>
<feOffset dx="-2.87552" dy="1.82988"/>
<feGaussianBlur stdDeviation="2.61411"/>
<feColorMatrix type="matrix" values="0 0 0 0 0 0 0 0 0 0 0 0 0 0 0 0 0 0 0.69 0"/>
<feBlend mode="normal" in2="BackgroundImageFix" result="effect1_dropShadow"/>
<feBlend mode="normal" in="SourceGraphic" in2="effect1_dropShadow" result="shape"/>
</filter>
<filter id="filter24_d" x="35.3254" y="30.018" width="25.5302" height="25.7699" filterUnits="userSpaceOnUse" color-interpolation-filters="sRGB">
<feFlood flood-opacity="0" result="BackgroundImageFix"/>
<feColorMatrix in="SourceAlpha" type="matrix" values="0 0 0 0 0 0 0 0 0 0 0 0 0 0 0 0 0 0 127 0"/>
<feOffset dx="-2.87552" dy="1.82988"/>
<feGaussianBlur stdDeviation="2.61411"/>
<feColorMatrix type="matrix" values="0 0 0 0 0 0 0 0 0 0 0 0 0 0 0 0 0 0 0.69 0"/>
<feBlend mode="normal" in2="BackgroundImageFix" result="effect1_dropShadow"/>
<feBlend mode="normal" in="SourceGraphic" in2="effect1_dropShadow" result="shape"/>
</filter>
<filter id="filter25_d" x="38.5303" y="20.9207" width="23.4049" height="27.9393" filterUnits="userSpaceOnUse" color-interpolation-filters="sRGB">
<feFlood flood-opacity="0" result="BackgroundImageFix"/>
<feColorMatrix in="SourceAlpha" type="matrix" values="0 0 0 0 0 0 0 0 0 0 0 0 0 0 0 0 0 0 127 0"/>
<feOffset dx="-2.87552" dy="1.82988"/>
<feGaussianBlur stdDeviation="2.61411"/>
<feColorMatrix type="matrix" values="0 0 0 0 0 0 0 0 0 0 0 0 0 0 0 0 0 0 0.69 0"/>
<feBlend mode="normal" in2="BackgroundImageFix" result="effect1_dropShadow"/>
<feBlend mode="normal" in="SourceGraphic" in2="effect1_dropShadow" result="shape"/>
</filter>
<clipPath id="clip0">
<rect width="430" height="430" fill="white" transform="translate(-68 -365)"/>
</clipPath>
<clipPath id="clip1">
<rect width="250" height="65" fill="white"/>
</clipPath>
</defs>
</svg>
