<svg width="100" height="100" viewBox="0 0 100 100" fill="none" xmlns="http://www.w3.org/2000/svg">
<g clip-path="url(#clip0)">
<path d="M0 0H6.25V100H0V0Z" fill="white" fill-opacity="0.58"/>
<path d="M0 93.75H100V100H0V93.75Z" fill="#FFFEFE" fill-opacity="0.61"/>
<path d="M77.7996 42.5781H89.9089V91.0156H77.7996V42.5781Z" fill="#D400CC"/>
<path d="M61.6533 58.7239H73.7627V91.0155H61.6533V58.7239Z" fill="#D400CC"/>
<path d="M45.5076 50.6511H57.6169V91.0157H45.5076V50.6511Z" fill="#D400CC"/>
<path d="M29.3621 70.8333H41.4714V91.0155H29.3621V70.8333Z" fill="#D400CC"/>
<path d="M13.2158 62.7605H25.3252V91.0157H13.2158V62.7605Z" fill="#D400CC"/>
<path d="M19.2705 44.5964C22.6144 44.5964 25.3252 41.8857 25.3252 38.5417C25.3252 35.1978 22.6144 32.4871 19.2705 32.4871C15.9266 32.4871 13.2158 35.1978 13.2158 38.5417C13.2158 41.8857 15.9266 44.5964 19.2705 44.5964Z" fill="#B298FD"/>
<path d="M35.4167 48.6328C38.7607 48.6328 41.4714 45.922 41.4714 42.5781C41.4714 39.2342 38.7607 36.5234 35.4167 36.5234C32.0728 36.5234 29.3621 39.2342 29.3621 42.5781C29.3621 45.922 32.0728 48.6328 35.4167 48.6328Z" fill="#B298FD"/>
<path d="M51.5623 34.5051C54.9062 34.5051 57.6169 31.7944 57.6169 28.4504C57.6169 25.1065 54.9062 22.3958 51.5623 22.3958C48.2183 22.3958 45.5076 25.1065 45.5076 28.4504C45.5076 31.7944 48.2183 34.5051 51.5623 34.5051Z" fill="#B298FD"/>
<path d="M67.708 38.5417C71.0519 38.5417 73.7627 35.831 73.7627 32.4871C73.7627 29.1431 71.0519 26.4324 67.708 26.4324C64.3641 26.4324 61.6533 29.1431 61.6533 32.4871C61.6533 35.831 64.3641 38.5417 67.708 38.5417Z" fill="#B298FD"/>
<path d="M83.8542 30.4688C87.1982 30.4688 89.9089 27.758 89.9089 24.4141C89.9089 21.0702 87.1982 18.3594 83.8542 18.3594C80.5103 18.3594 77.7996 21.0702 77.7996 24.4141C77.7996 27.758 80.5103 30.4688 83.8542 30.4688Z" fill="#B298FD"/>
<path d="M82.0375 20.7812L67.3044 28.2487L50.5531 24.0104L34.4073 38.138L20.2797 34.707L18.2615 42.3763L36.4255 47.0182L52.5714 32.8906L68.1117 36.7253L85.6703 28.0469L82.0375 20.7812Z" fill="#B298FD"/>
</g>
<defs>
<clipPath id="clip0">
<rect width="100" height="100" fill="white"/>
</clipPath>
</defs>
</svg>
