<svg width="571" height="350" viewBox="0 0 571 350" fill="none" xmlns="http://www.w3.org/2000/svg">
<rect x="7" width="425.833" height="340" rx="20.9583" fill="url(#paint0_linear)" fill-opacity="0.53"/>
<path d="M46.0567 154.463C46.02 154.415 45.8917 154.323 45.6717 154.188C45.4517 154.054 45.1767 153.913 44.8467 153.767C44.5167 153.608 44.1561 153.48 43.765 153.382C43.3739 153.272 42.9828 153.217 42.5917 153.217C41.5161 153.217 40.9783 153.577 40.9783 154.298C40.9783 154.738 41.2106 155.05 41.675 155.233C42.1517 155.417 42.83 155.637 43.71 155.893C44.5411 156.126 45.2561 156.395 45.855 156.7C46.4661 156.993 46.9367 157.391 47.2667 157.892C47.5967 158.381 47.7617 159.028 47.7617 159.835C47.7617 160.568 47.6272 161.192 47.3583 161.705C47.0894 162.206 46.7228 162.616 46.2583 162.933C45.7939 163.239 45.2683 163.465 44.6817 163.612C44.1072 163.746 43.5083 163.813 42.885 163.813C41.9194 163.813 40.9417 163.673 39.9517 163.392C38.9617 163.098 38.0878 162.701 37.33 162.2L38.65 159.578C38.6989 159.64 38.8578 159.756 39.1267 159.927C39.3956 160.086 39.7317 160.257 40.135 160.44C40.5383 160.623 40.9783 160.782 41.455 160.917C41.9439 161.039 42.4389 161.1 42.94 161.1C44.0033 161.1 44.535 160.776 44.535 160.128C44.535 159.798 44.3944 159.542 44.1133 159.358C43.8444 159.163 43.4717 158.998 42.995 158.863C42.5183 158.717 41.9806 158.552 41.3817 158.368C40.1839 158.002 39.2978 157.556 38.7233 157.03C38.1611 156.505 37.88 155.753 37.88 154.775C37.88 153.858 38.0939 153.088 38.5217 152.465C38.9617 151.83 39.5483 151.353 40.2817 151.035C41.015 150.705 41.8156 150.54 42.6833 150.54C43.6 150.54 44.4678 150.699 45.2867 151.017C46.1056 151.322 46.8022 151.64 47.3767 151.97L46.0567 154.463ZM50.626 163.667V150.65H53.6326V163.667H50.626ZM67.489 163.667V155.912L64.684 161.558H63.034L60.229 155.912V163.667H57.2224V150.65H60.4857L63.859 157.452L67.2507 150.65H70.4957V163.667H67.489ZM74.0955 163.667V150.65H79.6505C80.2738 150.65 80.8422 150.778 81.3555 151.035C81.881 151.28 82.3333 151.616 82.7122 152.043C83.091 152.459 83.3844 152.93 83.5922 153.455C83.7999 153.981 83.9038 154.512 83.9038 155.05C83.9038 155.808 83.7266 156.523 83.3722 157.195C83.0299 157.867 82.5472 158.417 81.9238 158.845C81.3005 159.261 80.5733 159.468 79.7422 159.468H77.1022V163.667H74.0955ZM77.1022 156.847H79.5588C79.9133 156.847 80.2188 156.694 80.4755 156.388C80.7322 156.083 80.8605 155.637 80.8605 155.05C80.8605 154.451 80.7077 154.011 80.4022 153.73C80.1088 153.437 79.791 153.29 79.4488 153.29H77.1022V156.847ZM86.618 163.667V150.65H89.6247V161.027H95.9314V163.667H86.618ZM107.591 161.027V163.667H98.4423V150.65H107.426V153.29H101.449V155.82H106.582V158.258H101.449V161.027H107.591ZM110.261 163.667V160.678H112.662V163.667H110.261ZM130.531 161.027V163.667H121.383V150.65H130.366V153.29H124.389V155.82H129.523V158.258H124.389V161.027H130.531ZM136.739 150.65H139.984L144.458 163.667H141.378L140.369 160.752H136.318L135.328 163.667H132.248L136.739 150.65ZM139.874 158.68L138.353 153.675L136.794 158.68H139.874ZM154.488 154.463C154.452 154.415 154.323 154.323 154.103 154.188C153.883 154.054 153.608 153.913 153.278 153.767C152.948 153.608 152.588 153.48 152.197 153.382C151.806 153.272 151.414 153.217 151.023 153.217C149.948 153.217 149.41 153.577 149.41 154.298C149.41 154.738 149.642 155.05 150.107 155.233C150.583 155.417 151.262 155.637 152.142 155.893C152.973 156.126 153.688 156.395 154.287 156.7C154.898 156.993 155.368 157.391 155.698 157.892C156.028 158.381 156.193 159.028 156.193 159.835C156.193 160.568 156.059 161.192 155.79 161.705C155.521 162.206 155.154 162.616 154.69 162.933C154.226 163.239 153.7 163.465 153.113 163.612C152.539 163.746 151.94 163.813 151.317 163.813C150.351 163.813 149.373 163.673 148.383 163.392C147.393 163.098 146.519 162.701 145.762 162.2L147.082 159.578C147.131 159.64 147.289 159.756 147.558 159.927C147.827 160.086 148.163 160.257 148.567 160.44C148.97 160.623 149.41 160.782 149.887 160.917C150.376 161.039 150.871 161.1 151.372 161.1C152.435 161.1 152.967 160.776 152.967 160.128C152.967 159.798 152.826 159.542 152.545 159.358C152.276 159.163 151.903 158.998 151.427 158.863C150.95 158.717 150.412 158.552 149.813 158.368C148.616 158.002 147.729 157.556 147.155 157.03C146.593 156.505 146.312 155.753 146.312 154.775C146.312 153.858 146.526 153.088 146.953 152.465C147.393 151.83 147.98 151.353 148.713 151.035C149.447 150.705 150.247 150.54 151.115 150.54C152.032 150.54 152.899 150.699 153.718 151.017C154.537 151.322 155.234 151.64 155.808 151.97L154.488 154.463ZM160.734 150.65L163.539 156.407L166.381 150.65H169.662L165.024 159.23V163.667H162.036V159.193L157.471 150.65H160.734ZM170.321 163.667V160.678H172.723V163.667H170.321ZM43.9483 185.777C42.9828 185.777 42.1028 185.593 41.3083 185.227C40.5261 184.848 39.8478 184.347 39.2733 183.723C38.6989 183.088 38.2589 182.379 37.9533 181.597C37.6478 180.802 37.495 179.983 37.495 179.14C37.495 178.285 37.6539 177.466 37.9717 176.683C38.3017 175.889 38.7539 175.186 39.3283 174.575C39.915 173.952 40.6056 173.463 41.4 173.108C42.1944 172.754 43.0622 172.577 44.0033 172.577C44.9689 172.577 45.8428 172.766 46.625 173.145C47.4194 173.512 48.0978 174.013 48.66 174.648C49.2344 175.284 49.6744 175.999 49.98 176.793C50.2856 177.576 50.4383 178.376 50.4383 179.195C50.4383 180.051 50.2733 180.876 49.9433 181.67C49.6256 182.452 49.1733 183.155 48.5867 183.778C48.0122 184.39 47.3278 184.878 46.5333 185.245C45.7511 185.6 44.8894 185.777 43.9483 185.777ZM40.5567 179.177C40.5567 179.849 40.685 180.485 40.9417 181.083C41.1983 181.67 41.5833 182.153 42.0967 182.532C42.61 182.911 43.2333 183.1 43.9667 183.1C44.7244 183.1 45.3539 182.905 45.855 182.513C46.3683 182.122 46.7472 181.627 46.9917 181.028C47.2483 180.417 47.3767 179.788 47.3767 179.14C47.3767 178.468 47.2422 177.838 46.9733 177.252C46.7167 176.653 46.3317 176.17 45.8183 175.803C45.3172 175.437 44.7 175.253 43.9667 175.253C43.2089 175.253 42.5733 175.449 42.06 175.84C41.5589 176.219 41.18 176.708 40.9233 177.307C40.6789 177.906 40.5567 178.529 40.5567 179.177ZM53.2757 185.667V172.65H58.8307C59.454 172.65 60.0224 172.778 60.5357 173.035C61.0613 173.28 61.5135 173.616 61.8924 174.043C62.2713 174.459 62.5646 174.93 62.7724 175.455C62.9801 175.981 63.084 176.512 63.084 177.05C63.084 177.808 62.9068 178.523 62.5524 179.195C62.2101 179.867 61.7274 180.417 61.104 180.845C60.4807 181.261 59.7535 181.468 58.9224 181.468H56.2824V185.667H53.2757ZM56.2824 178.847H58.739C59.0935 178.847 59.399 178.694 59.6557 178.388C59.9124 178.083 60.0407 177.637 60.0407 177.05C60.0407 176.451 59.8879 176.011 59.5824 175.73C59.289 175.437 58.9713 175.29 58.629 175.29H56.2824V178.847ZM75.7166 175.29H71.7566V185.667H68.7499V175.29H64.7716V172.65H75.7166V175.29ZM78.2849 185.667V172.65H81.2916V185.667H78.2849ZM95.148 185.667V177.912L92.343 183.558H90.693L87.888 177.912V185.667H84.8814V172.65H88.1447L91.518 179.452L94.9097 172.65H98.1547V185.667H95.148ZM101.754 185.667V172.65H104.761V185.667H101.754ZM107.618 183.412L114.254 175.29H107.874V172.65H117.866V174.905L111.541 183.027H117.939V185.667H107.618V183.412ZM130.058 183.027V185.667H120.909V172.65H129.893V175.29H123.916V177.82H129.049V180.258H123.916V183.027H130.058ZM132.984 185.667V172.65H137.842C139.272 172.65 140.464 172.943 141.417 173.53C142.383 174.105 143.11 174.887 143.599 175.877C144.088 176.855 144.332 177.942 144.332 179.14C144.332 180.46 144.064 181.609 143.526 182.587C142.988 183.565 142.23 184.322 141.252 184.86C140.287 185.398 139.15 185.667 137.842 185.667H132.984ZM141.271 179.14C141.271 177.991 140.971 177.062 140.372 176.353C139.774 175.645 138.93 175.29 137.842 175.29H135.991V183.027H137.842C138.576 183.027 139.199 182.862 139.712 182.532C140.226 182.19 140.611 181.725 140.867 181.138C141.136 180.552 141.271 179.886 141.271 179.14ZM146.879 185.667V182.678H149.281V185.667H146.879ZM161.008 178.223V185.667H158.001V172.65H160.385L166.416 180.313V172.65H169.423V185.667H166.966L161.008 178.223ZM182.161 183.027V185.667H173.012V172.65H181.996V175.29H176.019V177.82H181.152V180.258H176.019V183.027H182.161ZM189.377 172.668H192.146L193.502 176.83L194.859 172.668H197.646L195.427 178.718L196.747 182.183L200.011 172.65H203.292L198.214 185.667H195.611L193.502 180.57L191.412 185.667H188.791L183.731 172.65H186.994L190.276 182.183L191.559 178.718L189.377 172.668ZM204.157 185.667V182.678H206.558V185.667H204.157Z" fill="white"/>
<path d="M40.9625 43.15H42.5625L43.575 46.0875L44.6 43.15H46.1875L44.6625 47.1875L45.7875 50.0125L48.3 43.125H50.175L46.625 52H45.1375L43.575 48.275L42.025 52H40.5375L37 43.125H38.85L41.375 50.0125L42.475 47.1875L40.9625 43.15ZM57.2467 50.4875V52H51.0842V43.125H57.1342V44.6375H52.8092V46.775H56.5467V48.175H52.8092V50.4875H57.2467ZM58.5915 52V43.125H60.3165V50.4875H64.8415V52H58.5915ZM65.1585 47.5C65.1585 46.9583 65.2543 46.425 65.446 45.9C65.646 45.375 65.9335 44.9 66.3085 44.475C66.6835 44.05 67.1418 43.7125 67.6835 43.4625C68.2252 43.2042 68.8418 43.075 69.5335 43.075C70.3418 43.075 71.046 43.2542 71.646 43.6125C72.246 43.9708 72.6918 44.4375 72.9835 45.0125L71.6585 45.925C71.5085 45.5917 71.3127 45.3292 71.071 45.1375C70.8293 44.9458 70.5668 44.8083 70.2835 44.725C70.0085 44.6417 69.7418 44.6 69.4835 44.6C69.0502 44.6 68.671 44.6875 68.346 44.8625C68.0293 45.0375 67.7627 45.2667 67.546 45.55C67.3293 45.8333 67.1668 46.15 67.0585 46.5C66.9585 46.85 66.9085 47.2 66.9085 47.55C66.9085 48.075 67.0168 48.5667 67.2335 49.025C67.4502 49.475 67.7543 49.8417 68.146 50.125C68.5377 50.4083 68.9918 50.55 69.5085 50.55C69.7752 50.55 70.0502 50.5042 70.3335 50.4125C70.6252 50.3208 70.8918 50.175 71.1335 49.975C71.3752 49.775 71.5627 49.5167 71.696 49.2L73.1085 50.0125C72.9252 50.4542 72.6377 50.8292 72.246 51.1375C71.8543 51.4375 71.4127 51.6708 70.921 51.8375C70.4293 51.9958 69.9418 52.075 69.4585 52.075C68.8252 52.075 68.246 51.9458 67.721 51.6875C67.2043 51.4208 66.7543 51.0708 66.371 50.6375C65.9877 50.1958 65.6877 49.7042 65.471 49.1625C65.2627 48.6125 65.1585 48.0583 65.1585 47.5ZM77.943 52.0625C77.293 52.0625 76.7013 51.9375 76.168 51.6875C75.643 51.4375 75.1888 51.1 74.8055 50.675C74.4305 50.2417 74.1388 49.7583 73.9305 49.225C73.7221 48.6833 73.618 48.1292 73.618 47.5625C73.618 46.9708 73.7263 46.4083 73.943 45.875C74.1596 45.3333 74.4638 44.8542 74.8555 44.4375C75.2471 44.0125 75.7055 43.6792 76.2305 43.4375C76.7638 43.1875 77.3471 43.0625 77.9805 43.0625C78.6221 43.0625 79.2055 43.1917 79.7305 43.45C80.2638 43.7083 80.718 44.0542 81.093 44.4875C81.4763 44.9208 81.768 45.4083 81.968 45.95C82.1763 46.4833 82.2805 47.0292 82.2805 47.5875C82.2805 48.1708 82.1721 48.7333 81.9555 49.275C81.7388 49.8083 81.4346 50.2875 81.043 50.7125C80.6596 51.1292 80.2013 51.4583 79.668 51.7C79.143 51.9417 78.568 52.0625 77.943 52.0625ZM75.368 47.5625C75.368 48.0792 75.468 48.5625 75.668 49.0125C75.8763 49.4625 76.1721 49.8292 76.5555 50.1125C76.9471 50.3958 77.4138 50.5375 77.9555 50.5375C78.5138 50.5375 78.9846 50.3917 79.368 50.1C79.7513 49.8083 80.043 49.4333 80.243 48.975C80.443 48.5167 80.543 48.0458 80.543 47.5625C80.543 47.0458 80.4388 46.5625 80.2305 46.1125C80.0221 45.6625 79.7221 45.3 79.3305 45.025C78.9471 44.7417 78.4888 44.6 77.9555 44.6C77.3971 44.6 76.9263 44.7458 76.543 45.0375C76.1596 45.3292 75.868 45.7042 75.668 46.1625C75.468 46.6125 75.368 47.0792 75.368 47.5625ZM90.8412 52V46.175L88.5662 50.5125H87.6037L85.3287 46.175V52H83.6037V43.125H85.4537L88.0787 48.175L90.7287 43.125H92.5662V52H90.8412ZM100.582 50.4875V52H94.4191V43.125H100.469V44.6375H96.1441V46.775H99.8816V48.175H96.1441V50.4875H100.582ZM111.201 44.6375H108.363V52H106.651V44.6375H103.813V43.125H111.201V44.6375ZM115.895 52.0625C115.245 52.0625 114.653 51.9375 114.12 51.6875C113.595 51.4375 113.14 51.1 112.757 50.675C112.382 50.2417 112.09 49.7583 111.882 49.225C111.674 48.6833 111.57 48.1292 111.57 47.5625C111.57 46.9708 111.678 46.4083 111.895 45.875C112.111 45.3333 112.415 44.8542 112.807 44.4375C113.199 44.0125 113.657 43.6792 114.182 43.4375C114.715 43.1875 115.299 43.0625 115.932 43.0625C116.574 43.0625 117.157 43.1917 117.682 43.45C118.215 43.7083 118.67 44.0542 119.045 44.4875C119.428 44.9208 119.72 45.4083 119.92 45.95C120.128 46.4833 120.232 47.0292 120.232 47.5875C120.232 48.1708 120.124 48.7333 119.907 49.275C119.69 49.8083 119.386 50.2875 118.995 50.7125C118.611 51.1292 118.153 51.4583 117.62 51.7C117.095 51.9417 116.52 52.0625 115.895 52.0625ZM113.32 47.5625C113.32 48.0792 113.42 48.5625 113.62 49.0125C113.828 49.4625 114.124 49.8292 114.507 50.1125C114.899 50.3958 115.365 50.5375 115.907 50.5375C116.465 50.5375 116.936 50.3917 117.32 50.1C117.703 49.8083 117.995 49.4333 118.195 48.975C118.395 48.5167 118.495 48.0458 118.495 47.5625C118.495 47.0458 118.39 46.5625 118.182 46.1125C117.974 45.6625 117.674 45.3 117.282 45.025C116.899 44.7417 116.44 44.6 115.907 44.6C115.349 44.6 114.878 44.7458 114.495 45.0375C114.111 45.3292 113.82 45.7042 113.62 46.1625C113.42 46.6125 113.32 47.0792 113.32 47.5625ZM39.4542 87.1292C39.1097 87.1292 38.8256 87.0172 38.6017 86.7933C38.395 86.5694 38.2917 86.2939 38.2917 85.9667C38.2917 85.8289 38.3347 85.6567 38.4208 85.45L45.0083 69.8983C45.1461 69.5883 45.3356 69.3386 45.5767 69.1492C45.835 68.9425 46.145 68.8392 46.5067 68.8392H46.765C47.1267 68.8392 47.4281 68.9425 47.6692 69.1492C47.9275 69.3386 48.1256 69.5883 48.2633 69.8983L54.8508 85.45C54.9369 85.6567 54.98 85.8289 54.98 85.9667C54.98 86.2939 54.8681 86.5694 54.6442 86.7933C54.4375 87.0172 54.1619 87.1292 53.8175 87.1292C53.5764 87.1292 53.3525 87.0689 53.1458 86.9483C52.9564 86.8106 52.81 86.6297 52.7067 86.4058L51.0275 82.3758H42.2442L40.565 86.4058C40.4617 86.6297 40.3067 86.8106 40.1 86.9483C39.9106 87.0689 39.6953 87.1292 39.4542 87.1292ZM43.1483 80.2317H50.1233L46.6358 71.8358L43.1483 80.2317ZM59.9424 87.1292C59.6152 87.1292 59.3396 87.0172 59.1158 86.7933C58.8919 86.5694 58.7799 86.2939 58.7799 85.9667V70.1567C58.7799 69.8294 58.8919 69.5539 59.1158 69.33C59.3396 69.0889 59.6152 68.9683 59.9424 68.9683H65.8324C67.4685 68.9683 68.8033 69.2439 69.8366 69.795C70.8699 70.3461 71.6105 71.0522 72.0583 71.9133C72.506 72.7744 72.7299 73.7044 72.7299 74.7033C72.7299 75.7022 72.506 76.6322 72.0583 77.4933C71.6105 78.3544 70.8699 79.0606 69.8366 79.6117C68.8033 80.1628 67.4685 80.4383 65.8324 80.4383H61.1308V85.9667C61.1308 86.2939 61.0102 86.5694 60.7691 86.7933C60.5452 87.0172 60.2696 87.1292 59.9424 87.1292ZM65.5999 78.2167C67.3566 78.2167 68.588 77.8808 69.2941 77.2092C70.0174 76.5375 70.3791 75.7022 70.3791 74.7033C70.3791 73.7044 70.0174 72.8692 69.2941 72.1975C68.588 71.5258 67.3566 71.19 65.5999 71.19H61.1308V78.2167H65.5999ZM77.2992 87.1292C76.972 87.1292 76.6964 87.0172 76.4725 86.7933C76.2486 86.5694 76.1367 86.2939 76.1367 85.9667V70.1567C76.1367 69.8294 76.2486 69.5539 76.4725 69.33C76.6964 69.0889 76.972 68.9683 77.2992 68.9683H83.1892C84.8253 68.9683 86.16 69.2439 87.1934 69.795C88.2267 70.3461 88.9672 71.0522 89.415 71.9133C89.8628 72.7744 90.0867 73.7044 90.0867 74.7033C90.0867 75.7022 89.8628 76.6322 89.415 77.4933C88.9672 78.3544 88.2267 79.0606 87.1934 79.6117C86.16 80.1628 84.8253 80.4383 83.1892 80.4383H78.4875V85.9667C78.4875 86.2939 78.367 86.5694 78.1259 86.7933C77.902 87.0172 77.6264 87.1292 77.2992 87.1292ZM82.9567 78.2167C84.7134 78.2167 85.9447 77.8808 86.6509 77.2092C87.3742 76.5375 87.7359 75.7022 87.7359 74.7033C87.7359 73.7044 87.3742 72.8692 86.6509 72.1975C85.9447 71.5258 84.7134 71.19 82.9567 71.19H78.4875V78.2167H82.9567ZM99.1768 87.2583C96.9896 87.2583 94.9401 86.845 93.0285 86.0183C92.8218 85.9322 92.6496 85.7944 92.5118 85.605C92.374 85.3983 92.3051 85.1831 92.3051 84.9592C92.3051 84.6664 92.3998 84.4167 92.5893 84.21C92.796 83.9861 93.0543 83.8742 93.3643 83.8742C93.5365 83.8742 93.7001 83.9086 93.8551 83.9775C95.4396 84.6836 97.136 85.0367 98.9443 85.0367C101.958 85.0367 103.465 84.0464 103.465 82.0658C103.465 81.5492 103.267 81.1186 102.871 80.7742C102.492 80.4297 102.018 80.1628 101.45 79.9733C100.882 79.7667 100.072 79.5256 99.0218 79.25C97.6268 78.8883 96.4987 78.5439 95.6376 78.2167C94.7765 77.8722 94.036 77.3642 93.416 76.6925C92.796 76.0208 92.486 75.1253 92.486 74.0058C92.486 73.0242 92.7443 72.1372 93.261 71.345C93.7776 70.5356 94.5354 69.8983 95.5343 69.4333C96.5504 68.9511 97.7646 68.71 99.1768 68.71C101.071 68.71 102.785 68.9942 104.318 69.5625C104.8 69.7347 105.041 70.0792 105.041 70.5958C105.041 70.8714 104.946 71.1211 104.757 71.345C104.567 71.5689 104.318 71.6808 104.008 71.6808C103.904 71.6808 103.767 71.6464 103.594 71.5775C102.251 71.1125 100.865 70.88 99.4351 70.88C98.0746 70.88 96.9637 71.1383 96.1026 71.655C95.2587 72.1717 94.8368 72.895 94.8368 73.825C94.8368 74.445 95.0348 74.9531 95.431 75.3492C95.8443 75.7281 96.3523 76.0294 96.9551 76.2533C97.5751 76.46 98.4104 76.6839 99.461 76.925C100.822 77.2522 101.915 77.5794 102.742 77.9067C103.586 78.2339 104.3 78.7419 104.886 79.4308C105.489 80.1197 105.79 81.0497 105.79 82.2208C105.79 83.1853 105.515 84.055 104.963 84.83C104.412 85.5878 103.637 86.1819 102.638 86.6125C101.64 87.0431 100.486 87.2583 99.1768 87.2583ZM110.575 87C110.248 87 109.972 86.8881 109.748 86.6642C109.524 86.4403 109.412 86.1647 109.412 85.8375V70.1567C109.412 69.8294 109.524 69.5539 109.748 69.33C109.972 69.0889 110.248 68.9683 110.575 68.9683H120.934C121.244 68.9683 121.502 69.0803 121.709 69.3042C121.933 69.5108 122.045 69.7692 122.045 70.0792C122.045 70.3892 121.933 70.6475 121.709 70.8542C121.502 71.0608 121.244 71.1642 120.934 71.1642H111.763V76.8733H120.004C120.314 76.8733 120.572 76.9853 120.779 77.2092C121.003 77.4158 121.115 77.6742 121.115 77.9842C121.115 78.2942 121.003 78.5525 120.779 78.7592C120.572 78.9658 120.314 79.0692 120.004 79.0692H111.763V84.8042H120.934C121.244 84.8042 121.502 84.9161 121.709 85.14C121.933 85.3467 122.045 85.605 122.045 85.915C122.045 86.225 121.933 86.4833 121.709 86.69C121.502 86.8967 121.244 87 120.934 87H110.575ZM133.692 87.2583C131.884 87.2583 130.299 86.8622 128.939 86.07C127.578 85.2778 126.527 84.1842 125.787 82.7892C125.046 81.3942 124.659 79.7925 124.624 77.9842C124.659 76.1758 125.046 74.5742 125.787 73.1792C126.527 71.7842 127.578 70.6906 128.939 69.8983C130.299 69.1061 131.884 68.71 133.692 68.71C135.5 68.71 137.076 69.1061 138.419 69.8983C139.78 70.6906 140.831 71.7928 141.571 73.205C142.329 74.6 142.725 76.1931 142.759 77.9842C142.725 79.7753 142.329 81.3769 141.571 82.7892C140.831 84.1842 139.78 85.2778 138.419 86.07C137.076 86.8622 135.5 87.2583 133.692 87.2583ZM133.692 85.0625C135.07 85.0625 136.267 84.7525 137.283 84.1325C138.299 83.5125 139.074 82.6686 139.608 81.6008C140.142 80.5331 140.409 79.3275 140.409 77.9842C140.409 76.6408 140.142 75.4353 139.608 74.3675C139.074 73.2997 138.299 72.4558 137.283 71.8358C136.267 71.2158 135.07 70.9058 133.692 70.9058C132.297 70.9058 131.091 71.2158 130.075 71.8358C129.076 72.4558 128.31 73.2997 127.776 74.3675C127.242 75.4353 126.975 76.6408 126.975 77.9842C126.975 79.3275 127.242 80.5331 127.776 81.6008C128.31 82.6686 129.076 83.5125 130.075 84.1325C131.091 84.7525 132.297 85.0625 133.692 85.0625ZM147.836 87.1292C147.509 87.1292 147.234 87.0172 147.01 86.7933C146.786 86.5694 146.674 86.2939 146.674 85.9667V70.5442C146.674 70.0792 146.837 69.6831 147.165 69.3558C147.492 69.0114 147.888 68.8392 148.353 68.8392H148.689C149.24 68.8392 149.714 69.0975 150.11 69.6142L160.055 83.9775V70.0275C160.055 69.7003 160.167 69.4247 160.391 69.2008C160.615 68.9597 160.891 68.8392 161.218 68.8392C161.545 68.8392 161.821 68.9597 162.045 69.2008C162.286 69.4247 162.406 69.7003 162.406 70.0275V85.45C162.406 85.915 162.234 86.3111 161.89 86.6383C161.562 86.9656 161.166 87.1292 160.701 87.1292H160.391C160.116 87.1292 159.857 87.0689 159.616 86.9483C159.375 86.8106 159.177 86.6383 159.022 86.4317L149.025 71.9908V85.9667C149.025 86.2939 148.904 86.5694 148.663 86.7933C148.439 87.0172 148.164 87.1292 147.836 87.1292ZM168.574 87.1292C168.246 87.1292 167.971 87.0172 167.747 86.7933C167.523 86.5694 167.411 86.2939 167.411 85.9667V70.0275C167.411 69.7003 167.523 69.4247 167.747 69.2008C167.971 68.9597 168.246 68.8392 168.574 68.8392C168.901 68.8392 169.176 68.9597 169.4 69.2008C169.641 69.4247 169.762 69.7003 169.762 70.0275V85.9667C169.762 86.2939 169.641 86.5694 169.4 86.7933C169.176 87.0172 168.901 87.1292 168.574 87.1292ZM180.125 87.1292C179.798 87.1292 179.522 87.0172 179.298 86.7933C179.075 86.5694 178.963 86.2939 178.963 85.9667V71.1642H173.693C173.383 71.1642 173.124 71.0608 172.918 70.8542C172.711 70.6475 172.608 70.3892 172.608 70.0792C172.608 69.7692 172.711 69.5108 172.918 69.3042C173.124 69.0803 173.383 68.9683 173.693 68.9683H186.558C186.868 68.9683 187.126 69.0803 187.333 69.3042C187.557 69.5108 187.668 69.7692 187.668 70.0792C187.668 70.3892 187.557 70.6475 187.333 70.8542C187.126 71.0608 186.868 71.1642 186.558 71.1642H181.313V85.9667C181.313 86.2939 181.193 86.5694 180.952 86.7933C180.728 87.0172 180.452 87.1292 180.125 87.1292ZM202.578 87.1292C202.251 87.1292 201.975 87.0172 201.751 86.7933C201.527 86.5694 201.415 86.2939 201.415 85.9667V71.1642H196.145C195.835 71.1642 195.577 71.0608 195.37 70.8542C195.164 70.6475 195.06 70.3892 195.06 70.0792C195.06 69.7692 195.164 69.5108 195.37 69.3042C195.577 69.0803 195.835 68.9683 196.145 68.9683H209.01C209.32 68.9683 209.579 69.0803 209.785 69.3042C210.009 69.5108 210.121 69.7692 210.121 70.0792C210.121 70.3892 210.009 70.6475 209.785 70.8542C209.579 71.0608 209.32 71.1642 209.01 71.1642H203.766V85.9667C203.766 86.2939 203.646 86.5694 203.405 86.7933C203.181 87.0172 202.905 87.1292 202.578 87.1292ZM214.135 87C213.808 87 213.532 86.8881 213.308 86.6642C213.085 86.4403 212.973 86.1647 212.973 85.8375V70.1567C212.973 69.8294 213.085 69.5539 213.308 69.33C213.532 69.0889 213.808 68.9683 214.135 68.9683H224.494C224.804 68.9683 225.063 69.0803 225.269 69.3042C225.493 69.5108 225.605 69.7692 225.605 70.0792C225.605 70.3892 225.493 70.6475 225.269 70.8542C225.063 71.0608 224.804 71.1642 224.494 71.1642H215.323V76.8733H223.564C223.874 76.8733 224.133 76.9853 224.339 77.2092C224.563 77.4158 224.675 77.6742 224.675 77.9842C224.675 78.2942 224.563 78.5525 224.339 78.7592C224.133 78.9658 223.874 79.0692 223.564 79.0692H215.323V84.8042H224.494C224.804 84.8042 225.063 84.9161 225.269 85.14C225.493 85.3467 225.605 85.605 225.605 85.915C225.605 86.225 225.493 86.4833 225.269 86.69C225.063 86.8967 224.804 87 224.494 87H214.135ZM237.226 87.2583C235.504 87.2583 233.954 86.8881 232.576 86.1475C231.216 85.3897 230.14 84.3133 229.347 82.9183C228.572 81.5061 228.185 79.8614 228.185 77.9842C228.185 76.1069 228.572 74.4708 229.347 73.0758C230.14 71.6636 231.216 70.5872 232.576 69.8467C233.954 69.0889 235.504 68.71 237.226 68.71C238.398 68.71 239.44 68.8478 240.352 69.1233C241.282 69.3989 242.204 69.795 243.116 70.3117C243.495 70.5183 243.685 70.8456 243.685 71.2933C243.685 71.5517 243.59 71.7842 243.401 71.9908C243.211 72.1803 242.961 72.275 242.651 72.275C242.479 72.275 242.324 72.2406 242.186 72.1717C241.429 71.7756 240.688 71.4742 239.965 71.2675C239.241 71.0608 238.406 70.9575 237.459 70.9575C235.978 70.9575 234.712 71.2675 233.661 71.8875C232.628 72.4903 231.845 73.3256 231.311 74.3933C230.794 75.4439 230.536 76.6408 230.536 77.9842C230.536 79.3275 230.794 80.5331 231.311 81.6008C231.845 82.6514 232.628 83.4867 233.661 84.1067C234.712 84.7094 235.978 85.0108 237.459 85.0108C238.406 85.0108 239.241 84.9075 239.965 84.7008C240.688 84.4942 241.429 84.1928 242.186 83.7967C242.324 83.7278 242.479 83.6933 242.651 83.6933C242.961 83.6933 243.211 83.7881 243.401 83.9775C243.59 84.1669 243.685 84.3994 243.685 84.675C243.685 85.1228 243.495 85.45 243.116 85.6567C242.204 86.1733 241.282 86.5694 240.352 86.845C239.44 87.1206 238.398 87.2583 237.226 87.2583ZM248.395 87.1292C248.067 87.1292 247.792 87.0172 247.568 86.7933C247.344 86.5694 247.232 86.2939 247.232 85.9667V70.0275C247.232 69.7003 247.344 69.4247 247.568 69.2008C247.792 68.9597 248.067 68.8392 248.395 68.8392C248.722 68.8392 248.997 68.9597 249.221 69.2008C249.462 69.4247 249.583 69.7003 249.583 70.0275V76.8992H259.374V70.0275C259.374 69.7003 259.486 69.4247 259.71 69.2008C259.933 68.9597 260.209 68.8392 260.536 68.8392C260.863 68.8392 261.139 68.9597 261.363 69.2008C261.604 69.4247 261.725 69.7003 261.725 70.0275V85.9667C261.725 86.2939 261.604 86.5694 261.363 86.7933C261.139 87.0172 260.863 87.1292 260.536 87.1292C260.209 87.1292 259.933 87.0172 259.71 86.7933C259.486 86.5694 259.374 86.2939 259.374 85.9667V79.095H249.583V85.9667C249.583 86.2939 249.462 86.5694 249.221 86.7933C248.997 87.0172 248.722 87.1292 248.395 87.1292ZM267.896 87.1292C267.568 87.1292 267.293 87.0172 267.069 86.7933C266.845 86.5694 266.733 86.2939 266.733 85.9667V70.5442C266.733 70.0792 266.897 69.6831 267.224 69.3558C267.551 69.0114 267.947 68.8392 268.412 68.8392H268.748C269.299 68.8392 269.773 69.0975 270.169 69.6142L280.115 83.9775V70.0275C280.115 69.7003 280.227 69.4247 280.451 69.2008C280.675 68.9597 280.95 68.8392 281.277 68.8392C281.605 68.8392 281.88 68.9597 282.104 69.2008C282.345 69.4247 282.466 69.7003 282.466 70.0275V85.45C282.466 85.915 282.293 86.3111 281.949 86.6383C281.622 86.9656 281.226 87.1292 280.761 87.1292H280.451C280.175 87.1292 279.917 87.0689 279.676 86.9483C279.435 86.8106 279.237 86.6383 279.082 86.4317L269.084 71.9908V85.9667C269.084 86.2939 268.963 86.5694 268.722 86.7933C268.498 87.0172 268.223 87.1292 267.896 87.1292ZM295.453 87.2583C293.645 87.2583 292.06 86.8622 290.7 86.07C289.339 85.2778 288.289 84.1842 287.548 82.7892C286.807 81.3942 286.42 79.7925 286.385 77.9842C286.42 76.1758 286.807 74.5742 287.548 73.1792C288.289 71.7842 289.339 70.6906 290.7 69.8983C292.06 69.1061 293.645 68.71 295.453 68.71C297.261 68.71 298.837 69.1061 300.18 69.8983C301.541 70.6906 302.592 71.7928 303.332 73.205C304.09 74.6 304.486 76.1931 304.52 77.9842C304.486 79.7753 304.09 81.3769 303.332 82.7892C302.592 84.1842 301.541 85.2778 300.18 86.07C298.837 86.8622 297.261 87.2583 295.453 87.2583ZM295.453 85.0625C296.831 85.0625 298.028 84.7525 299.044 84.1325C300.06 83.5125 300.835 82.6686 301.369 81.6008C301.903 80.5331 302.17 79.3275 302.17 77.9842C302.17 76.6408 301.903 75.4353 301.369 74.3675C300.835 73.2997 300.06 72.4558 299.044 71.8358C298.028 71.2158 296.831 70.9058 295.453 70.9058C294.058 70.9058 292.852 71.2158 291.836 71.8358C290.837 72.4558 290.071 73.2997 289.537 74.3675C289.003 75.4353 288.736 76.6408 288.736 77.9842C288.736 79.3275 289.003 80.5331 289.537 81.6008C290.071 82.6686 290.837 83.5125 291.836 84.1325C292.852 84.7525 294.058 85.0625 295.453 85.0625ZM310.062 87C309.615 87 309.227 86.845 308.9 86.535C308.59 86.2078 308.435 85.8203 308.435 85.3725V70.0275C308.435 69.7003 308.547 69.4247 308.771 69.2008C308.995 68.9597 309.27 68.8392 309.597 68.8392C309.925 68.8392 310.2 68.9597 310.424 69.2008C310.665 69.4247 310.786 69.7003 310.786 70.0275V84.6492H319.233C319.56 84.6492 319.836 84.7697 320.06 85.0108C320.301 85.2347 320.422 85.5103 320.422 85.8375C320.422 86.1647 320.301 86.4403 320.06 86.6642C319.836 86.8881 319.56 87 319.233 87H310.062ZM331.302 87.2583C329.493 87.2583 327.909 86.8622 326.548 86.07C325.188 85.2778 324.137 84.1842 323.397 82.7892C322.656 81.3942 322.269 79.7925 322.234 77.9842C322.269 76.1758 322.656 74.5742 323.397 73.1792C324.137 71.7842 325.188 70.6906 326.548 69.8983C327.909 69.1061 329.493 68.71 331.302 68.71C333.11 68.71 334.686 69.1061 336.029 69.8983C337.39 70.6906 338.44 71.7928 339.181 73.205C339.939 74.6 340.335 76.1931 340.369 77.9842C340.335 79.7753 339.939 81.3769 339.181 82.7892C338.44 84.1842 337.39 85.2778 336.029 86.07C334.686 86.8622 333.11 87.2583 331.302 87.2583ZM331.302 85.0625C332.68 85.0625 333.877 84.7525 334.893 84.1325C335.909 83.5125 336.684 82.6686 337.218 81.6008C337.752 80.5331 338.018 79.3275 338.018 77.9842C338.018 76.6408 337.752 75.4353 337.218 74.3675C336.684 73.2997 335.909 72.4558 334.893 71.8358C333.877 71.2158 332.68 70.9058 331.302 70.9058C329.907 70.9058 328.701 71.2158 327.685 71.8358C326.686 72.4558 325.92 73.2997 325.386 74.3675C324.852 75.4353 324.585 76.6408 324.585 77.9842C324.585 79.3275 324.852 80.5331 325.386 81.6008C325.92 82.6686 326.686 83.5125 327.685 84.1325C328.701 84.7525 329.907 85.0625 331.302 85.0625ZM352.266 87.2583C350.492 87.2583 348.916 86.8708 347.539 86.0958C346.161 85.3036 345.093 84.21 344.335 82.815C343.578 81.4028 343.199 79.8011 343.199 78.01C343.199 76.1844 343.595 74.5656 344.387 73.1533C345.179 71.7411 346.256 70.6475 347.616 69.8725C348.994 69.0975 350.518 68.71 352.189 68.71C353.532 68.71 354.703 68.8736 355.702 69.2008C356.718 69.5281 357.691 69.9844 358.621 70.57C358.759 70.6389 358.879 70.7594 358.983 70.9317C359.086 71.1039 359.138 71.2933 359.138 71.5C359.138 71.7928 359.034 72.0425 358.828 72.2492C358.638 72.4558 358.38 72.5592 358.053 72.5592C357.863 72.5592 357.683 72.5161 357.51 72.43C356.701 71.9478 355.891 71.5861 355.082 71.345C354.273 71.1039 353.394 70.9833 352.447 70.9833C351.138 70.9833 349.958 71.2589 348.908 71.81C347.857 72.3611 347.031 73.1706 346.428 74.2383C345.842 75.2889 345.549 76.5461 345.549 78.01C345.549 79.3533 345.825 80.5589 346.376 81.6267C346.944 82.6772 347.754 83.5125 348.804 84.1325C349.872 84.7353 351.129 85.0367 352.576 85.0367C354.195 85.0367 355.702 84.6578 357.097 83.9V79.2242H352.834C352.542 79.2242 352.292 79.1208 352.085 78.9142C351.879 78.7075 351.775 78.4578 351.775 78.165C351.775 77.8722 351.879 77.6225 352.085 77.4158C352.292 77.2092 352.542 77.1058 352.834 77.1058H357.924C358.268 77.1058 358.561 77.2264 358.802 77.4675C359.043 77.7086 359.164 78.0014 359.164 78.3458V84.21C359.164 84.5717 359.069 84.8989 358.879 85.1917C358.707 85.4672 358.475 85.6739 358.182 85.8117C356.253 86.7761 354.281 87.2583 352.266 87.2583ZM364.998 87.1292C364.671 87.1292 364.395 87.0172 364.171 86.7933C363.947 86.5694 363.835 86.2939 363.835 85.9667V70.0275C363.835 69.7003 363.947 69.4247 364.171 69.2008C364.395 68.9597 364.671 68.8392 364.998 68.8392C365.325 68.8392 365.601 68.9597 365.824 69.2008C366.066 69.4247 366.186 69.7003 366.186 70.0275V85.9667C366.186 86.2939 366.066 86.5694 365.824 86.7933C365.601 87.0172 365.325 87.1292 364.998 87.1292ZM372.364 87C372.037 87 371.762 86.8881 371.538 86.6642C371.314 86.4403 371.202 86.1647 371.202 85.8375V70.1567C371.202 69.8294 371.314 69.5539 371.538 69.33C371.762 69.0889 372.037 68.9683 372.364 68.9683H382.723C383.033 68.9683 383.292 69.0803 383.498 69.3042C383.722 69.5108 383.834 69.7692 383.834 70.0792C383.834 70.3892 383.722 70.6475 383.498 70.8542C383.292 71.0608 383.033 71.1642 382.723 71.1642H373.553V76.8733H381.793C382.103 76.8733 382.362 76.9853 382.568 77.2092C382.792 77.4158 382.904 77.6742 382.904 77.9842C382.904 78.2942 382.792 78.5525 382.568 78.7592C382.362 78.9658 382.103 79.0692 381.793 79.0692H373.553V84.8042H382.723C383.033 84.8042 383.292 84.9161 383.498 85.14C383.722 85.3467 383.834 85.605 383.834 85.915C383.834 86.225 383.722 86.4833 383.498 86.69C383.292 86.8967 383.033 87 382.723 87H372.364ZM393.359 87.2583C391.172 87.2583 389.122 86.845 387.211 86.0183C387.004 85.9322 386.832 85.7944 386.694 85.605C386.556 85.3983 386.487 85.1831 386.487 84.9592C386.487 84.6664 386.582 84.4167 386.771 84.21C386.978 83.9861 387.236 83.8742 387.546 83.8742C387.719 83.8742 387.882 83.9086 388.037 83.9775C389.622 84.6836 391.318 85.0367 393.126 85.0367C396.14 85.0367 397.647 84.0464 397.647 82.0658C397.647 81.5492 397.449 81.1186 397.053 80.7742C396.674 80.4297 396.201 80.1628 395.632 79.9733C395.064 79.7667 394.254 79.5256 393.204 79.25C391.809 78.8883 390.681 78.5439 389.82 78.2167C388.959 77.8722 388.218 77.3642 387.598 76.6925C386.978 76.0208 386.668 75.1253 386.668 74.0058C386.668 73.0242 386.926 72.1372 387.443 71.345C387.96 70.5356 388.718 69.8983 389.716 69.4333C390.733 68.9511 391.947 68.71 393.359 68.71C395.253 68.71 396.967 68.9942 398.5 69.5625C398.982 69.7347 399.223 70.0792 399.223 70.5958C399.223 70.8714 399.128 71.1211 398.939 71.345C398.749 71.5689 398.5 71.6808 398.19 71.6808C398.086 71.6808 397.949 71.6464 397.776 71.5775C396.433 71.1125 395.047 70.88 393.617 70.88C392.257 70.88 391.146 71.1383 390.285 71.655C389.441 72.1717 389.019 72.895 389.019 73.825C389.019 74.445 389.217 74.9531 389.613 75.3492C390.026 75.7281 390.534 76.0294 391.137 76.2533C391.757 76.46 392.593 76.6839 393.643 76.925C395.004 77.2522 396.097 77.5794 396.924 77.9067C397.768 78.2339 398.483 78.7419 399.068 79.4308C399.671 80.1197 399.972 81.0497 399.972 82.2208C399.972 83.1853 399.697 84.055 399.146 84.83C398.594 85.5878 397.819 86.1819 396.821 86.6125C395.822 87.0431 394.668 87.2583 393.359 87.2583ZM38.9246 99.7039V102H37.5819V95.4831H40.1242C40.6136 95.4831 41.0432 95.5726 41.4132 95.7516C41.7862 95.9307 42.0727 96.1858 42.2726 96.517C42.4725 96.8452 42.5725 97.2197 42.5725 97.6405C42.5725 98.279 42.3532 98.7833 41.9146 99.1533C41.4789 99.5203 40.8746 99.7039 40.1018 99.7039H38.9246ZM38.9246 98.6162H40.1242C40.4793 98.6162 40.7493 98.5327 40.9343 98.3656C41.1223 98.1985 41.2163 97.9597 41.2163 97.6494C41.2163 97.3301 41.1223 97.072 40.9343 96.8751C40.7463 96.6781 40.4867 96.5767 40.1555 96.5707H38.9246V98.6162ZM66.4449 99.6143H65.3751V102H64.0324V95.4831H66.4538C67.2237 95.4831 67.8175 95.6546 68.2352 95.9978C68.653 96.341 68.8619 96.8258 68.8619 97.4525C68.8619 97.8971 68.7649 98.2686 68.5709 98.567C68.38 98.8624 68.089 99.0981 67.6981 99.2742L69.108 101.937V102H67.6668L66.4449 99.6143ZM65.3751 98.5267H66.4583C66.7955 98.5267 67.0566 98.4417 67.2416 98.2716C67.4266 98.0985 67.5191 97.8613 67.5191 97.5599C67.5191 97.2526 67.4311 97.0109 67.255 96.8348C67.0819 96.6587 66.8149 96.5707 66.4538 96.5707H65.3751V98.5267ZM91.848 102H90.5052V95.4831H91.848V102ZM116.038 100.384L117.515 95.4831H119.01L116.741 102H115.34L113.08 95.4831H114.57L116.038 100.384ZM143.5 100.657H141.146L140.698 102H139.27L141.696 95.4831H142.941L145.38 102H143.952L143.5 100.657ZM141.508 99.5696H143.138L142.319 97.1302L141.508 99.5696ZM170.891 96.5707H168.894V102H167.552V96.5707H165.582V95.4831H170.891V96.5707ZM196.115 99.1757H193.537V100.921H196.562V102H192.194V95.4831H196.553V96.5707H193.537V98.1239H196.115V99.1757ZM242.042 100.921H244.893V102H240.699V95.4831H242.042V100.921ZM267.629 102H266.286V95.4831H267.629V102ZM291.166 95.4831L292.84 100.21L294.505 95.4831H296.268V102H294.921V100.219L295.055 97.1436L293.296 102H292.374L290.619 97.1481L290.754 100.219V102H289.411V95.4831H291.166ZM319.402 102H318.059V95.4831H319.402V102ZM345.955 96.5707H343.959V102H342.616V96.5707H340.647V95.4831H345.955V96.5707ZM371.179 99.1757H368.601V100.921H371.627V102H367.259V95.4831H371.618V96.5707H368.601V98.1239H371.179V99.1757ZM392.948 102V95.4831H394.953C395.526 95.4831 396.038 95.6129 396.489 95.8725C396.942 96.1291 397.296 96.4961 397.549 96.9736C397.803 97.448 397.93 97.9881 397.93 98.5938V98.8937C397.93 99.4995 397.804 100.038 397.554 100.51C397.306 100.981 396.956 101.347 396.502 101.606C396.048 101.866 395.537 101.997 394.967 102H392.948ZM394.291 96.5707V100.921H394.94C395.465 100.921 395.866 100.75 396.144 100.407C396.421 100.063 396.563 99.5726 396.569 98.934V98.5894C396.569 97.9269 396.432 97.4256 396.157 97.0854C395.883 96.7423 395.481 96.5707 394.953 96.5707H394.291Z" fill="white"/>
<g filter="url(#filter0_d)">
<path d="M50.53 260.85C48.8189 260.85 47.2178 260.508 45.7267 259.823C44.2356 259.139 42.9156 258.198 41.7667 257C40.6422 255.778 39.7622 254.36 39.1267 252.747C38.4911 251.133 38.1733 249.385 38.1733 247.503C38.1733 245.719 38.4911 244.044 39.1267 242.48C39.7622 240.891 40.6544 239.498 41.8033 238.3C42.9522 237.102 44.2967 236.161 45.8367 235.477C47.3767 234.792 49.0511 234.45 50.86 234.45C53.28 234.45 55.37 234.975 57.13 236.027C58.89 237.053 60.21 238.422 61.09 240.133L57.3133 242.92C56.6533 241.649 55.7244 240.671 54.5267 239.987C53.3533 239.278 52.07 238.923 50.6767 238.923C49.21 238.923 47.9144 239.327 46.79 240.133C45.69 240.94 44.8222 242.003 44.1867 243.323C43.5756 244.643 43.27 246.085 43.27 247.65C43.27 249.288 43.6 250.767 44.26 252.087C44.92 253.407 45.8244 254.458 46.9733 255.24C48.1467 255.998 49.4789 256.377 50.97 256.377C53.4878 256.377 55.7611 255.191 57.79 252.82V250.987H52.5467V247.283H61.97V260.667H57.79V257.733C55.6878 259.811 53.2678 260.85 50.53 260.85ZM74.679 261.033C72.5768 261.033 70.7679 260.581 69.2523 259.677C67.7612 258.748 66.6123 257.525 65.8057 256.01C64.999 254.494 64.5957 252.857 64.5957 251.097C64.5957 249.312 64.999 247.662 65.8057 246.147C66.6368 244.631 67.7979 243.421 69.289 242.517C70.8046 241.588 72.6012 241.123 74.679 241.123C76.7568 241.123 78.5412 241.588 80.0323 242.517C81.5479 243.421 82.709 244.631 83.5157 246.147C84.3223 247.662 84.7257 249.312 84.7257 251.097C84.7257 252.857 84.3223 254.494 83.5157 256.01C82.709 257.525 81.5479 258.748 80.0323 259.677C78.5412 260.581 76.7568 261.033 74.679 261.033ZM69.6557 251.097C69.6557 252.221 69.8757 253.223 70.3157 254.103C70.7557 254.959 71.3546 255.631 72.1123 256.12C72.8701 256.609 73.7257 256.853 74.679 256.853C75.6079 256.853 76.4512 256.609 77.209 256.12C77.9668 255.607 78.5657 254.922 79.0057 254.067C79.4701 253.187 79.7023 252.184 79.7023 251.06C79.7023 249.96 79.4701 248.982 79.0057 248.127C78.5657 247.247 77.9668 246.562 77.209 246.073C76.4512 245.56 75.6079 245.303 74.679 245.303C73.7257 245.303 72.8701 245.56 72.1123 246.073C71.3546 246.562 70.7557 247.247 70.3157 248.127C69.8757 248.982 69.6557 249.972 69.6557 251.097ZM107.777 261.033C106.311 261.033 105.003 260.703 103.854 260.043C102.705 259.383 101.801 258.479 101.141 257.33V260.667H96.8506V233.9H101.764V244.827C102.448 243.678 103.341 242.773 104.441 242.113C105.565 241.453 106.873 241.123 108.364 241.123C110.026 241.123 111.481 241.588 112.727 242.517C113.998 243.421 114.988 244.631 115.697 246.147C116.406 247.662 116.761 249.324 116.761 251.133C116.761 252.991 116.369 254.665 115.587 256.157C114.805 257.648 113.729 258.833 112.361 259.713C111.016 260.593 109.488 261.033 107.777 261.033ZM106.421 256.853C107.472 256.853 108.388 256.597 109.171 256.083C109.977 255.57 110.601 254.885 111.041 254.03C111.505 253.15 111.737 252.197 111.737 251.17C111.737 250.119 111.517 249.153 111.077 248.273C110.662 247.369 110.075 246.648 109.317 246.11C108.559 245.572 107.692 245.303 106.714 245.303C105.638 245.303 104.648 245.67 103.744 246.403C102.864 247.112 102.204 247.992 101.764 249.043V253.627C102.082 254.58 102.705 255.362 103.634 255.973C104.563 256.56 105.492 256.853 106.421 256.853ZM129 261.033C126.922 261.033 125.125 260.581 123.61 259.677C122.118 258.772 120.957 257.574 120.126 256.083C119.295 254.568 118.88 252.93 118.88 251.17C118.88 249.361 119.283 247.699 120.09 246.183C120.921 244.643 122.094 243.421 123.61 242.517C125.125 241.588 126.934 241.123 129.036 241.123C131.138 241.123 132.935 241.588 134.426 242.517C135.917 243.421 137.054 244.631 137.836 246.147C138.643 247.638 139.046 249.251 139.046 250.987C139.046 251.622 139.01 252.172 138.936 252.637H124.086C124.208 254.128 124.758 255.301 125.736 256.157C126.738 257.012 127.887 257.44 129.183 257.44C130.161 257.44 131.077 257.208 131.933 256.743C132.813 256.254 133.412 255.619 133.73 254.837L137.946 256.01C137.237 257.477 136.101 258.687 134.536 259.64C132.972 260.569 131.126 261.033 129 261.033ZM123.976 249.52H134.023C133.876 248.078 133.326 246.917 132.373 246.037C131.444 245.132 130.307 244.68 128.963 244.68C127.643 244.68 126.506 245.132 125.553 246.037C124.624 246.917 124.098 248.078 123.976 249.52ZM141.834 264.407C142.738 264.651 143.472 264.773 144.034 264.773C144.694 264.773 145.22 264.492 145.611 263.93C146.026 263.392 146.491 262.304 147.004 260.667L139.414 241.453H144.511L149.681 255.643L154.227 241.453H158.921L150.854 264.48C150.414 265.8 149.62 266.888 148.471 267.743C147.346 268.623 145.953 269.063 144.291 269.063C143.484 269.063 142.665 268.929 141.834 268.66V264.407ZM169.819 261.033C167.717 261.033 165.908 260.581 164.392 259.677C162.901 258.748 161.752 257.525 160.946 256.01C160.139 254.494 159.736 252.857 159.736 251.097C159.736 249.312 160.139 247.662 160.946 246.147C161.777 244.631 162.938 243.421 164.429 242.517C165.945 241.588 167.741 241.123 169.819 241.123C171.897 241.123 173.681 241.588 175.172 242.517C176.688 243.421 177.849 244.631 178.656 246.147C179.462 247.662 179.866 249.312 179.866 251.097C179.866 252.857 179.462 254.494 178.656 256.01C177.849 257.525 176.688 258.748 175.172 259.677C173.681 260.581 171.897 261.033 169.819 261.033ZM164.796 251.097C164.796 252.221 165.016 253.223 165.456 254.103C165.896 254.959 166.495 255.631 167.252 256.12C168.01 256.609 168.866 256.853 169.819 256.853C170.748 256.853 171.591 256.609 172.349 256.12C173.107 255.607 173.706 254.922 174.146 254.067C174.61 253.187 174.842 252.184 174.842 251.06C174.842 249.96 174.61 248.982 174.146 248.127C173.706 247.247 173.107 246.562 172.349 246.073C171.591 245.56 170.748 245.303 169.819 245.303C168.866 245.303 168.01 245.56 167.252 246.073C166.495 246.562 165.896 247.247 165.456 248.127C165.016 248.982 164.796 249.972 164.796 251.097ZM201.039 260.667H196.125V249.887C196.125 248.347 195.856 247.222 195.319 246.513C194.781 245.804 194.035 245.45 193.082 245.45C192.422 245.45 191.75 245.621 191.065 245.963C190.405 246.305 189.806 246.782 189.269 247.393C188.731 247.98 188.34 248.664 188.095 249.447V260.667H183.182V241.453H187.619V245.01C188.328 243.812 189.354 242.871 190.699 242.187C192.043 241.478 193.559 241.123 195.245 241.123C196.443 241.123 197.421 241.343 198.179 241.783C198.936 242.199 199.523 242.773 199.939 243.507C200.354 244.215 200.635 245.022 200.782 245.927C200.953 246.831 201.039 247.748 201.039 248.677V260.667ZM204.138 251.06C204.138 249.227 204.504 247.552 205.238 246.037C205.971 244.521 206.985 243.323 208.281 242.443C209.576 241.563 211.055 241.123 212.718 241.123C214.135 241.123 215.406 241.478 216.531 242.187C217.68 242.871 218.572 243.751 219.208 244.827V233.9H224.121V255.167C224.121 255.704 224.206 256.083 224.378 256.303C224.549 256.499 224.842 256.621 225.258 256.67V260.667C224.378 260.838 223.681 260.923 223.168 260.923C222.288 260.923 221.554 260.703 220.968 260.263C220.405 259.823 220.088 259.249 220.014 258.54L219.941 257.33C219.232 258.528 218.266 259.444 217.044 260.08C215.846 260.715 214.588 261.033 213.268 261.033C211.483 261.033 209.906 260.593 208.538 259.713C207.169 258.809 206.093 257.611 205.311 256.12C204.529 254.604 204.138 252.918 204.138 251.06ZM219.208 253.627V249.043C218.816 247.968 218.144 247.075 217.191 246.367C216.238 245.658 215.26 245.303 214.258 245.303C213.255 245.303 212.375 245.584 211.618 246.147C210.86 246.684 210.273 247.405 209.858 248.31C209.442 249.19 209.234 250.143 209.234 251.17C209.234 252.221 209.466 253.187 209.931 254.067C210.395 254.922 211.019 255.607 211.801 256.12C212.608 256.609 213.524 256.853 214.551 256.853C215.48 256.853 216.396 256.548 217.301 255.937C218.23 255.325 218.865 254.555 219.208 253.627ZM237.153 264.407C238.057 264.651 238.791 264.773 239.353 264.773C240.013 264.773 240.539 264.492 240.93 263.93C241.345 263.392 241.81 262.304 242.323 260.667L234.733 241.453H239.83L245 255.643L249.546 241.453H254.24L246.173 264.48C245.733 265.8 244.939 266.888 243.79 267.743C242.665 268.623 241.272 269.063 239.61 269.063C238.803 269.063 237.984 268.929 237.153 268.66V264.407ZM265.138 261.033C263.036 261.033 261.227 260.581 259.711 259.677C258.22 258.748 257.071 257.525 256.265 256.01C255.458 254.494 255.055 252.857 255.055 251.097C255.055 249.312 255.458 247.662 256.265 246.147C257.096 244.631 258.257 243.421 259.748 242.517C261.264 241.588 263.06 241.123 265.138 241.123C267.216 241.123 269 241.588 270.491 242.517C272.007 243.421 273.168 244.631 273.975 246.147C274.781 247.662 275.185 249.312 275.185 251.097C275.185 252.857 274.781 254.494 273.975 256.01C273.168 257.525 272.007 258.748 270.491 259.677C269 260.581 267.216 261.033 265.138 261.033ZM260.115 251.097C260.115 252.221 260.335 253.223 260.775 254.103C261.215 254.959 261.814 255.631 262.571 256.12C263.329 256.609 264.185 256.853 265.138 256.853C266.067 256.853 266.91 256.609 267.668 256.12C268.426 255.607 269.025 254.922 269.465 254.067C269.929 253.187 270.161 252.184 270.161 251.06C270.161 249.96 269.929 248.982 269.465 248.127C269.025 247.247 268.426 246.562 267.668 246.073C266.91 245.56 266.067 245.303 265.138 245.303C264.185 245.303 263.329 245.56 262.571 246.073C261.814 246.562 261.215 247.247 260.775 248.127C260.335 248.982 260.115 249.972 260.115 251.097ZM278.318 253.48V241.453H283.231V252.417C283.231 255.374 284.294 256.853 286.421 256.853C287.374 256.853 288.291 256.572 289.171 256.01C290.075 255.423 290.809 254.543 291.371 253.37V241.453H296.284V255.167C296.284 255.704 296.37 256.083 296.541 256.303C296.712 256.499 297.018 256.621 297.458 256.67V260.667C296.969 260.764 296.553 260.825 296.211 260.85C295.893 260.874 295.6 260.887 295.331 260.887C294.451 260.887 293.73 260.691 293.168 260.3C292.63 259.884 292.312 259.322 292.214 258.613L292.104 257.073C291.249 258.393 290.149 259.383 288.804 260.043C287.46 260.703 285.981 261.033 284.368 261.033C282.388 261.033 280.884 260.398 279.858 259.127C278.831 257.831 278.318 255.949 278.318 253.48ZM312.607 245.707C311.116 245.707 309.784 246 308.61 246.587C307.437 247.149 306.594 247.968 306.08 249.043V260.667H301.167V241.453H305.677V245.56C306.337 244.24 307.193 243.201 308.244 242.443C309.319 241.685 310.444 241.27 311.617 241.197C312.13 241.197 312.46 241.209 312.607 241.233V245.707ZM334.258 261.033C332.792 261.033 331.484 260.703 330.335 260.043C329.186 259.383 328.282 258.479 327.622 257.33V260.667H323.332V233.9H328.245V244.827C328.929 243.678 329.822 242.773 330.922 242.113C332.046 241.453 333.354 241.123 334.845 241.123C336.507 241.123 337.962 241.588 339.208 242.517C340.479 243.421 341.469 244.631 342.178 246.147C342.887 247.662 343.242 249.324 343.242 251.133C343.242 252.991 342.851 254.665 342.068 256.157C341.286 257.648 340.211 258.833 338.842 259.713C337.497 260.593 335.969 261.033 334.258 261.033ZM332.902 256.853C333.953 256.853 334.869 256.597 335.652 256.083C336.458 255.57 337.082 254.885 337.522 254.03C337.986 253.15 338.218 252.197 338.218 251.17C338.218 250.119 337.998 249.153 337.558 248.273C337.143 247.369 336.556 246.648 335.798 246.11C335.041 245.572 334.173 245.303 333.195 245.303C332.119 245.303 331.129 245.67 330.225 246.403C329.345 247.112 328.685 247.992 328.245 249.043V253.627C328.563 254.58 329.186 255.362 330.115 255.973C331.044 256.56 331.973 256.853 332.902 256.853ZM355.444 261.033C353.342 261.033 351.533 260.581 350.017 259.677C348.526 258.748 347.377 257.525 346.571 256.01C345.764 254.494 345.361 252.857 345.361 251.097C345.361 249.312 345.764 247.662 346.571 246.147C347.402 244.631 348.563 243.421 350.054 242.517C351.57 241.588 353.366 241.123 355.444 241.123C357.522 241.123 359.306 241.588 360.797 242.517C362.313 243.421 363.474 244.631 364.281 246.147C365.087 247.662 365.491 249.312 365.491 251.097C365.491 252.857 365.087 254.494 364.281 256.01C363.474 257.525 362.313 258.748 360.797 259.677C359.306 260.581 357.522 261.033 355.444 261.033ZM350.421 251.097C350.421 252.221 350.641 253.223 351.081 254.103C351.521 254.959 352.12 255.631 352.877 256.12C353.635 256.609 354.491 256.853 355.444 256.853C356.373 256.853 357.216 256.609 357.974 256.12C358.732 255.607 359.331 254.922 359.771 254.067C360.235 253.187 360.467 252.184 360.467 251.06C360.467 249.96 360.235 248.982 359.771 248.127C359.331 247.247 358.732 246.562 357.974 246.073C357.216 245.56 356.373 245.303 355.444 245.303C354.491 245.303 353.635 245.56 352.877 246.073C352.12 246.562 351.521 247.247 351.081 248.127C350.641 248.982 350.421 249.972 350.421 251.097ZM368.624 253.48V241.453H373.537V252.417C373.537 255.374 374.6 256.853 376.727 256.853C377.68 256.853 378.597 256.572 379.477 256.01C380.381 255.423 381.115 254.543 381.677 253.37V241.453H386.59V255.167C386.59 255.704 386.676 256.083 386.847 256.303C387.018 256.499 387.324 256.621 387.764 256.67V260.667C387.275 260.764 386.859 260.825 386.517 260.85C386.199 260.874 385.906 260.887 385.637 260.887C384.757 260.887 384.036 260.691 383.474 260.3C382.936 259.884 382.618 259.322 382.52 258.613L382.41 257.073C381.555 258.393 380.455 259.383 379.11 260.043C377.766 260.703 376.287 261.033 374.674 261.033C372.694 261.033 371.19 260.398 370.164 259.127C369.137 257.831 368.624 255.949 368.624 253.48ZM409.33 260.667H404.416V249.887C404.416 248.347 404.147 247.222 403.61 246.513C403.072 245.804 402.326 245.45 401.373 245.45C400.713 245.45 400.041 245.621 399.356 245.963C398.696 246.305 398.097 246.782 397.56 247.393C397.022 247.98 396.631 248.664 396.386 249.447V260.667H391.473V241.453H395.91V245.01C396.619 243.812 397.645 242.871 398.99 242.187C400.334 241.478 401.85 241.123 403.536 241.123C404.734 241.123 405.712 241.343 406.47 241.783C407.227 242.199 407.814 242.773 408.23 243.507C408.645 244.215 408.926 245.022 409.073 245.927C409.244 246.831 409.33 247.748 409.33 248.677V260.667ZM412.429 251.06C412.429 249.227 412.795 247.552 413.529 246.037C414.262 244.521 415.276 243.323 416.572 242.443C417.867 241.563 419.346 241.123 421.009 241.123C422.426 241.123 423.697 241.478 424.822 242.187C425.971 242.871 426.863 243.751 427.499 244.827V233.9H432.412V255.167C432.412 255.704 432.497 256.083 432.669 256.303C432.84 256.499 433.133 256.621 433.549 256.67V260.667C432.669 260.838 431.972 260.923 431.459 260.923C430.579 260.923 429.845 260.703 429.259 260.263C428.696 259.823 428.379 259.249 428.305 258.54L428.232 257.33C427.523 258.528 426.557 259.444 425.335 260.08C424.137 260.715 422.879 261.033 421.559 261.033C419.774 261.033 418.197 260.593 416.829 259.713C415.46 258.809 414.384 257.611 413.602 256.12C412.82 254.604 412.429 252.918 412.429 251.06ZM427.499 253.627V249.043C427.107 247.968 426.435 247.075 425.482 246.367C424.529 245.658 423.551 245.303 422.549 245.303C421.546 245.303 420.666 245.584 419.909 246.147C419.151 246.684 418.564 247.405 418.149 248.31C417.733 249.19 417.525 250.143 417.525 251.17C417.525 252.221 417.757 253.187 418.222 254.067C418.686 254.922 419.31 255.607 420.092 256.12C420.899 256.609 421.815 256.853 422.842 256.853C423.771 256.853 424.687 256.548 425.592 255.937C426.521 255.325 427.156 254.555 427.499 253.627ZM60.6867 296.957C60.6867 298.423 60.3078 299.658 59.55 300.66C58.7922 301.638 57.7656 302.383 56.47 302.897C55.1989 303.41 53.8056 303.667 52.29 303.667H39.7133V277.633H53.6467C54.8689 277.633 55.92 277.963 56.8 278.623C57.68 279.259 58.3644 280.09 58.8533 281.117C59.3422 282.143 59.5867 283.194 59.5867 284.27C59.5867 285.541 59.2689 286.739 58.6333 287.863C57.9978 288.963 57.0689 289.782 55.8467 290.32C57.3378 290.76 58.5111 291.554 59.3667 292.703C60.2467 293.852 60.6867 295.27 60.6867 296.957ZM44.7733 281.96V288.523H51.52C52.3511 288.523 53.0722 288.23 53.6833 287.643C54.2944 287.057 54.6 286.25 54.6 285.223C54.6 284.245 54.3189 283.463 53.7567 282.877C53.2189 282.265 52.5467 281.96 51.74 281.96H44.7733ZM55.59 296.003C55.59 295.05 55.2967 294.231 54.71 293.547C54.1233 292.862 53.4022 292.52 52.5467 292.52H44.7733V299.377H52.29C53.2189 299.377 54.0011 299.047 54.6367 298.387C55.2722 297.727 55.59 296.932 55.59 296.003ZM73.0685 304.033C70.9908 304.033 69.1941 303.581 67.6785 302.677C66.1874 301.772 65.0263 300.574 64.1952 299.083C63.3641 297.568 62.9485 295.93 62.9485 294.17C62.9485 292.361 63.3519 290.699 64.1585 289.183C64.9897 287.643 66.163 286.421 67.6785 285.517C69.1941 284.588 71.003 284.123 73.1052 284.123C75.2074 284.123 77.0041 284.588 78.4952 285.517C79.9863 286.421 81.123 287.631 81.9052 289.147C82.7119 290.638 83.1152 292.251 83.1152 293.987C83.1152 294.622 83.0785 295.172 83.0052 295.637H68.1552C68.2774 297.128 68.8274 298.301 69.8052 299.157C70.8074 300.012 71.9563 300.44 73.2519 300.44C74.2297 300.44 75.1463 300.208 76.0019 299.743C76.8819 299.254 77.4808 298.619 77.7985 297.837L82.0152 299.01C81.3063 300.477 80.1697 301.687 78.6052 302.64C77.0408 303.569 75.1952 304.033 73.0685 304.033ZM68.0452 292.52H78.0919C77.9452 291.078 77.3952 289.917 76.4419 289.037C75.513 288.132 74.3763 287.68 73.0319 287.68C71.7119 287.68 70.5752 288.132 69.6219 289.037C68.693 289.917 68.1674 291.078 68.0452 292.52ZM103.864 304.033C101.786 304.033 99.9892 303.569 98.4737 302.64C96.9581 301.711 95.7848 300.489 94.9537 298.973C94.1226 297.458 93.707 295.82 93.707 294.06C93.707 292.275 94.1103 290.625 94.917 289.11C95.7481 287.594 96.9214 286.384 98.437 285.48C99.9526 284.575 101.749 284.123 103.827 284.123C105.929 284.123 107.714 284.575 109.18 285.48C110.671 286.384 111.784 287.57 112.517 289.037L107.714 290.503C106.858 289.037 105.55 288.303 103.79 288.303C102.837 288.303 101.981 288.548 101.224 289.037C100.466 289.501 99.867 290.173 99.427 291.053C98.987 291.909 98.767 292.911 98.767 294.06C98.767 295.184 98.987 296.187 99.427 297.067C99.8914 297.922 100.503 298.607 101.26 299.12C102.018 299.609 102.861 299.853 103.79 299.853C104.67 299.853 105.477 299.645 106.21 299.23C106.968 298.79 107.494 298.24 107.787 297.58L112.59 299.047C111.93 300.489 110.83 301.687 109.29 302.64C107.775 303.569 105.966 304.033 103.864 304.033ZM124.308 304.033C122.206 304.033 120.397 303.581 118.881 302.677C117.39 301.748 116.241 300.525 115.435 299.01C114.628 297.494 114.225 295.857 114.225 294.097C114.225 292.312 114.628 290.662 115.435 289.147C116.266 287.631 117.427 286.421 118.918 285.517C120.433 284.588 122.23 284.123 124.308 284.123C126.386 284.123 128.17 284.588 129.661 285.517C131.177 286.421 132.338 287.631 133.145 289.147C133.951 290.662 134.355 292.312 134.355 294.097C134.355 295.857 133.951 297.494 133.145 299.01C132.338 300.525 131.177 301.748 129.661 302.677C128.17 303.581 126.386 304.033 124.308 304.033ZM119.285 294.097C119.285 295.221 119.505 296.223 119.945 297.103C120.385 297.959 120.983 298.631 121.741 299.12C122.499 299.609 123.355 299.853 124.308 299.853C125.237 299.853 126.08 299.609 126.838 299.12C127.596 298.607 128.195 297.922 128.635 297.067C129.099 296.187 129.331 295.184 129.331 294.06C129.331 292.96 129.099 291.982 128.635 291.127C128.195 290.247 127.596 289.562 126.838 289.073C126.08 288.56 125.237 288.303 124.308 288.303C123.355 288.303 122.499 288.56 121.741 289.073C120.983 289.562 120.385 290.247 119.945 291.127C119.505 291.982 119.285 292.972 119.285 294.097ZM167.518 303.667H162.604V292.887C162.604 291.371 162.335 290.259 161.798 289.55C161.284 288.817 160.563 288.45 159.634 288.45C158.656 288.45 157.74 288.829 156.884 289.587C156.029 290.32 155.418 291.285 155.051 292.483V303.667H150.138V292.887C150.138 291.347 149.869 290.222 149.331 289.513C148.818 288.804 148.096 288.45 147.168 288.45C146.214 288.45 145.298 288.817 144.418 289.55C143.562 290.283 142.951 291.249 142.584 292.447V303.667H137.671V284.453H142.108V288.01C142.816 286.763 143.782 285.81 145.004 285.15C146.251 284.465 147.669 284.123 149.258 284.123C150.846 284.123 152.081 284.514 152.961 285.297C153.865 286.079 154.44 287.044 154.684 288.193C155.442 286.873 156.432 285.871 157.654 285.187C158.876 284.478 160.245 284.123 161.761 284.123C162.959 284.123 163.924 284.343 164.658 284.783C165.415 285.199 166.002 285.773 166.418 286.507C166.833 287.215 167.114 288.022 167.261 288.927C167.432 289.831 167.518 290.748 167.518 291.677V303.667ZM183.309 304.033C181.793 304.033 180.473 303.691 179.349 303.007C178.224 302.322 177.344 301.418 176.709 300.293V311.477H171.795V284.453H176.085V287.753C176.794 286.629 177.711 285.749 178.835 285.113C179.984 284.453 181.28 284.123 182.722 284.123C184.457 284.123 185.997 284.575 187.342 285.48C188.686 286.36 189.75 287.558 190.532 289.073C191.314 290.564 191.705 292.214 191.705 294.023C191.705 295.905 191.339 297.604 190.605 299.12C189.896 300.611 188.906 301.809 187.635 302.713C186.389 303.593 184.946 304.033 183.309 304.033ZM181.659 299.853C182.661 299.853 183.529 299.584 184.262 299.047C185.02 298.484 185.606 297.763 186.022 296.883C186.462 295.979 186.682 295.025 186.682 294.023C186.682 292.948 186.45 291.982 185.985 291.127C185.521 290.247 184.885 289.562 184.079 289.073C183.296 288.56 182.392 288.303 181.365 288.303C180.436 288.303 179.507 288.609 178.579 289.22C177.65 289.831 177.026 290.601 176.709 291.53V296.04C177.149 297.115 177.821 298.02 178.725 298.753C179.63 299.487 180.607 299.853 181.659 299.853ZM203.944 304.033C201.866 304.033 200.07 303.581 198.554 302.677C197.063 301.772 195.902 300.574 195.071 299.083C194.24 297.568 193.824 295.93 193.824 294.17C193.824 292.361 194.228 290.699 195.034 289.183C195.865 287.643 197.039 286.421 198.554 285.517C200.07 284.588 201.879 284.123 203.981 284.123C206.083 284.123 207.88 284.588 209.371 285.517C210.862 286.421 211.999 287.631 212.781 289.147C213.588 290.638 213.991 292.251 213.991 293.987C213.991 294.622 213.954 295.172 213.881 295.637H199.031C199.153 297.128 199.703 298.301 200.681 299.157C201.683 300.012 202.832 300.44 204.128 300.44C205.105 300.44 206.022 300.208 206.878 299.743C207.758 299.254 208.356 298.619 208.674 297.837L212.891 299.01C212.182 300.477 211.045 301.687 209.481 302.64C207.916 303.569 206.071 304.033 203.944 304.033ZM198.921 292.52H208.968C208.821 291.078 208.271 289.917 207.318 289.037C206.389 288.132 205.252 287.68 203.908 287.68C202.588 287.68 201.451 288.132 200.498 289.037C199.569 289.917 199.043 291.078 198.921 292.52ZM228.318 302.677C227.658 302.97 226.839 303.263 225.862 303.557C224.908 303.85 223.918 303.997 222.892 303.997C221.987 303.997 221.156 303.838 220.398 303.52C219.641 303.202 219.029 302.701 218.565 302.017C218.125 301.308 217.905 300.391 217.905 299.267V288.23H215.375V284.453H217.905V278.22H222.818V284.453H226.852V288.23H222.818V297.617C222.818 298.277 222.989 298.753 223.332 299.047C223.698 299.34 224.138 299.487 224.652 299.487C225.165 299.487 225.666 299.401 226.155 299.23C226.644 299.059 227.035 298.912 227.328 298.79L228.318 302.677ZM230.877 281.777V276.9H235.791V281.777H230.877ZM230.877 303.667V284.453H235.791V303.667H230.877ZM251.736 302.677C251.076 302.97 250.257 303.263 249.28 303.557C248.326 303.85 247.336 303.997 246.31 303.997C245.405 303.997 244.574 303.838 243.816 303.52C243.059 303.202 242.447 302.701 241.983 302.017C241.543 301.308 241.323 300.391 241.323 299.267V288.23H238.793V284.453H241.323V278.22H246.236V284.453H250.27V288.23H246.236V297.617C246.236 298.277 246.407 298.753 246.75 299.047C247.116 299.34 247.556 299.487 248.07 299.487C248.583 299.487 249.084 299.401 249.573 299.23C250.062 299.059 250.453 298.912 250.746 298.79L251.736 302.677ZM254.295 281.777V276.9H259.209V281.777H254.295ZM254.295 303.667V284.453H259.209V303.667H254.295ZM268.811 303.667L261.734 284.453H266.831L271.671 299.193L276.548 284.453H281.204L274.164 303.667H268.811ZM292.066 304.033C289.988 304.033 288.191 303.581 286.676 302.677C285.185 301.772 284.024 300.574 283.193 299.083C282.361 297.568 281.946 295.93 281.946 294.17C281.946 292.361 282.349 290.699 283.156 289.183C283.987 287.643 285.16 286.421 286.676 285.517C288.191 284.588 290 284.123 292.103 284.123C294.205 284.123 296.001 284.588 297.493 285.517C298.984 286.421 300.12 287.631 300.903 289.147C301.709 290.638 302.113 292.251 302.113 293.987C302.113 294.622 302.076 295.172 302.003 295.637H287.153C287.275 297.128 287.825 298.301 288.803 299.157C289.805 300.012 290.954 300.44 292.249 300.44C293.227 300.44 294.144 300.208 294.999 299.743C295.879 299.254 296.478 298.619 296.796 297.837L301.013 299.01C300.304 300.477 299.167 301.687 297.603 302.64C296.038 303.569 294.193 304.033 292.066 304.033ZM287.043 292.52H297.089C296.943 291.078 296.393 289.917 295.439 289.037C294.51 288.132 293.374 287.68 292.029 287.68C290.709 287.68 289.573 288.132 288.619 289.037C287.69 289.917 287.165 291.078 287.043 292.52ZM304.996 303.667V298.387H309.029V303.667H304.996Z" fill="white"/>
<path d="M435.915 254.983C435.915 253.737 436.257 252.649 436.941 251.72C437.65 250.767 438.628 250.033 439.875 249.52C441.121 249.007 442.551 248.75 444.165 248.75C444.971 248.75 445.79 248.823 446.621 248.97C447.452 249.092 448.174 249.275 448.785 249.52V248.493C448.785 247.271 448.418 246.33 447.685 245.67C446.976 245.01 445.912 244.68 444.495 244.68C443.444 244.68 442.441 244.863 441.488 245.23C440.535 245.597 439.532 246.134 438.481 246.843L436.905 243.617C438.176 242.785 439.471 242.162 440.791 241.747C442.136 241.331 443.541 241.123 445.008 241.123C447.746 241.123 449.872 241.808 451.388 243.177C452.928 244.545 453.698 246.501 453.698 249.043V255.167C453.698 255.704 453.784 256.083 453.955 256.303C454.126 256.499 454.431 256.621 454.871 256.67V260.667C454.431 260.764 454.028 260.825 453.661 260.85C453.319 260.899 453.026 260.923 452.781 260.923C451.804 260.923 451.058 260.703 450.545 260.263C450.031 259.823 449.726 259.285 449.628 258.65L449.518 257.66C448.662 258.76 447.611 259.603 446.365 260.19C445.142 260.752 443.884 261.033 442.588 261.033C441.292 261.033 440.144 260.777 439.141 260.263C438.139 259.725 437.345 259.004 436.758 258.1C436.196 257.171 435.915 256.132 435.915 254.983ZM447.868 255.973C448.479 255.387 448.785 254.824 448.785 254.287V252.343C447.514 251.83 446.23 251.573 444.935 251.573C443.639 251.573 442.588 251.854 441.781 252.417C440.975 252.954 440.571 253.675 440.571 254.58C440.571 255.313 440.865 255.973 441.451 256.56C442.038 257.147 442.881 257.44 443.981 257.44C444.715 257.44 445.424 257.305 446.108 257.037C446.817 256.768 447.404 256.413 447.868 255.973ZM469.729 245.707C468.238 245.707 466.906 246 465.733 246.587C464.559 247.149 463.716 247.968 463.203 249.043V260.667H458.289V241.453H462.799V245.56C463.459 244.24 464.315 243.201 465.366 242.443C466.442 241.685 467.566 241.27 468.739 241.197C469.253 241.197 469.583 241.209 469.729 241.233V245.707ZM472.469 238.777V233.9H477.382V238.777H472.469ZM472.469 260.667V241.453H477.382V260.667H472.469ZM490.725 261.033C488.647 261.033 486.85 260.581 485.335 259.677C483.844 258.772 482.683 257.574 481.851 256.083C481.02 254.568 480.605 252.93 480.605 251.17C480.605 249.361 481.008 247.699 481.815 246.183C482.646 244.643 483.819 243.421 485.335 242.517C486.85 241.588 488.659 241.123 490.761 241.123C492.864 241.123 494.66 241.588 496.151 242.517C497.643 243.421 498.779 244.631 499.561 246.147C500.368 247.638 500.771 249.251 500.771 250.987C500.771 251.622 500.735 252.172 500.661 252.637H485.811C485.934 254.128 486.484 255.301 487.461 256.157C488.464 257.012 489.613 257.44 490.908 257.44C491.886 257.44 492.803 257.208 493.658 256.743C494.538 256.254 495.137 255.619 495.455 254.837L499.671 256.01C498.963 257.477 497.826 258.687 496.261 259.64C494.697 260.569 492.851 261.033 490.725 261.033ZM485.701 249.52H495.748C495.601 248.078 495.051 246.917 494.098 246.037C493.169 245.132 492.033 244.68 490.688 244.68C489.368 244.68 488.231 245.132 487.278 246.037C486.349 246.917 485.824 248.078 485.701 249.52ZM510.841 261.033C509.204 261.033 507.639 260.764 506.148 260.227C504.657 259.689 503.374 258.894 502.298 257.843L504.058 254.653C505.207 255.582 506.331 256.267 507.431 256.707C508.531 257.147 509.607 257.367 510.658 257.367C511.611 257.367 512.369 257.195 512.931 256.853C513.518 256.511 513.811 255.998 513.811 255.313C513.811 254.604 513.457 254.128 512.748 253.883C512.039 253.614 511.049 253.284 509.778 252.893C508.36 252.453 507.175 252.001 506.221 251.537C505.268 251.072 504.547 250.51 504.058 249.85C503.594 249.19 503.361 248.334 503.361 247.283C503.361 245.401 504.07 243.898 505.488 242.773C506.906 241.649 508.788 241.087 511.135 241.087C512.504 241.087 513.799 241.307 515.021 241.747C516.244 242.162 517.356 242.847 518.358 243.8L516.378 246.917C514.496 245.45 512.675 244.717 510.915 244.717C510.132 244.717 509.436 244.863 508.825 245.157C508.238 245.45 507.945 245.963 507.945 246.697C507.945 247.381 508.226 247.87 508.788 248.163C509.375 248.457 510.255 248.774 511.428 249.117C512.944 249.581 514.227 250.033 515.278 250.473C516.354 250.913 517.16 251.475 517.698 252.16C518.26 252.844 518.541 253.773 518.541 254.947C518.541 256.853 517.845 258.344 516.451 259.42C515.058 260.495 513.188 261.033 510.841 261.033ZM521.773 260.667V255.387H525.806V260.667H521.773Z" fill="#3498DB"/>
</g>
<defs>
<filter id="filter0_d" x="0.0527725" y="195.779" width="563.874" height="153.818" filterUnits="userSpaceOnUse" color-interpolation-filters="sRGB">
<feFlood flood-opacity="0" result="BackgroundImageFix"/>
<feColorMatrix in="SourceAlpha" type="matrix" values="0 0 0 0 0 0 0 0 0 0 0 0 0 0 0 0 0 0 127 0"/>
<feOffset/>
<feGaussianBlur stdDeviation="19.0603"/>
<feColorMatrix type="matrix" values="0 0 0 0 0.203922 0 0 0 0 0.596078 0 0 0 0 0.858824 0 0 0 1 0"/>
<feBlend mode="normal" in2="BackgroundImageFix" result="effect1_dropShadow"/>
<feBlend mode="normal" in="SourceGraphic" in2="effect1_dropShadow" result="shape"/>
</filter>
<linearGradient id="paint0_linear" x1="50.3333" y1="135.833" x2="464.948" y2="126.356" gradientUnits="userSpaceOnUse">
<stop stop-color="#3D9EDE"/>
<stop offset="1" stop-color="#079BFF" stop-opacity="0"/>
</linearGradient>
</defs>
</svg>
