<svg width="216" height="156" viewBox="0 0 216 156" fill="none" xmlns="http://www.w3.org/2000/svg">
<path d="M216 133.606H0V133.709H216V133.606Z" fill="#3498DB"/>
<path d="M181.35 138.534H166.489V138.636H181.35V138.534Z" fill="#3498DB"/>
<path d="M114.865 138.719H110.424V138.821H114.865V138.719Z" fill="#3498DB"/>
<path d="M161.975 137.079H153.611V137.181H161.975V137.079Z" fill="#3498DB"/>
<path d="M42.3877 137.319H31.2939V137.422H42.3877V137.319Z" fill="#3498DB"/>
<path d="M30.8624 138.771H23.2852V138.873H30.8624V138.771Z" fill="#3498DB"/>
<path d="M98.5469 136.288H58.0771V136.39H98.5469V136.288Z" fill="#3498DB"/>
<path d="M102.384 115.407H18.9692C18.3158 115.406 17.6895 115.16 17.2278 114.723C16.7661 114.286 16.5068 113.694 16.5068 113.076V2.30977C16.5125 1.69601 16.7743 1.10917 17.2354 0.676695C17.6964 0.244222 18.3195 0.00105139 18.9692 0H102.384C103.038 0 103.666 0.245499 104.128 0.682491C104.591 1.11948 104.851 1.71217 104.851 2.33017V113.076C104.851 113.694 104.591 114.287 104.128 114.724C103.666 115.161 103.038 115.407 102.384 115.407V115.407ZM18.9692 0.0816175C18.3444 0.0826985 17.7456 0.317925 17.3042 0.735667C16.8627 1.15341 16.6148 1.71953 16.6148 2.30977V113.076C16.6148 113.667 16.8627 114.233 17.3042 114.651C17.7456 115.068 18.3444 115.304 18.9692 115.305H102.384C103.009 115.304 103.609 115.068 104.051 114.651C104.493 114.233 104.742 113.667 104.743 113.076V2.30977C104.742 1.71916 104.493 1.15304 104.051 0.735418C103.609 0.317793 103.009 0.0826962 102.384 0.0816175H18.9692Z" fill="#3498DB"/>
<path d="M195.829 115.407H112.41C111.756 115.406 111.129 115.16 110.667 114.723C110.205 114.286 109.945 113.694 109.943 113.076V2.30977C109.95 1.69564 110.213 1.1088 110.675 0.67644C111.136 0.24408 111.76 0.00103992 112.41 0H195.829C196.478 0.00212388 197.1 0.245769 197.56 0.678128C198.02 1.11049 198.282 1.69672 198.287 2.30977V113.076C198.287 113.693 198.029 114.285 197.568 114.721C197.107 115.158 196.482 115.405 195.829 115.407V115.407ZM112.41 0.0816175C111.785 0.0826962 111.186 0.317793 110.743 0.735418C110.301 1.15304 110.053 1.71916 110.051 2.30977V113.076C110.053 113.667 110.301 114.233 110.743 114.651C111.186 115.068 111.785 115.304 112.41 115.305H195.829C196.455 115.304 197.054 115.068 197.496 114.651C197.938 114.233 198.187 113.667 198.188 113.076V2.30977C198.187 1.71916 197.938 1.15304 197.496 0.735418C197.054 0.317793 196.455 0.0826962 195.829 0.0816175H112.41Z" fill="#3498DB"/>
<path d="M124.108 83.1191L125.072 82.6416L126.031 83.1191V133.607H124.108V83.1191Z" fill="#3498DB"/>
<path d="M135.213 83.1191L136.176 82.6416L137.135 83.1191V133.607H135.213V83.1191Z" fill="#3498DB"/>
<path d="M146.315 83.1191L147.279 82.6416L148.238 83.1191V133.607H146.315V83.1191Z" fill="#3498DB"/>
<path d="M157.417 83.1191L158.38 82.6416L159.339 83.1191V133.607H157.417V83.1191Z" fill="#3498DB"/>
<path d="M168.522 83.1191L169.482 82.6416L170.445 83.1191V133.607H168.522V83.1191Z" fill="#3498DB"/>
<path d="M179.625 83.1191L180.584 82.6416L181.547 83.1191V133.607H179.625V83.1191Z" fill="#3498DB"/>
<path d="M190.729 83.1191L191.689 82.6416L192.652 83.1191V133.607H190.729V83.1191Z" fill="#3498DB"/>
<path d="M125.074 91.2197L191.688 91.2197V89.5874L125.074 89.5874V91.2197Z" fill="#3498DB"/>
<path d="M125.074 125.498L191.688 125.498V123.866L125.074 123.866V125.498Z" fill="#3498DB"/>
<path d="M94.6436 35.9517V25.623L60.9692 25.623V35.9517H94.6436Z" fill="#3498DB"/>
<path d="M94.6436 108.387V85.7949H60.9692V108.387H94.6436Z" fill="#3498DB"/>
<path d="M60.9686 82.8828H76.1836V38.7891H60.9686L60.9686 82.8828Z" fill="#3498DB"/>
<path d="M79.4285 82.8828H94.6436V38.7891H79.4285V82.8828Z" fill="#3498DB"/>
<path d="M98.0127 114.267V19.6973H97.3949V114.267H98.0127Z" fill="#3498DB"/>
<path d="M94.644 62.8856C94.644 63.2641 94.5251 63.6342 94.3025 63.9489C94.0799 64.2637 93.7634 64.509 93.3932 64.6538C93.023 64.7987 92.6156 64.8366 92.2226 64.7628C91.8296 64.6889 91.4686 64.5066 91.1852 64.239C90.9019 63.9713 90.7089 63.6303 90.6307 63.259C90.5526 62.8877 90.5927 62.5029 90.746 62.1532C90.8994 61.8035 91.1591 61.5045 91.4922 61.2942C91.8254 61.0839 92.2172 60.9717 92.6179 60.9717C93.1549 60.9728 93.6696 61.1747 94.0493 61.5334C94.429 61.8921 94.6428 62.3783 94.644 62.8856Z" fill="#3498DB"/>
<path d="M95.4368 62.4901C95.4376 62.8698 95.3192 63.2412 95.0964 63.5572C94.8736 63.8733 94.5566 64.1197 94.1854 64.2654C93.8142 64.4111 93.4056 64.4494 93.0113 64.3755C92.6171 64.3016 92.2549 64.1189 91.9707 63.8504C91.6865 63.5819 91.493 63.2398 91.4148 62.8674C91.3366 62.4949 91.3771 62.1089 91.5314 61.7583C91.6856 61.4077 91.9465 61.1082 92.281 60.8977C92.6156 60.6873 93.0087 60.5754 93.4107 60.5762C93.948 60.5762 94.4634 60.7778 94.8433 61.1368C95.2233 61.4957 95.4368 61.9825 95.4368 62.4901V62.4901Z" fill="#3498DB"/>
<path d="M62.0178 116.516H52.9717V125.061H62.0178V116.516Z" fill="#3498DB"/>
<path d="M62.0191 125.058H109.457V116.512H62.0191V125.058Z" fill="#3498DB"/>
<path d="M71.0638 125.062H52.9717V133.607H71.0638V125.062Z" fill="#3498DB"/>
<path d="M71.063 133.606H118.501V125.061H71.063V133.606Z" fill="#3498DB"/>
<path d="M136.188 17.4502H114.864V70.3218H136.188V17.4502Z" fill="#3498DB"/>
<path d="M137.489 17.4502H116.165V70.3218H137.489V17.4502Z" fill="#3498DB"/>
<path d="M135.151 67.837V19.9277H118.506V67.837H135.151Z" fill="white"/>
<path d="M135.151 67.84V19.9307H134.166V67.84H135.151Z" fill="#3498DB"/>
<path d="M136.519 52.9492H117.131V56.2792H136.519V52.9492Z" fill="#3498DB"/>
<path d="M164.939 17.4502H143.615V70.3218H164.939V17.4502Z" fill="#3498DB"/>
<path d="M166.237 17.4502H144.913V70.3218H166.237V17.4502Z" fill="#3498DB"/>
<path d="M165.269 52.9492H145.881V56.2792H165.269V52.9492Z" fill="#3498DB"/>
<path d="M192.646 67.84V19.9307H191.661V67.84H192.646Z" fill="#3498DB"/>
<path d="M194.021 52.9492H174.633V56.2792H194.021V52.9492Z" fill="#3498DB"/>
<path d="M43.5713 67.84V19.9307H42.5863V67.84H43.5713Z" fill="#3498DB"/>
<path d="M44.9458 52.9492H25.5576V56.2792H44.9458V52.9492Z" fill="#3498DB"/>
<path d="M52.9766 7.95801V13.2631H56.5924L52.9766 7.95801Z" fill="#3498DB"/>
<path d="M107.999 152.038C154.258 152.038 191.759 149.97 191.759 147.418C191.759 144.867 154.258 142.799 107.999 142.799C61.7391 142.799 24.2383 144.867 24.2383 147.418C24.2383 149.97 61.7391 152.038 107.999 152.038Z" fill="#F5F5F5"/>
<path d="M110.104 139.999L146.081 141.476L140.892 30.448L104.911 28.9707L110.104 139.999Z" fill="#3498DB"/>
<path opacity="0.6" d="M110.104 139.999L146.081 141.476L140.892 30.448L104.911 28.9707L110.104 139.999Z" fill="black"/>
<path d="M74.4856 146.23L110.104 139.999L104.911 28.9707L69.293 35.2022L74.4856 146.23Z" fill="#3498DB"/>
<path opacity="0.6" d="M74.4856 146.23L110.104 139.999L104.911 28.9707L69.293 35.2022L74.4856 146.23Z" fill="black"/>
<path d="M38.5022 144.753L74.4835 146.23L69.2909 35.2019L33.3096 33.7246L38.5022 144.753Z" fill="#3498DB"/>
<path opacity="0.6" d="M38.5022 144.753L74.4835 146.23L69.2909 35.2019L33.3096 33.7246L38.5022 144.753Z" fill="black"/>
<path d="M50.1473 32.364L50.1299 32.7432L57.3116 33.0382L57.329 32.659L50.1473 32.364Z" fill="#3498DB"/>
<path d="M33.9551 82.6385L33.5537 82.6553L33.6758 85.2645L34.0771 85.2477L33.9551 82.6385Z" fill="#3498DB"/>
<path d="M34.1748 87.1727L33.7734 87.1895L34.048 93.0602L34.4494 93.0434L34.1748 87.1727Z" fill="#3498DB"/>
<path opacity="0.6" d="M54.0512 70.8829C59.3693 70.8829 63.6804 66.8104 63.6804 61.7867C63.6804 56.763 59.3693 52.6904 54.0512 52.6904C48.7331 52.6904 44.4219 56.763 44.4219 61.7867C44.4219 66.8104 48.7331 70.8829 54.0512 70.8829Z" fill="#3498DB"/>
<path opacity="0.2" d="M102.596 106.8C105.099 104.192 104.888 100.161 102.127 97.7968C99.365 95.4329 95.0977 95.6315 92.5954 98.2403C90.093 100.849 90.3032 104.88 93.0649 107.244C95.8265 109.608 100.094 109.409 102.596 106.8Z" fill="#3498DB"/>
<path d="M143.204 105.875L120.416 94.6772L129.168 69.9227L138.802 77.3703L142.137 73.522L107.382 46.6536L83.7604 32.5869L80.9524 36.7902L94.4049 44.8009L69.1934 66.9804L36.4219 89.8822L39.5496 93.861L49.3603 87.0052L61.102 143.88L66.2644 142.929L54.0475 83.7446L62.195 78.0314L70.2864 83.3365L106.834 93.5672L113.927 97.0604L106.402 111.739L95.904 138.897L100.846 140.603L111.262 113.669L118.606 99.3579L140.78 110.27L143.204 105.875ZM72.576 78.8067L66.6489 74.9258L72.4204 70.8939L72.5371 70.8082L98.9884 47.5473L104.28 50.7018L124.792 66.556L115.677 92.3388L108.816 88.964L72.576 78.8067Z" fill="#3498DB"/>
<g style="mix-blend-mode:multiply" opacity="0.3">
<path d="M74.8215 146.23L110.44 139.999L105.247 28.9707L69.6289 35.2022L74.8215 146.23Z" fill="#263238"/>
</g>
<path opacity="0.1" d="M54.0512 70.8829C59.3693 70.8829 63.6804 66.8104 63.6804 61.7867C63.6804 56.763 59.3693 52.6904 54.0512 52.6904C48.7331 52.6904 44.4219 56.763 44.4219 61.7867C44.4219 66.8104 48.7331 70.8829 54.0512 70.8829Z" fill="#790202"/>
<path opacity="0.7" d="M143.204 105.875L120.416 94.6772L129.168 69.9227L138.802 77.3703L142.137 73.522L107.382 46.6536L83.7604 32.5869L80.9524 36.7902L94.4049 44.8009L69.1934 66.9804L36.4219 89.8822L39.5496 93.861L49.3603 87.0052L61.102 143.88L66.2644 142.929L54.0475 83.7446L62.195 78.0314L70.2864 83.3365L106.834 93.5672L113.927 97.0604L106.402 111.739L95.904 138.897L100.846 140.603L111.262 113.669L118.606 99.3579L140.78 110.27L143.204 105.875ZM72.576 78.8067L66.6489 74.9258L72.4204 70.8939L72.5371 70.8082L98.9884 47.5473L104.28 50.7018L124.792 66.556L115.677 92.3388L108.816 88.964L72.576 78.8067Z" fill="#A2A2A2"/>
<path d="M141.496 30.6053L104.858 29.1035L69.2358 35.3309L32.6367 33.8291L37.8942 146.302L74.5364 147.808L110.159 141.576L146.762 143.082L141.496 30.6053ZM110.392 136.618L109.796 136.593L109.209 136.699L74.1778 142.821L42.9399 141.535L38.1447 39.0241L69.0068 40.2891L69.6073 40.3136L70.1948 40.2116L105.226 34.0903L136.455 35.3717L141.263 137.879L110.392 136.618Z" fill="#3498DB"/>
<path opacity="0.7" d="M141.496 30.6053L104.858 29.1035L69.2358 35.3309L32.6367 33.8291L37.8942 146.302L74.5364 147.808L110.159 141.576L146.762 143.082L141.496 30.6053ZM110.392 136.618L109.796 136.593L109.209 136.699L74.1778 142.821L42.9399 141.535L38.1447 39.0241L69.0068 40.2891L69.6073 40.3136L70.1948 40.2116L105.226 34.0903L136.455 35.3717L141.263 137.879L110.392 136.618Z" fill="black"/>
<path opacity="0.7" d="M50.1473 32.364L50.1299 32.7432L57.3116 33.0382L57.329 32.659L50.1473 32.364Z" fill="black"/>
<path opacity="0.7" d="M33.9551 82.6385L33.5537 82.6553L33.6758 85.2645L34.0771 85.2477L33.9551 82.6385Z" fill="black"/>
<path opacity="0.7" d="M34.1748 87.1727L33.7734 87.1895L34.048 93.0602L34.4494 93.0434L34.1748 87.1727Z" fill="black"/>
<path d="M160.079 53.1906C156.857 50.6098 152.742 49.2386 148.519 49.3381C144.296 49.4376 140.259 51.0008 137.177 53.7302C134.095 56.4595 132.183 60.1643 131.806 64.1389C131.429 68.1136 132.612 72.0805 135.131 75.2843L134.897 81.2954L141.136 80.0712C144.896 81.8863 149.233 82.3319 153.319 81.323C157.405 80.3141 160.955 77.9212 163.295 74.5998C165.634 71.2784 166.6 67.2603 166.007 63.3104C165.414 59.3604 163.304 55.7542 160.079 53.1783V53.1906Z" fill="#3498DB"/>
<path d="M150.048 77.8453C157.201 77.2754 162.511 71.3353 161.908 64.5776C161.305 57.8199 155.017 52.8037 147.863 53.3735C140.709 53.9433 135.399 59.8835 136.002 66.6412C136.606 73.3988 142.894 78.4151 150.048 77.8453Z" fill="#3498DB"/>
<path opacity="0.3" d="M150.048 77.8453C157.201 77.2754 162.511 71.3353 161.908 64.5776C161.305 57.8199 155.017 52.8037 147.863 53.3735C140.709 53.9433 135.399 59.8835 136.002 66.6412C136.606 73.3988 142.894 78.4151 150.048 77.8453Z" fill="black"/>
<path d="M156.377 145.274H153.206L152.891 138.332H156.062L156.377 145.274Z" fill="#E4897B"/>
<path d="M172.675 54.8311C172.951 55.3452 173.18 55.8023 173.401 56.292C173.621 56.7817 173.833 57.2592 174.053 57.7448C174.485 58.7201 174.848 59.7118 175.185 60.7197C175.522 61.7277 175.837 62.7602 176.079 63.8049C176.213 64.3231 176.308 64.8618 176.42 65.3964C176.533 65.931 176.597 66.4737 176.645 67.0287L176.688 67.4368V67.5429V67.698C176.701 67.8542 176.701 68.0111 176.688 68.1673C176.637 68.7494 176.434 69.3104 176.096 69.7996C175.614 70.4667 174.97 71.0152 174.217 71.3993C173.131 71.9571 171.968 72.3692 170.761 72.6236C168.576 73.1078 166.34 73.361 164.095 73.3786L163.793 71.1463C165.78 70.6574 167.737 70.0662 169.655 69.3752C170.5 69.0694 171.303 68.6709 172.048 68.1877C172.338 67.9877 172.532 67.747 172.48 67.7388C172.425 67.8007 172.391 67.878 172.385 67.9592C172.384 67.9891 172.384 68.0191 172.385 68.049C172.385 68.049 172.385 68.0734 172.385 68.049V68.0081V67.9225L172.316 67.5878C171.929 65.7412 171.382 63.9274 170.683 62.1644C170.338 61.2584 169.962 60.3565 169.577 59.4587C169.193 58.561 168.77 57.6509 168.381 56.8266L172.675 54.8311Z" fill="#E4897B"/>
<path d="M172.114 52.6447C174.87 53.8689 176.434 62.0715 176.434 62.0715L169.708 64.6057C168.726 62.3342 167.931 59.9943 167.332 57.607C166.407 53.8281 169.302 51.3796 172.114 52.6447Z" fill="#3498DB"/>
<path opacity="0.7" d="M172.114 52.6447C174.87 53.8689 176.434 62.0715 176.434 62.0715L169.708 64.6057C168.726 62.3342 167.931 59.9943 167.332 57.607C166.407 53.8281 169.302 51.3796 172.114 52.6447Z" fill="white"/>
<path d="M180.205 145.274H177.03L174.844 138.332H178.019L180.205 145.274Z" fill="#E4897B"/>
<path d="M152.891 138.332L153.05 141.911H156.226L156.066 138.332H152.891Z" fill="#CE6F64"/>
<path d="M178.019 138.332H174.844L175.971 141.911H179.146L178.019 138.332Z" fill="#CE6F64"/>
<path d="M159.593 78.5002C159.593 78.5002 156.962 99.5737 158.937 108.144C161.097 117.53 174.718 141.223 174.718 141.223H180.532C180.532 141.223 169.693 118.301 168.458 108.984C167.119 98.8841 170.549 86.6864 170.549 78.4961L159.593 78.5002Z" fill="#3498DB"/>
<path opacity="0.6" d="M159.593 78.5002C159.593 78.5002 156.962 99.5737 158.937 108.144C161.097 117.53 174.718 141.223 174.718 141.223H180.532C180.532 141.223 169.693 118.301 168.458 108.984C167.119 98.8841 170.549 86.6864 170.549 78.4961L159.593 78.5002Z" fill="black"/>
<path d="M164.424 71.0077L162.208 70.2568L162.277 74.0888C162.277 74.0888 164.07 74.1989 165.064 73.0971L164.424 71.0077Z" fill="#E4897B"/>
<path d="M159.409 70.1162L159.625 73.2789L162.278 74.0828L162.209 70.255L159.409 70.1162Z" fill="#E4897B"/>
<path d="M156.01 43.6658C156.062 43.9025 155.971 44.1188 155.807 44.1514C155.643 44.1841 155.47 44.0168 155.418 43.7801C155.366 43.5434 155.457 43.323 155.621 43.2945C155.785 43.2659 155.954 43.4169 156.01 43.6658Z" fill="#263238"/>
<path d="M155.993 44.1006C155.847 44.8825 155.588 45.6418 155.224 46.3573C155.419 46.4428 155.631 46.487 155.846 46.487C156.061 46.487 156.273 46.4428 156.468 46.3573L155.993 44.1006Z" fill="#DE5753"/>
<path d="M155.36 42.1998C155.335 42.1992 155.31 42.1929 155.289 42.1816C155.267 42.1702 155.248 42.1541 155.234 42.1345C155.223 42.1188 155.216 42.1012 155.212 42.0827C155.209 42.0642 155.209 42.0452 155.214 42.0269C155.218 42.0086 155.226 41.9913 155.238 41.9762C155.25 41.961 155.265 41.9482 155.282 41.9386C155.49 41.8292 155.723 41.7687 155.962 41.7623C156.2 41.7559 156.437 41.8038 156.651 41.9019C156.687 41.9178 156.715 41.9465 156.729 41.9816C156.742 42.0167 156.741 42.0555 156.725 42.0896C156.717 42.1067 156.705 42.1222 156.691 42.135C156.677 42.1478 156.66 42.1578 156.641 42.1643C156.622 42.1708 156.603 42.1736 156.583 42.1727C156.563 42.1718 156.544 42.1671 156.526 42.159C156.357 42.0805 156.17 42.0414 155.981 42.045C155.793 42.0485 155.608 42.0946 155.442 42.1794C155.417 42.1924 155.388 42.1994 155.36 42.1998V42.1998Z" fill="#263238"/>
<path d="M165.145 44.0732C164.687 46.2647 164.233 50.2843 165.857 51.7493C165.857 51.7493 165.222 53.9734 160.911 53.9734C156.159 53.9734 158.643 51.7493 158.643 51.7493C161.235 51.1617 161.166 49.3498 160.712 47.644L165.145 44.0732Z" fill="#E4897B"/>
<path d="M157.707 52.1659L158.234 51.2722C158.234 51.2722 166.442 49.8562 166.671 51.4314C166.693 51.7639 166.657 52.0977 166.563 52.4189L157.707 52.1659Z" fill="#3498DB"/>
<path d="M175.7 145.43C175.565 145.447 175.428 145.437 175.296 145.403C175.165 145.369 175.042 145.31 174.935 145.23C174.897 145.182 174.876 145.123 174.876 145.063C174.876 145.002 174.897 144.943 174.935 144.895C174.959 144.853 174.992 144.816 175.033 144.787C175.073 144.759 175.119 144.738 175.169 144.728C175.635 144.622 176.508 145.193 176.547 145.218C176.559 145.225 176.569 145.236 176.575 145.249C176.58 145.262 176.582 145.276 176.579 145.289C176.576 145.303 176.569 145.315 176.559 145.325C176.549 145.335 176.535 145.342 176.521 145.344C176.251 145.399 175.976 145.428 175.7 145.43V145.43ZM175.303 144.859C175.271 144.854 175.239 144.854 175.208 144.859C175.179 144.864 175.152 144.875 175.128 144.891C175.104 144.908 175.084 144.928 175.069 144.952C175 145.071 175.043 145.12 175.069 145.136C175.203 145.303 175.851 145.307 176.326 145.234C176.018 145.042 175.668 144.918 175.303 144.871V144.859Z" fill="#3498DB"/>
<path d="M176.507 145.35C176.496 145.354 176.484 145.354 176.472 145.35C176.144 145.183 175.509 144.534 175.574 144.191C175.586 144.139 175.616 144.092 175.66 144.059C175.704 144.025 175.759 144.007 175.816 144.007C175.873 144.001 175.93 144.006 175.985 144.022C176.04 144.037 176.091 144.063 176.136 144.097C176.503 144.383 176.568 145.248 176.568 145.285C176.569 145.297 176.567 145.311 176.561 145.322C176.555 145.334 176.545 145.343 176.533 145.35C176.524 145.352 176.516 145.352 176.507 145.35V145.35ZM175.868 144.126H175.824C175.725 144.126 175.716 144.179 175.712 144.199C175.673 144.395 176.079 144.893 176.403 145.125C176.382 144.784 176.252 144.458 176.032 144.187C175.985 144.153 175.927 144.134 175.868 144.134V144.126Z" fill="#3498DB"/>
<path d="M151.931 145.428C151.521 145.428 151.128 145.375 150.998 145.199C150.964 145.154 150.946 145.1 150.946 145.044C150.946 144.989 150.964 144.935 150.998 144.889C151.024 144.848 151.059 144.813 151.1 144.785C151.141 144.757 151.187 144.737 151.236 144.726C151.767 144.587 152.873 145.187 152.921 145.212C152.935 145.218 152.946 145.229 152.953 145.242C152.96 145.255 152.962 145.27 152.96 145.285C152.957 145.299 152.95 145.312 152.939 145.323C152.928 145.333 152.914 145.34 152.899 145.342C152.58 145.397 152.256 145.425 151.931 145.428V145.428ZM151.426 144.844C151.379 144.84 151.331 144.84 151.283 144.844C151.252 144.851 151.223 144.863 151.197 144.881C151.171 144.898 151.149 144.921 151.132 144.946C151.08 145.032 151.102 145.077 151.132 145.101C151.279 145.297 152.083 145.301 152.674 145.22C152.288 145.02 151.864 144.892 151.426 144.844V144.844Z" fill="#3498DB"/>
<path d="M152.889 145.348H152.855C152.475 145.184 151.714 144.532 151.775 144.197C151.775 144.119 151.848 144.017 152.051 144.001C152.128 143.991 152.207 143.996 152.282 144.018C152.356 144.039 152.425 144.075 152.483 144.123C152.885 144.434 152.972 145.242 152.976 145.274C152.977 145.287 152.975 145.299 152.97 145.311C152.964 145.322 152.956 145.332 152.946 145.34C152.928 145.348 152.909 145.351 152.889 145.348V145.348ZM152.112 144.123H152.064C151.93 144.123 151.922 144.189 151.917 144.205C151.883 144.409 152.397 144.915 152.781 145.14C152.74 144.797 152.589 144.474 152.349 144.213C152.281 144.164 152.198 144.136 152.112 144.132V144.123Z" fill="#3498DB"/>
<path d="M175.864 145.279H180.145C180.216 145.276 180.286 145.295 180.345 145.334C180.403 145.372 180.447 145.427 180.469 145.491L181.217 148.237C181.229 148.31 181.224 148.384 181.201 148.454C181.178 148.524 181.138 148.588 181.084 148.641C181.031 148.694 180.965 148.734 180.892 148.759C180.819 148.784 180.741 148.793 180.664 148.784C179.173 148.784 178.447 148.694 176.573 148.694C175.419 148.694 173.039 148.792 171.449 148.792C169.859 148.792 169.643 147.511 170.296 147.392C173.225 146.87 174.326 146.168 175.264 145.47C175.436 145.346 175.647 145.279 175.864 145.279V145.279Z" fill="#263238"/>
<path d="M153.225 144.927H156.681C156.744 144.926 156.805 144.947 156.854 144.984C156.903 145.021 156.936 145.073 156.949 145.131L157.58 147.796C157.596 147.86 157.596 147.927 157.58 147.992C157.564 148.056 157.533 148.117 157.489 148.168C157.445 148.22 157.389 148.261 157.325 148.289C157.262 148.317 157.192 148.331 157.122 148.33C155.869 148.31 154.064 148.24 152.495 148.24C150.655 148.24 149.07 148.334 146.914 148.334C145.618 148.334 145.251 147.09 145.795 146.979C148.279 146.465 150.305 146.412 152.452 145.159C152.682 145.015 152.95 144.934 153.225 144.927V144.927Z" fill="#263238"/>
<path d="M157.442 56.9777C155.943 58.6386 154.418 60.2424 152.863 61.8747C151.308 63.507 149.718 65.0578 148.089 66.6207L146.88 67.7715L146.694 67.9429C146.59 68.0396 146.48 68.1309 146.366 68.2164C146.153 68.372 145.926 68.5086 145.687 68.6244C145.278 68.8274 144.842 68.9783 144.391 69.0733C143.027 69.3333 141.623 69.3499 140.253 69.1223C137.858 68.7537 135.524 68.0911 133.311 67.1513L134.019 65.0006C136.179 65.3369 138.362 65.5305 140.551 65.5801C141.05 65.5828 141.549 65.5596 142.046 65.5107C142.457 65.4758 142.862 65.3922 143.251 65.2618C143.363 65.2218 143.469 65.1683 143.566 65.1027C143.588 65.0823 143.601 65.07 143.596 65.0619L143.64 65.017L143.709 64.9394L144.823 63.7152L149.299 58.8181C150.798 57.1858 152.323 55.5534 153.835 53.9619L157.442 56.9777Z" fill="#E4897B"/>
<path opacity="0.2" d="M169.319 58.037L167.314 57.6289C167.914 60.0162 168.708 62.3561 169.69 64.6276L172.468 63.5788C171.898 62.1709 170.455 60.1019 169.319 58.037Z" fill="#3498DB"/>
<path d="M152.282 59.4209C152.191 60.9961 152.174 62.9182 152.282 65.2606L155.232 58.4619L152.282 59.4209Z" fill="#3498DB"/>
<path d="M134.449 65.2149L132.034 63.0234L130.703 66.6962C130.703 66.6962 131.628 67.7817 133.861 67.2145L134.449 65.2149Z" fill="#E4897B"/>
<path d="M130.201 62.2617L129.264 65.4734L130.702 66.7017L132.033 63.0208L130.201 62.2617Z" fill="#E4897B"/>
<path d="M164.274 41.5606C164.706 44.5111 165.116 46.2128 163.876 48.0043C162.014 50.6977 157.927 50.0855 156.571 47.3187C155.353 44.8294 154.843 40.4261 157.625 38.6958C158.234 38.3112 158.936 38.0799 159.666 38.024C160.396 37.9681 161.129 38.0895 161.795 38.3766C162.461 38.6636 163.039 39.1069 163.473 39.6642C163.906 40.2215 164.182 40.8743 164.274 41.5606V41.5606Z" fill="#E4897B"/>
<path d="M167.712 39.9925C167.755 38.0867 166.312 36.6993 165.578 36.9033C164.714 33.4876 158.536 35.222 158.536 35.222C158.536 35.222 159.975 33.2836 157.184 33.2754C154.393 33.2673 155.175 35.3771 155.175 35.3771C155.175 35.3771 153.478 33.8059 152.372 35.5076C151.266 37.2094 153.668 37.8011 153.668 37.8011C153.668 37.8011 151.663 37.3644 151.4 39.8415C151.136 42.3186 154.704 40.3435 154.704 40.3435C155.309 41.3963 156.022 41.6045 156.713 41.5188C157.079 41.4793 157.448 41.5617 157.756 41.7517C158.065 41.9416 158.293 42.2273 158.402 42.5594C159.4 45.416 161.31 47.991 164.157 47.2034C166.433 46.5668 167.647 42.7797 167.712 39.9925Z" fill="#263238"/>
<path d="M160.273 42.8215C160.368 43.5563 160.206 44.3003 159.81 44.9395C159.279 45.7557 158.48 45.4659 158.177 44.6294C157.905 43.8744 157.853 42.5359 158.609 41.989C159.365 41.4422 160.147 41.9401 160.273 42.8215Z" fill="#E4897B"/>
<path opacity="0.3" d="M161.184 85.7428C160.657 84.2819 159.676 85.7918 158.657 88.2281C158.298 93.0598 158.035 98.8383 158.329 103.45C159.508 97.765 162.346 88.9626 161.184 85.7428Z" fill="black"/>
<path d="M153.577 78.5C153.577 78.5 146.665 97.3168 147.002 106.462C147.361 115.97 151.871 141.219 151.871 141.219H157.249C157.249 141.219 156.454 116.525 156.692 107.184C156.955 97.0026 164.736 78.5 164.736 78.5H153.577Z" fill="#3498DB"/>
<path opacity="0.6" d="M153.577 78.5C153.577 78.5 146.665 97.3168 147.002 106.462C147.361 115.97 151.871 141.219 151.871 141.219H157.249C157.249 141.219 156.454 116.525 156.692 107.184C156.955 97.0026 164.736 78.5 164.736 78.5H153.577Z" fill="black"/>
<path d="M173.159 139.292C173.133 139.292 174.39 141.304 174.39 141.304H180.93L180.287 139.292H173.159Z" fill="#3498DB"/>
<path d="M150.833 139.197C150.808 139.197 151.136 141.303 151.136 141.303H157.681L157.858 139.422L150.833 139.197Z" fill="#3498DB"/>
<path d="M153.761 52.5867C153.761 52.5867 150.383 56.1942 153.575 78.5002H170.549C170.665 76.0517 169.028 64.0335 171.542 52.4357C169.665 52.0923 167.766 51.866 165.857 51.7583C163.454 51.6235 161.045 51.6235 158.643 51.7583C156.995 51.9149 155.363 52.1919 153.761 52.5867V52.5867Z" fill="#3498DB"/>
<path opacity="0.7" d="M153.761 52.5867C153.761 52.5867 150.383 56.1942 153.575 78.5002H170.549C170.665 76.0517 169.028 64.0335 171.542 52.4357C169.665 52.0923 167.766 51.866 165.857 51.7583C163.454 51.6235 161.045 51.6235 158.643 51.7583C156.995 51.9149 155.363 52.1919 153.761 52.5867V52.5867Z" fill="white"/>
<path d="M157.145 55.2379C157.106 58.0945 151.166 65.085 151.166 65.085L145.403 60.9674C145.403 60.9674 147.235 57.0334 150.155 54.5482C153.875 51.361 157.188 51.8834 157.145 55.2379Z" fill="#3498DB"/>
<path opacity="0.7" d="M157.145 55.2379C157.106 58.0945 151.166 65.085 151.166 65.085L145.403 60.9674C145.403 60.9674 147.235 57.0334 150.155 54.5482C153.875 51.361 157.188 51.8834 157.145 55.2379Z" fill="white"/>
<path d="M65.666 73.9623L72.0229 69.4217L97.9043 46.2646L123.786 65.3352L114.705 90.7626L107.894 87.5842L72.0229 77.1408L65.666 73.9623Z" fill="#66FFDA" stroke="black" stroke-width="0.908121"/>
<path d="M121.762 132.96C121.257 133.684 120.55 134.227 119.642 134.588C118.741 134.943 117.69 135.121 116.489 135.121C115.274 135.121 114.195 134.838 113.253 134.271C112.311 133.697 111.58 132.885 111.062 131.834C110.55 130.783 110.287 129.564 110.273 128.178V126.878C110.273 124.632 110.795 122.891 111.84 121.656C112.891 120.42 114.366 119.802 116.263 119.802C117.82 119.802 119.072 120.202 120.021 121C120.97 121.792 121.55 122.919 121.762 124.379H119.796C119.427 122.407 118.253 121.42 116.274 121.42C114.956 121.42 113.956 121.884 113.273 122.813C112.598 123.734 112.256 125.072 112.249 126.827V128.045C112.249 129.718 112.632 131.049 113.396 132.039C114.161 133.022 115.195 133.513 116.499 133.513C117.236 133.513 117.881 133.431 118.434 133.267C118.987 133.104 119.444 132.827 119.806 132.438V129.09H116.355V127.492H121.762V132.96ZM127.158 134.916H125.192V120.007H127.158V134.916ZM135.156 128.27C133.469 127.786 132.241 127.192 131.469 126.489C130.705 125.779 130.322 124.905 130.322 123.867C130.322 122.693 130.79 121.724 131.725 120.959C132.667 120.188 133.889 119.802 135.391 119.802C136.415 119.802 137.326 120 138.125 120.396C138.931 120.792 139.552 121.338 139.989 122.034C140.432 122.731 140.654 123.492 140.654 124.318H138.678C138.678 123.417 138.391 122.71 137.818 122.198C137.244 121.68 136.436 121.42 135.391 121.42C134.422 121.42 133.664 121.635 133.118 122.065C132.579 122.488 132.309 123.079 132.309 123.837C132.309 124.444 132.565 124.96 133.077 125.383C133.596 125.799 134.473 126.182 135.709 126.53C136.951 126.878 137.92 127.264 138.617 127.687C139.32 128.103 139.839 128.591 140.173 129.151C140.514 129.711 140.685 130.37 140.685 131.127C140.685 132.336 140.214 133.305 139.272 134.035C138.33 134.759 137.07 135.121 135.493 135.121C134.469 135.121 133.514 134.926 132.626 134.537C131.739 134.141 131.053 133.602 130.568 132.919C130.09 132.237 129.851 131.462 129.851 130.595H131.828C131.828 131.496 132.159 132.209 132.821 132.735C133.49 133.254 134.381 133.513 135.493 133.513C136.531 133.513 137.326 133.302 137.879 132.878C138.432 132.455 138.709 131.878 138.709 131.148C138.709 130.417 138.453 129.854 137.941 129.458C137.429 129.056 136.5 128.66 135.156 128.27Z" fill="white" fill-opacity="0.32"/>
</svg>
