<svg width="163" height="135" viewBox="0 0 163 135" fill="none" xmlns="http://www.w3.org/2000/svg">
<path d="M54.8825 119.392L5.08203 122.767L20.5811 10.5479L68.8571 8.0166L54.8825 119.392Z" fill="#DFE9EF"/>
<path d="M110.276 130.782L54.8857 119.392L68.8603 8.0166L103.924 20.6729L110.276 130.782Z" fill="#BBC3C7"/>
<path d="M157.529 116.438L110.269 130.781L103.917 20.6719L142.03 4.21875L157.529 116.438Z" fill="#DFE9EF"/>
<path d="M56.1541 109.901L17.2793 112.433L29.2212 17.9326L67.842 16.0342L56.1541 109.901Z" fill="#5DF6FF"/>
<path d="M109.768 122.347L56.1562 109.901L67.8441 16.0342L104.432 28.6904L109.768 122.347Z" fill="#00C0CF"/>
<path d="M147.118 110.739L109.767 122.341L104.432 28.6846L134.668 16.6611L147.118 110.739Z" fill="#5DF6FF"/>
<g opacity="0.7">
<path opacity="0.7" d="M54.8815 75.9385C54.1193 76.1494 53.357 76.5713 52.8489 76.9932L53.103 77.2041C48.2754 84.5869 55.8979 87.1182 55.8979 87.1182C52.8489 99.9853 59.201 104.204 59.201 104.204C57.6765 94.501 66.8235 88.1728 66.8235 88.1728C69.3643 78.2588 58.4387 76.3604 54.8815 75.9385Z" fill="#F361F5"/>
<path opacity="0.7" d="M51.833 75.0928C47.2595 72.5615 47.2595 68.5537 47.2595 68.5537C54.882 68.5537 63.2668 59.2725 63.2668 59.2725C57.6769 44.5068 55.3902 56.9521 55.3902 56.9521C47.2595 49.7803 57.6769 46.4053 57.6769 46.4053C51.3248 44.2959 48.5299 38.3896 48.5299 38.3896C48.2758 42.1865 46.2432 41.9756 46.2432 41.9756C31.7604 35.4365 29.2195 45.9834 29.2195 45.9834C31.5063 51.6787 26.6787 52.3115 26.6787 52.3115C31.5063 52.9443 34.0471 47.8818 34.0471 47.8818C43.9564 51.6787 38.6206 65.6006 38.6206 65.6006C42.4319 67.2881 43.4482 73.1943 43.4482 73.1943C46.2432 73.8271 48.784 75.0928 50.8167 76.1474C51.0708 75.5146 51.3248 75.3037 51.833 75.0928" fill="#EDBA53"/>
<path opacity="0.7" d="M67.0753 33.962C67.0753 33.962 62.7559 31.6417 55.6416 35.2276C55.6416 35.2276 53.863 48.5167 67.0753 33.962Z" fill="#EEF8FB"/>
<path opacity="0.7" d="M77.7515 36.915C72.1617 29.3213 63.0146 39.6572 63.0146 39.6572C66.3177 41.7666 66.5718 43.665 66.0637 45.3525C63.7769 51.6807 66.8259 53.5791 66.8259 53.5791C68.6045 48.3057 74.7025 47.4619 74.7025 47.4619C73.9402 42.6103 77.7515 36.915 77.7515 36.915Z" fill="#5F5CFF"/>
<path opacity="0.7" d="M93.2454 71.0883C92.7372 71.2993 92.229 71.2993 91.7209 71.0883C90.4505 70.0337 89.6882 68.768 88.926 67.5024C88.6719 67.2915 88.6719 67.0805 88.6719 66.8696C84.3525 65.604 75.9677 64.3383 74.6973 74.0415C74.6973 74.0415 76.2218 80.5805 81.5575 77.2055C81.5575 77.2055 87.4015 78.0493 85.1147 86.6977C85.1147 86.6977 86.131 93.4477 91.2127 92.8149C91.2127 92.8149 92.4831 83.1118 99.0893 75.518C98.8352 75.729 96.2944 77.8383 93.2454 71.0883" fill="#FF7033"/>
<path opacity="0.7" d="M135.429 38.1807C135.429 38.1807 122.979 41.7666 109.258 40.7119C109.258 40.7119 110.529 37.3369 105.701 36.915C105.701 36.915 99.3488 43.2432 102.144 46.8291C102.144 46.8291 100.873 53.1572 99.3488 43.876C99.3488 43.876 96.808 49.3604 92.9967 48.0947C92.9967 48.0947 91.9804 53.5791 89.6937 49.9932C89.6937 49.9932 91.4722 50.626 91.9804 48.9385C91.9804 48.9385 86.6447 44.5088 83.5956 51.2588C83.5956 51.2588 81.0548 52.1025 82.0711 55.0557C82.0711 55.0557 83.8497 52.5244 84.8661 56.3213C84.8661 56.3213 85.8824 55.6885 86.1365 50.8369C86.1365 50.8369 88.6773 49.7822 86.6446 53.79C86.6446 53.79 92.2345 53.79 83.5956 57.7979C83.5956 57.7979 83.0875 57.7979 82.8334 56.3213C82.8334 56.3213 81.563 59.9072 78.7681 61.1729C78.7681 61.1729 79.5303 62.6494 77.4976 63.2822C77.4976 63.2822 76.4813 65.6025 79.0221 65.6025C79.0221 65.6025 81.3089 60.3291 85.6283 64.5479C85.6283 64.5479 86.3906 64.3369 85.1201 62.2275C85.1201 62.2275 87.4069 62.8604 88.1692 65.6025C88.1692 65.6025 89.4396 65.3916 89.6937 63.0713C89.6937 63.0713 91.4722 59.9072 94.2672 63.7041C94.2672 63.7041 90.4559 62.8604 89.4396 65.8135C89.4396 65.8135 91.2182 65.1807 92.2345 66.0244C92.2345 66.0244 92.2345 67.501 91.2182 67.9229C91.7263 68.5557 92.2345 69.3994 92.9967 69.8213C93.5049 70.2432 93.5049 70.665 93.2508 71.0869C95.2835 73.8291 98.8407 77.2041 101.636 71.7197C101.636 71.7197 98.0784 73.1963 97.0621 68.9775C97.0621 68.9775 105.955 69.8213 108.242 77.2041C108.242 77.2041 110.783 75.7275 111.545 70.876C111.545 70.876 114.594 71.0869 118.151 77.2041C118.151 77.2041 119.676 76.9932 118.913 72.9854C118.913 72.9854 124.757 71.0869 121.454 63.2822C121.454 63.2822 126.282 68.5557 124.757 61.8057C124.757 61.8057 130.093 56.7432 123.741 53.3682C123.741 53.3682 123.995 49.5713 127.806 50.2041C127.806 50.2041 131.617 42.3994 129.839 51.6807C129.839 51.6807 129.839 53.5791 132.38 55.4775C132.38 55.4775 133.396 52.5244 131.617 49.1494C132.126 48.7275 135.937 43.0322 135.429 38.1807" fill="#6C732D"/>
<g opacity="0.7">
<path opacity="0.7" d="M81.0524 58.6416C82.0687 56.7432 78.7656 54.8447 78.7656 54.8447C79.2738 59.0635 80.036 60.3291 81.0524 58.6416Z" fill="#F361F5"/>
<path opacity="0.7" d="M76.9893 58.8555C76.9893 58.8555 78.5138 58.6445 78.2597 57.168C78.2597 57.168 76.9893 57.168 76.9893 58.8555Z" fill="#F361F5"/>
<path opacity="0.7" d="M76.4786 50.2051C76.4786 50.2051 72.4133 50.2051 73.9378 51.8926C75.2082 53.3691 76.4786 50.2051 76.4786 50.2051Z" fill="#F361F5"/>
</g>
<path opacity="0.7" d="M97.0562 89.6514C97.0562 89.6514 98.3266 87.7529 98.3266 84.5889C98.3266 84.5889 94.2613 88.1748 97.0562 89.6514Z" fill="#EDFF54"/>
<path opacity="0.7" d="M122.978 77.2061C122.978 77.2061 120.183 79.3154 120.692 81.2139C121.2 83.1123 123.741 80.792 122.978 77.2061Z" fill="#EEF8FB"/>
<path opacity="0.7" d="M134.666 83.9541C135.936 82.2666 127.806 80.1572 127.806 80.1572C129.33 81.8447 133.396 85.4307 134.666 83.9541Z" fill="#EDFF54"/>
<path opacity="0.7" d="M125.263 84.169C127.296 81.6377 119.419 82.9033 119.419 82.9033C119.419 82.9033 124.501 85.2236 125.263 84.169Z" fill="#F361F5"/>
<g opacity="0.7">
<path opacity="0.7" d="M128.315 84.8008C128.315 84.8008 126.79 87.543 120.946 88.5977C120.946 88.5977 122.217 90.707 120.946 94.9258C120.946 94.9258 126.79 89.2305 130.093 97.457C130.093 97.457 132.888 98.7227 134.921 91.1289C134.921 91.1289 132.38 88.3867 131.618 84.5898C131.872 84.5898 131.11 89.4414 128.315 84.8008" fill="#FF3333"/>
<path opacity="0.7" d="M125.771 66.4463C125.771 66.4463 132.378 64.5478 129.583 60.1181C129.837 59.9072 130.345 59.6963 130.345 59.6963C127.55 56.1103 128.566 61.1728 128.566 61.1728C128.82 60.7509 129.075 60.54 129.075 60.3291C129.075 62.0166 128.82 64.3369 125.771 66.4463Z" fill="#FF3333"/>
<path opacity="0.7" d="M57.4276 49.5723C57.4276 49.5723 62.2552 55.2676 62.7634 48.9395C63.0175 47.4629 62.2552 47.252 61.493 47.252C61.2389 43.0332 57.6817 41.7676 57.6817 41.7676C55.3949 42.8223 55.649 44.2988 55.649 44.2988C57.6817 44.5098 58.9521 46.6191 59.7144 48.3066C59.4603 48.9395 58.698 49.5723 57.4276 49.5723" fill="#FF3333"/>
</g>
<path opacity="0.7" d="M79.5314 33.541C81.0559 31.0098 76.4824 28.0566 76.4824 28.0566C76.9906 34.1738 78.0069 36.0723 79.5314 33.541Z" fill="#EDFF54"/>
<path opacity="0.7" d="M75.72 31.2207C75.72 31.2207 73.9414 31.4316 73.9414 33.752C73.9414 33.752 76.2282 33.541 75.72 31.2207Z" fill="white"/>
</g>
<path d="M138.004 12.3429C138.33 12.2904 138.668 12.3197 138.975 12.4269C139.282 12.5341 139.543 12.7145 139.726 12.9452C139.726 12.9452 141.044 14.7265 141.826 16.1444C142.603 17.56 143.356 19.5499 143.356 19.5499C143.446 19.8159 143.438 20.098 143.334 20.3602C143.229 20.6225 143.032 20.8528 142.769 21.0217L138.52 23.5365C138.249 23.7159 138.034 23.9475 137.894 24.2113C137.754 24.4751 137.694 24.7631 137.719 25.0506C137.719 25.0506 137.956 26.3935 137.99 27.549C138.018 28.6857 137.877 29.9982 137.877 29.9982C137.87 30.2853 137.947 30.5695 138.103 30.826C138.258 31.0825 138.487 31.3036 138.769 31.4701L143.176 33.7974C143.718 34.0833 144.023 34.7302 143.853 35.2458C143.853 35.2458 143.226 37.2661 142.535 38.7145C141.852 40.1676 140.649 41.9958 140.649 41.9958C140.481 42.2338 140.232 42.4249 139.933 42.5447C139.633 42.6645 139.298 42.7076 138.969 42.6684L133.834 41.8786C133.491 41.8424 133.142 41.8758 132.817 41.9758C132.493 42.0758 132.202 42.2394 131.971 42.4528C131.971 42.4528 130.895 43.5989 129.842 44.4707C128.673 45.4434 127.027 46.4793 127.027 46.4793C126.767 46.6691 126.565 46.9086 126.44 47.1772C126.315 47.4457 126.271 47.7355 126.31 48.0215L127.174 52.2964C127.215 52.5703 127.158 52.8481 127.008 53.0944C126.858 53.3407 126.623 53.5443 126.333 53.6792C126.333 53.6792 124.103 54.6449 122.341 55.191C120.582 55.737 118.14 56.2222 118.14 56.2222C117.815 56.277 117.478 56.2504 117.171 56.1456C116.865 56.0409 116.602 55.8627 116.418 55.6339L113.688 51.9402C113.492 51.7029 113.229 51.5089 112.922 51.3749C112.615 51.241 112.273 51.1711 111.926 51.1715C111.926 51.1715 110.526 51.2652 109.247 51.23C107.932 51.1949 106.464 51.0191 106.464 51.0191C106.118 50.9973 105.771 51.0459 105.454 51.1607C105.136 51.2755 104.856 51.453 104.64 51.6777L101.602 55.2074C101.398 55.4252 101.121 55.5877 100.805 55.6741C100.489 55.7605 100.15 55.7669 99.8294 55.6925C99.8294 55.6925 97.4297 55.0667 95.7189 54.4199C94.0109 53.773 91.8738 52.6855 91.8738 52.6855C91.5956 52.534 91.3782 52.317 91.2494 52.0623C91.1207 51.8076 91.0864 51.5268 91.1511 51.2558L92.238 47.5082C92.4638 46.7324 93.1922 45.6426 93.8726 45.0778L105.109 35.7192C107.091 36.6252 109.374 36.9722 111.614 36.7081C113.855 36.4441 115.931 35.5832 117.531 34.2549C119.132 32.9267 120.169 31.203 120.488 29.3432C120.806 27.4833 120.389 25.5879 119.298 23.942L130.556 14.5929C131.237 14.0304 132.547 13.421 133.481 13.2359L138.004 12.3429ZM82.3034 43.9059C81.9768 43.9584 81.6387 43.9291 81.3321 43.8219C81.0255 43.7146 80.7642 43.5342 80.5813 43.3036C80.5813 43.3036 79.2629 41.527 78.4837 40.1067C77.7045 38.6888 76.9507 36.7013 76.9507 36.7013C76.8607 36.4355 76.8682 36.1535 76.9723 35.8913C77.0764 35.6291 77.2724 35.3986 77.5351 35.2294L81.7868 32.7146C82.0579 32.535 82.2724 32.3033 82.4116 32.0395C82.5508 31.7757 82.6105 31.4878 82.5857 31.2005C82.5857 31.2005 82.3542 29.8576 82.3175 28.7021C82.2893 27.5654 82.4304 26.2506 82.4304 26.2506C82.4374 25.9635 82.3598 25.6793 82.2043 25.4228C82.0488 25.1663 81.8202 24.9452 81.5383 24.7787L77.1342 22.4537C76.8601 22.2965 76.6489 22.0748 76.5276 21.8171C76.4064 21.5594 76.3807 21.2775 76.4539 21.0077C76.4539 21.0077 77.0834 18.985 77.7694 17.5319C78.4583 16.0858 79.6609 14.2507 79.6609 14.2507C79.8289 14.0135 80.078 13.8232 80.3766 13.7038C80.6752 13.5845 81.0098 13.5415 81.3379 13.5804L86.4731 14.3702C86.8167 14.407 87.1659 14.3742 87.4908 14.2747C87.8158 14.1751 88.1069 14.0116 88.3392 13.7983C88.3392 13.7983 89.412 12.6523 90.4651 11.7781C91.6338 10.8077 93.2797 9.77416 93.2797 9.77416C93.5413 9.58389 93.7433 9.34366 93.8682 9.07419C93.9931 8.80472 94.0372 8.51408 93.9968 8.2273L93.1329 3.95703C93.091 3.68284 93.1487 3.40452 93.2986 3.15773C93.4485 2.91094 93.6837 2.70695 93.9742 2.57188C93.9742 2.57188 96.2045 1.60627 97.9661 1.05549C99.7249 0.51409 102.167 0.0289383 102.167 0.0289383C102.492 -0.0271371 102.831 -0.00133835 103.138 0.103036C103.446 0.20741 103.71 0.385617 103.895 0.614871L106.622 4.31328C106.819 4.54971 107.082 4.74282 107.389 4.87593C107.696 5.00905 108.037 5.07817 108.383 5.07733C108.383 5.07733 109.784 4.98593 111.063 5.02108C112.378 5.05624 113.846 5.23436 113.846 5.23436C114.192 5.2556 114.539 5.20626 114.857 5.09066C115.175 4.97505 115.454 4.79668 115.67 4.57109L118.705 1.04377C118.909 0.825483 119.186 0.662531 119.502 0.575704C119.818 0.488878 120.157 0.482115 120.478 0.556277C120.478 0.556277 122.877 1.1844 124.588 1.83127C126.296 2.47579 128.433 3.56563 128.433 3.56563C128.711 3.71736 128.928 3.93439 129.057 4.18902C129.186 4.44366 129.22 4.72435 129.156 4.9953L128.069 8.74292C127.759 9.6462 127.2 10.4774 126.437 11.171L115.198 20.5319C113.216 19.6253 110.932 19.2779 108.691 19.5419C106.45 19.8059 104.373 20.6671 102.773 21.9958C101.172 23.3245 100.135 25.0488 99.8169 26.9093C99.4989 28.7697 99.9174 30.6656 101.009 32.3115L89.7508 41.6559C89.0732 42.2231 87.7605 42.8278 86.826 43.0153L82.3034 43.9059Z" fill="#016BB1"/>
</svg>
