<svg width="135" height="103" viewBox="0 0 135 103" fill="none" xmlns="http://www.w3.org/2000/svg">
<path d="M19.6094 92.5453C45.7542 106.215 88.1443 106.215 114.289 92.5453C140.434 78.8752 140.434 56.7423 114.289 43.085C88.1443 29.4276 45.7542 29.4149 19.6094 43.085C-6.53548 56.7551 -6.53548 78.8847 19.6094 92.5453Z" fill="#FCFCFC" fill-opacity="0.5"/>
<path d="M34.0518 29.7169L40.3527 26.08L34.0518 22.4431L27.6936 26.08L34.0518 29.7169Z" stroke="#EBEBEB" stroke-width="0.160396" stroke-linecap="round" stroke-linejoin="round"/>
<path d="M29.1592 26.0832L34.055 11.9331V28.9095L29.1592 26.0832Z" fill="white" fill-opacity="0.5"/>
<path d="M34.0552 28.9095L38.9478 26.0832L34.0552 11.9331V28.9095Z" fill="#0099FF"/>
<path d="M26.3521 34.1546L32.653 30.5177L26.3521 26.8809L19.9939 30.5177L26.3521 34.1546Z" stroke="#EBEBEB" stroke-width="0.160396" stroke-linecap="round" stroke-linejoin="round"/>
<path d="M21.4595 30.5209L26.3521 9.50708V33.3471L21.4595 30.5209Z" fill="white" fill-opacity="0.5"/>
<path d="M26.3521 33.3471L31.2447 30.5209L26.3521 9.50708V33.3471Z" fill="#0099FF"/>
<path d="M18.6521 38.5926L24.9531 34.9557L18.6521 31.3188L12.2908 34.9557L18.6521 38.5926Z" stroke="#EBEBEB" stroke-width="0.160396" stroke-linecap="round" stroke-linejoin="round"/>
<path d="M13.7595 34.9592L18.6521 22.4431V37.7854L13.7595 34.9592Z" fill="white" fill-opacity="0.5"/>
<path d="M18.6523 37.7854L23.545 34.9592L18.6523 22.4431V37.7854Z" fill="#0099FF"/>
<path d="M10.9524 43.0308L17.2534 39.394L10.9524 35.7571L4.59106 39.394L10.9524 43.0308Z" stroke="#EBEBEB" stroke-width="0.160396" stroke-linecap="round" stroke-linejoin="round"/>
<path d="M6.05688 39.397L10.9527 18.1479V42.2232L6.05688 39.397Z" fill="white" fill-opacity="0.5"/>
<path d="M10.9524 42.2232L15.845 39.397L10.9524 18.1479V42.2232Z" fill="#0099FF"/>
<path d="M94.9282 24.8811L128.531 44.2799" stroke="#EBEBEB" stroke-width="0.160396" stroke-miterlimit="10" stroke-linecap="round"/>
<path d="M128.531 42.2233C128.491 39.7882 128.32 37.3569 128.019 34.94C127.702 32.3141 127.066 27.8824 124.538 26.42C122.011 24.9577 121.057 27.6027 120.692 28.9029C120.215 30.591 117.738 29.5228 117.395 26.7411C117.052 23.9594 116.826 15.0961 113.857 13.3889C110.887 11.6818 109.93 15.7987 109.593 16.9495C108.929 19.2099 106.98 18.5868 106.344 17.0894C105.709 15.592 103.973 15.2264 103.318 17.3342C102.663 19.4419 102.259 21.8612 100.139 20.6182C98.2758 19.5278 99.131 17.5408 97.3157 16.5966C95.8788 15.8527 95.2112 19.4006 95.2112 22.9898L128.531 42.2233Z" fill="white" fill-opacity="0.5"/>
<path d="M126.09 23.7242C126.09 24.112 125.74 24.2233 125.314 23.9785L122.771 22.5034C122.562 22.3849 122.383 22.2196 122.248 22.0205C122.114 21.8214 122.027 21.5939 121.995 21.3557C121.995 20.9711 122.345 20.8566 122.771 21.1046L125.314 22.5797C125.523 22.6975 125.702 22.8622 125.836 23.0607C125.971 23.2593 126.058 23.4864 126.09 23.7242V23.7242Z" fill="#0099FF"/>
<path d="M115.65 11.2525C115.65 11.6403 115.303 11.7516 114.874 11.5068L112.331 10.0317C112.121 9.91379 111.942 9.74868 111.807 9.54948C111.673 9.35028 111.586 9.12245 111.555 8.88406C111.555 8.49939 111.901 8.38494 112.331 8.63291L114.874 10.108C115.083 10.2254 115.262 10.39 115.397 10.5886C115.532 10.7873 115.618 11.0146 115.65 11.2525V11.2525Z" fill="#0099FF"/>
<path d="M107.381 13.5479C107.381 13.9357 107.035 14.047 106.609 13.8022L104.065 12.3271C103.856 12.2092 103.677 12.0441 103.542 11.8449C103.407 11.6457 103.321 11.4179 103.29 11.1795C103.29 10.7948 103.636 10.6804 104.065 10.9283L106.609 12.4034C106.817 12.5214 106.995 12.6862 107.129 12.8848C107.263 13.0834 107.35 13.3104 107.381 13.5479V13.5479Z" fill="#0099FF"/>
<path d="M99.5412 14.3077C99.5412 14.6955 99.1947 14.8068 98.7655 14.5588L96.2222 13.0869C96.0136 12.9682 95.8353 12.8028 95.7013 12.6037C95.5672 12.4046 95.4811 12.1772 95.4497 11.9392C95.4497 11.5546 95.7962 11.4401 96.2222 11.6881L98.7655 13.16C98.9747 13.2783 99.1536 13.4435 99.2882 13.6427C99.4228 13.8418 99.5094 14.0694 99.5412 14.3077V14.3077Z" fill="#0099FF"/>
<path d="M93.5295 22.017V1" stroke="#EBEBEB" stroke-width="0.160396" stroke-miterlimit="10" stroke-linecap="round"/>
<path d="M12.0779 68.5049C12.0779 68.5049 12.5992 63.838 11.1527 59.3936C9.7921 55.1909 7.05808 52.9623 5.40177 52.2947C2.27037 51.0453 1.99061 54.4946 4.33678 56.8821C6.05666 58.637 10.1958 62.2548 10.908 68.3904L12.0779 68.5049Z" fill="#BA68C8"/>
<path opacity="0.7" d="M12.0779 68.5049C12.0779 68.5049 12.5992 63.838 11.1527 59.3936C9.7921 55.1909 7.05808 52.9623 5.40177 52.2947C2.27037 51.0453 1.99061 54.4946 4.33678 56.8821C6.05666 58.637 10.1958 62.2548 10.908 68.3904L12.0779 68.5049Z" fill="#FA0000"/>
<path d="M4.55615 53.2581C6.44771 54.5297 11.5311 58.2015 11.7155 68.47" stroke="#EBEBEB" stroke-width="0.160396" stroke-miterlimit="10" stroke-linecap="round"/>
<path d="M10.7459 71.6936C9.77307 66.9886 7.78614 65.2814 4.23509 63.4629C2.71549 62.6872 0.935196 61.8225 0.293019 60.8338C-0.349158 59.8451 -0.0248902 58.5163 2.16233 58.5449C6.15845 58.5989 10.7109 63.4153 11.3181 68.6925L10.7459 71.6936Z" fill="#BA68C8"/>
<path opacity="0.8" d="M10.7459 71.6936C9.77307 66.9886 7.78614 65.2814 4.23509 63.4629C2.71549 62.6872 0.935196 61.8225 0.293019 60.8338C-0.349158 59.8451 -0.0248902 58.5163 2.16233 58.5449C6.15845 58.5989 10.7109 63.4153 11.3181 68.6925L10.7459 71.6936Z" fill="#FA0000"/>
<path d="M1.8252 59.5684C4.84215 59.9785 9.60761 63.4945 11.1209 69.7415" stroke="#EBEBEB" stroke-width="0.160396" stroke-miterlimit="10" stroke-linecap="round"/>
<path d="M122.202 66.3018C123.426 63.9492 124.376 57.3494 122.803 54.2975C121.229 51.2456 118.889 51.4904 118.527 52.4791C118.209 53.3915 118.994 55.0223 120.011 56.9648C121.029 58.9072 121.887 63.0686 120.924 65.0079L122.202 66.3018Z" fill="#BA68C8"/>
<path opacity="0.7" d="M122.202 66.3018C123.426 63.9492 124.376 57.3494 122.803 54.2975C121.229 51.2456 118.889 51.4904 118.527 52.4791C118.209 53.3915 118.994 55.0223 120.011 56.9648C121.029 58.9072 121.887 63.0686 120.924 65.0079L122.202 66.3018Z" fill="#FA0000"/>
<path d="M120.072 52.6379C121.073 53.4422 123.941 58.3603 121.935 65.1095" stroke="#EBEBEB" stroke-width="0.160396" stroke-miterlimit="10" stroke-linecap="round"/>
<path d="M121.814 68.7941C121.076 67.319 119.461 64.8775 120.561 63.2021C121.661 61.5267 122.812 63.0082 123.696 61.9146C124.58 60.821 123.569 59.0534 124.332 58.0997C125.807 56.224 126.875 58.4017 128.032 58.1156C128.868 57.9089 129.8 56.0555 132.206 56.2812C134.613 56.5069 134.492 58.4144 133.421 59.3109C132.35 60.2074 131.078 61.1007 131.904 62.4455C132.636 63.6377 133.014 65.8408 130.512 66.6959C128.121 67.513 129.304 68.5494 128.922 69.7193C128.541 70.8892 126.284 71.9987 123.884 71.0958L121.814 68.7941Z" fill="#BA68C8"/>
<path opacity="0.8" d="M121.814 68.7941C121.076 67.319 119.461 64.8775 120.561 63.2021C121.661 61.5267 122.812 63.0082 123.696 61.9146C124.58 60.821 123.569 59.0534 124.332 58.0997C125.807 56.224 126.875 58.4017 128.032 58.1156C128.868 57.9089 129.8 56.0555 132.206 56.2812C134.613 56.5069 134.492 58.4144 133.421 59.3109C132.35 60.2074 131.078 61.1007 131.904 62.4455C132.636 63.6377 133.014 65.8408 130.512 66.6959C128.121 67.513 129.304 68.5494 128.922 69.7193C128.541 70.8892 126.284 71.9987 123.884 71.0958L121.814 68.7941Z" fill="#FA0000"/>
<path d="M132.537 57.3623C129.93 58.0617 123.686 63.1355 123.159 69.5032" stroke="#EBEBEB" stroke-width="0.160396" stroke-miterlimit="10" stroke-linecap="round"/>
<path d="M130.658 64.0478C129.371 63.7553 126.099 63.714 124.875 64.3085" stroke="#EBEBEB" stroke-width="0.160396" stroke-miterlimit="10" stroke-linecap="round"/>
<path d="M125.603 58.6592C125.603 58.6592 126.557 60.5062 126.42 62.0608" stroke="#EBEBEB" stroke-width="0.160396" stroke-miterlimit="10" stroke-linecap="round"/>
<path d="M90.042 40.6179C89.6158 39.1425 88.8542 37.7857 87.8166 36.6535C86.5903 35.3163 85.1561 34.1858 83.5693 33.3059C81.7269 32.2623 79.7677 31.4395 77.7325 30.8549C75.4906 30.2078 73.1907 29.7819 70.8657 29.5832C68.4641 29.3639 66.0475 29.3639 63.646 29.5832C61.322 29.7818 59.0232 30.2078 56.7823 30.8549C54.7459 31.439 52.7856 32.2617 50.9423 33.3059C49.3555 34.1935 47.9224 35.3314 46.6982 36.6758C45.6616 37.8086 44.9001 39.1652 44.4729 40.6401C44.093 42.0045 44.093 43.4467 44.4729 44.8111C44.8967 46.2865 45.6586 47.6428 46.6982 48.7722C47.9232 50.1178 49.3574 51.2568 50.9455 52.1452C52.7866 53.1886 54.7448 54.0103 56.7791 54.5931C59.021 55.2431 61.3208 55.6732 63.646 55.8775C66.0477 56.0937 68.464 56.0937 70.8657 55.8775C73.1921 55.6724 75.4929 55.2412 77.7357 54.59C79.7701 54.0072 81.7283 53.1855 83.5693 52.1421V52.1421C85.158 51.2545 86.5923 50.1154 87.8166 48.7691C88.8548 47.6386 89.6166 46.2826 90.042 44.8079C90.4223 43.4371 90.4223 41.9886 90.042 40.6179Z" fill="#37474F"/>
<path d="M44.1865 40.6243H90.3247V42.9768L44.1865 42.8465V40.6243Z" fill="#37474F"/>
<path d="M63.6459 27.4756L67.251 40.618L56.7822 28.7599C59.0226 28.1085 61.3215 27.6784 63.6459 27.4756V27.4756Z" fill="#455A64"/>
<path d="M70.8655 27.4756L67.2604 40.618L63.6553 27.4693C66.0539 27.2526 68.4672 27.2547 70.8655 27.4756V27.4756Z" fill="#455A64"/>
<path d="M77.7324 28.7599L67.2605 40.618L70.8656 27.4692C73.1912 27.6741 75.4911 28.1064 77.7324 28.7599Z" fill="#455A64"/>
<path d="M87.8133 34.5776C88.8503 35.7114 89.6118 37.0691 90.0387 38.5451L67.2637 40.6179L87.8133 34.5776Z" fill="#455A64"/>
<path d="M90.0419 38.5486C90.4186 39.9123 90.4186 41.3526 90.0419 42.7164L67.2637 40.6182L90.0419 38.5486Z" fill="#455A64"/>
<path d="M90.0419 42.7163C89.6158 44.1917 88.8542 45.5486 87.8165 46.6807L67.2637 40.6404L90.0419 42.7163Z" fill="#455A64"/>
<path d="M87.8163 46.6807C86.5917 48.0259 85.1574 49.1639 83.569 50.0505L67.2571 40.6182L87.8163 46.6807Z" fill="#455A64"/>
<path d="M67.2603 40.6338L77.7354 52.5014C75.4924 53.1487 73.1914 53.5746 70.8654 53.773L67.2571 40.6243L67.2603 40.6338Z" fill="#455A64"/>
<path d="M67.2572 40.6367L70.8655 53.7854C68.4639 54.0048 66.0473 54.0048 63.6458 53.7854L67.2572 40.6367Z" fill="#455A64"/>
<path d="M67.251 40.6338L63.6395 53.7825C61.3135 53.5842 59.0125 53.1583 56.7695 52.5109L67.251 40.6338Z" fill="#455A64"/>
<path d="M67.2507 40.6338L56.7597 52.5013C54.7257 51.9161 52.7677 51.0934 50.926 50.0503L67.2507 40.6338Z" fill="#455A64"/>
<path d="M67.2479 40.6182L46.6951 46.6584C45.656 45.5274 44.8942 44.1702 44.4697 42.6941L67.2479 40.6182Z" fill="#455A64"/>
<path d="M67.2479 40.6182L44.4729 42.7164C44.093 41.3531 44.093 39.9119 44.4729 38.5486L67.2479 40.6182Z" fill="#455A64"/>
<path d="M67.2477 40.6179L44.4727 38.5356C44.9005 37.06 45.6619 35.7025 46.698 34.5681L67.2477 40.6179Z" fill="#455A64"/>
<path d="M50.9421 31.2144L67.2476 40.6181L46.698 34.5778C47.9226 33.2357 49.3557 32.0999 50.9421 31.2144V31.2144Z" fill="#455A64"/>
<path d="M83.5692 31.2143L67.2605 40.618L77.7324 28.7537C79.7685 29.3401 81.7278 30.166 83.5692 31.2143V31.2143Z" fill="#455A64"/>
<path d="M83.5692 31.2144C85.1562 32.0991 86.5895 33.2349 87.8133 34.5778L67.2637 40.6181L83.5692 31.2144Z" fill="#455A64"/>
<path d="M67.2511 40.6182L50.936 50.0378C49.3481 49.1504 47.9139 48.0125 46.6887 46.668L67.2416 40.6277L67.2511 40.6182Z" fill="#455A64"/>
<path d="M56.7821 28.76L67.2509 40.618L50.9421 31.2016C52.7853 30.1594 54.7457 29.3398 56.7821 28.76V28.76Z" fill="#455A64"/>
<path d="M67.2605 40.6338L83.5692 50.0503C81.7276 51.0934 79.7696 51.9161 77.7356 52.5013L67.2605 40.6338Z" fill="#455A64"/>
<path d="M53.3042 27.3547L66.259 34.832L65.6232 24.2615C60.8577 24.4649 56.8107 25.4822 53.3042 27.3547Z" fill="#FAFF0F"/>
<path opacity="0.2" d="M53.3042 27.3547L66.259 34.832L65.6232 24.2615C60.8577 24.4649 56.8107 25.4822 53.3042 27.3547Z" fill="#FA0000"/>
<path d="M66.259 34.8322V38.9142L53.3042 31.4338V27.355L66.259 34.8322Z" fill="#FAFF0F"/>
<path opacity="0.1" d="M66.259 34.8322V38.9142L53.3042 31.4338V27.355L66.259 34.8322Z" fill="black"/>
<path d="M83.0542 28.4038L68.1855 35.1117V39.1905L83.0542 32.4826V28.4038Z" fill="#FAFF0F"/>
<path opacity="0.3" d="M83.0542 28.4038L68.1855 35.1117V39.1905L83.0542 32.4826V28.4038Z" fill="black"/>
<path d="M83.0543 28.4039C79.0518 25.6794 73.7141 24.2425 67.5276 24.2234L67.925 30.8327L68.1857 35.1118L83.0543 28.4039Z" fill="#FAFF0F"/>
<path opacity="0.1" d="M83.0543 28.4039C79.0518 25.6794 73.7141 24.2425 67.5276 24.2234L67.925 30.8327L68.1857 35.1118L83.0543 28.4039Z" fill="black"/>
<path d="M67.5242 24.2234V28.3022L68.1854 39.1906V35.1118L67.5242 24.2234Z" fill="#263238"/>
<path d="M71.209 42.9676L78.8102 50.2795C79.2362 50.1173 79.6304 49.9616 80.0818 49.7454C85.3178 47.3865 88.055 43.8514 88.0518 40.2844V36.247C87.4764 34.7115 85.8932 34.7146 84.2369 33.3635L68.7134 40.3575L68.5576 40.4275L71.209 42.9676Z" fill="#FAFF0F"/>
<path opacity="0.6" d="M71.209 42.9676L78.8102 50.2795C79.2362 50.1173 79.6304 49.9616 80.0818 49.7454C85.3178 47.3865 88.055 43.8514 88.0518 40.2844V36.247C87.4764 34.7115 85.8932 34.7146 84.2369 33.3635L68.7134 40.3575L68.5576 40.4275L71.209 42.9676Z" fill="#FA0000"/>
<path d="M71.2087 38.8885L78.8099 46.2004C79.2359 46.0383 79.6301 45.8825 80.0816 45.6631C88.8463 41.7052 90.6012 34.4568 84.243 29.2717L68.7195 36.2657L68.5637 36.3357L71.2087 38.8885Z" fill="#FAFF0F"/>
<path opacity="0.8" d="M71.2087 38.8885L78.8099 46.2004C79.2359 46.0383 79.6301 45.8825 80.0816 45.6631C88.8463 41.7052 90.6012 34.4568 84.243 29.2717L68.7195 36.2657L68.5637 36.3357L71.2087 38.8885Z" fill="#FA0000"/>
<path d="M78.7975 50.2728V46.1909L68.5481 36.3452V40.424L78.7975 50.2728Z" fill="#FAFF0F"/>
<path opacity="0.6" d="M78.7975 50.2728V46.1909L68.5481 36.3452V40.424L78.7975 50.2728Z" fill="#FA0000"/>
<path d="M51.9564 32.2124C49.7723 33.5889 47.3467 34.4568 46.4629 36.129V40.211C46.4629 42.3378 47.4516 44.4932 49.5021 46.4643C52.3633 49.2078 56.8935 51.1471 62.2757 51.9196C67.2566 52.6549 72.3384 52.2848 77.1602 50.8355V46.7568L70.4682 44.4042L66.5389 40.6179L51.9564 32.2124Z" fill="#FAFF0F"/>
<path opacity="0.6" d="M51.9564 32.2124C49.7723 33.5889 47.3467 34.4568 46.4629 36.129V40.211C46.4629 42.3378 47.4516 44.4932 49.5021 46.4643C52.3633 49.2078 56.8935 51.1471 62.2757 51.9196C67.2566 52.6549 72.3384 52.2848 77.1602 50.8355V46.7568L70.4682 44.4042L66.5389 40.6179L51.9564 32.2124Z" fill="black"/>
<path d="M51.9563 28.1338C45.6807 32.0822 44.6698 37.741 49.502 42.3825C52.3632 45.1292 56.8934 47.0653 62.2756 47.841C67.2566 48.5746 72.338 48.2045 77.1601 46.7569L70.4681 40.3256L66.5388 36.552L51.9563 28.1338Z" fill="#FAFF0F"/>
<path opacity="0.3" d="M51.9563 28.1338C45.6807 32.0822 44.6698 37.741 49.502 42.3825C52.3632 45.1292 56.8934 47.0653 62.2756 47.841C67.2566 48.5746 72.338 48.2045 77.1601 46.7569L70.4681 40.3256L66.5388 36.552L51.9563 28.1338Z" fill="black"/>
<path d="M124.773 72.6157C124.347 71.1403 123.586 69.7835 122.548 68.6514C121.324 67.3064 119.891 66.1685 118.304 65.2815C116.462 64.2378 114.502 63.4151 112.467 62.8304C110.225 62.1834 107.925 61.7574 105.6 61.5588C103.199 61.3394 100.782 61.3394 98.3806 61.5588C96.0567 61.7577 93.7578 62.1836 91.5169 62.8304C89.4817 63.4151 87.5226 64.2378 85.6801 65.2815C84.0917 66.1682 82.6574 67.3062 81.4328 68.6514C80.3962 69.7842 79.6347 71.1408 79.2075 72.6157C78.8276 73.9801 78.8276 75.4223 79.2075 76.7867C79.6313 78.2621 80.3932 79.6184 81.4328 80.7478C82.6579 82.0934 84.0921 83.2324 85.6801 84.1208C87.5218 85.1631 89.4798 85.9847 91.5137 86.5687C93.7571 87.2143 96.058 87.6402 98.3838 87.8404C100.785 88.0566 103.202 88.0566 105.603 87.8404C107.929 87.6405 110.23 87.2146 112.473 86.5687C114.508 85.9862 116.467 85.1634 118.307 84.1176V84.1176C119.897 83.2313 121.332 82.0933 122.558 80.7478C123.595 79.6167 124.357 78.261 124.783 76.7867C125.158 75.4212 125.155 73.9794 124.773 72.6157Z" fill="#37474F"/>
<path d="M78.9182 72.6125H125.056V74.9651L78.9182 74.8347V72.6125Z" fill="#37474F"/>
<path d="M98.3773 59.4634L101.986 72.6121L91.5137 60.7477C93.7542 60.0966 96.053 59.6664 98.3773 59.4634V59.4634Z" fill="#455A64"/>
<path d="M105.597 59.4638L101.992 72.6125L98.3838 59.4638C100.783 59.2448 103.198 59.2448 105.597 59.4638Z" fill="#455A64"/>
<path d="M112.464 60.7477L101.992 72.6121L105.597 59.4634C107.922 59.6662 110.222 60.0963 112.464 60.7477V60.7477Z" fill="#455A64"/>
<path d="M122.545 66.5691C123.582 67.7024 124.344 69.0603 124.77 70.5366L101.995 72.6189L122.545 66.5691Z" fill="#455A64"/>
<path d="M124.773 70.5366C125.151 71.9001 125.151 73.3409 124.773 74.7044L101.998 72.6189L124.773 70.5366Z" fill="#455A64"/>
<path d="M124.773 74.7044C124.346 76.1794 123.585 77.536 122.548 78.6687L101.995 72.6284L124.773 74.7044Z" fill="#455A64"/>
<path d="M122.551 78.6687C121.324 80.0124 119.889 81.1502 118.301 82.0385L101.989 72.6189L122.551 78.6687Z" fill="#455A64"/>
<path d="M101.992 72.6221L112.467 84.4896C110.224 85.1355 107.923 85.5614 105.597 85.7613L101.989 72.6125L101.992 72.6221Z" fill="#455A64"/>
<path d="M101.989 72.625L105.597 85.761C103.196 85.9788 100.779 85.9788 98.3774 85.761L101.989 72.625Z" fill="#455A64"/>
<path d="M101.986 72.6221L98.3773 85.7613C96.0515 85.5611 93.7507 85.1352 91.5073 84.4896L101.986 72.6221Z" fill="#455A64"/>
<path d="M101.986 72.6221L91.4945 84.4896C89.4609 83.9032 87.5031 83.0805 85.6609 82.0385L101.986 72.6221Z" fill="#455A64"/>
<path d="M101.979 72.6189L81.4265 78.6592C80.3875 77.5281 79.6256 76.1709 79.2012 74.6948L101.979 72.6189Z" fill="#455A64"/>
<path d="M101.979 72.6189L79.2041 74.7044C78.8242 73.3411 78.8242 71.8999 79.2041 70.5366L101.979 72.6189Z" fill="#455A64"/>
<path d="M101.979 72.6155L79.2043 70.5332C79.6314 69.0573 80.3929 67.6996 81.4297 66.5657L101.979 72.6155Z" fill="#455A64"/>
<path d="M85.677 63.1895L101.979 72.6027L81.4297 66.5625C82.654 65.2161 84.0883 64.0771 85.677 63.1895V63.1895Z" fill="#455A64"/>
<path d="M118.301 63.1896L101.992 72.6029L112.464 60.7385C114.5 61.3219 116.459 62.1447 118.301 63.1896V63.1896Z" fill="#455A64"/>
<path d="M118.3 63.1895C119.888 64.0751 121.321 65.2121 122.545 66.5561L101.998 72.5964L118.3 63.1895Z" fill="#455A64"/>
<path d="M101.985 72.6155L85.6735 82.0383C84.0863 81.1499 82.6523 80.0121 81.4263 78.6685L101.979 72.6282L101.985 72.6155Z" fill="#455A64"/>
<path d="M91.5138 60.7483L101.986 72.6127L85.677 63.1898C87.5193 62.1482 89.4786 61.3286 91.5138 60.7483V60.7483Z" fill="#455A64"/>
<path d="M101.992 72.6221L118.301 82.0385C116.459 83.0817 114.501 83.9043 112.467 84.4896L101.992 72.6221Z" fill="#455A64"/>
<path d="M81.6647 67.4529V74.059C81.4973 73.4554 81.4118 72.832 81.4104 72.2056V67.4529H81.6647Z" fill="#FAFF0F"/>
<path opacity="0.3" d="M81.6647 67.4529V74.059C81.4973 73.4554 81.4118 72.832 81.4104 72.2056V67.4529H81.6647Z" fill="black"/>
<path d="M101.979 67.4591L81.6647 69.3157C81.3276 68.0999 81.3276 66.8152 81.6647 65.5994L101.979 67.4591Z" fill="#FAFF0F"/>
<path d="M101.979 67.4528L81.6648 65.593C82.0466 64.2766 82.7265 63.0659 83.6517 62.0547L101.979 67.4528Z" fill="#FAFF0F"/>
<path d="M87.4381 59.0569L101.979 67.4529L83.6519 62.0484C84.7451 60.8544 86.0236 59.8442 87.4381 59.0569V59.0569Z" fill="#FAFF0F"/>
<path d="M92.6453 56.8694L101.986 67.4494L87.438 59.0566C89.0813 58.1244 90.8293 57.3902 92.6453 56.8694V56.8694Z" fill="#FAFF0F"/>
<path d="M98.7682 55.7249L101.985 67.4493L92.6453 56.8693C94.6438 56.288 96.6946 55.9046 98.7682 55.7249V55.7249Z" fill="#FAFF0F"/>
<path d="M105.225 55.7252L101.992 67.4497L98.7749 55.7252C100.92 55.5275 103.08 55.5275 105.225 55.7252V55.7252Z" fill="#FAFF0F"/>
<path d="M111.332 56.8693L101.992 67.4493L105.225 55.7249C107.293 55.9057 109.339 56.289 111.332 56.8693V56.8693Z" fill="#FAFF0F"/>
<g opacity="0.2">
<path opacity="0.2" d="M101.979 67.4591L81.6647 69.3157C81.3276 68.0999 81.3276 66.8152 81.6647 65.5994L101.979 67.4591Z" fill="#FA0000"/>
<path opacity="0.2" d="M101.979 67.4528L81.6648 65.593C82.0466 64.2766 82.7265 63.0659 83.6517 62.0547L101.979 67.4528Z" fill="#FA0000"/>
<path opacity="0.2" d="M87.4381 59.0566L101.979 67.4526L83.6519 62.0482C84.7451 60.8541 86.0236 59.844 87.4381 59.0566V59.0566Z" fill="#FA0000"/>
<path opacity="0.2" d="M92.6453 56.8694L101.986 67.4494L87.438 59.0566C89.0813 58.1244 90.8293 57.3902 92.6453 56.8694V56.8694Z" fill="#FA0000"/>
<path opacity="0.2" d="M98.7682 55.7249L101.985 67.4493L92.6453 56.8693C94.6438 56.288 96.6946 55.9046 98.7682 55.7249V55.7249Z" fill="#FA0000"/>
<path opacity="0.2" d="M105.225 55.7252L101.992 67.4497L98.7749 55.7252C100.92 55.5275 103.08 55.5275 105.225 55.7252V55.7252Z" fill="#FA0000"/>
<path opacity="0.2" d="M111.332 56.8693L101.992 67.4493L105.225 55.7249C107.293 55.9057 109.339 56.289 111.332 56.8693V56.8693Z" fill="#FA0000"/>
</g>
<path d="M119.213 70.6256L116.164 73.4868L113.847 75.6772L111.637 77.7563L111.342 78.0329V82.7793C113.157 82.2589 114.905 81.5258 116.549 80.5952C117.965 79.8011 119.245 78.7846 120.338 77.5846C121.263 76.5767 121.941 75.3675 122.319 74.0527C122.487 73.4492 122.574 72.8258 122.576 72.1993V67.4561L119.213 70.6256Z" fill="#FAFF0F"/>
<path opacity="0.3" d="M119.213 70.6256L116.164 73.4868L113.847 75.6772L111.637 77.7563L111.342 78.0329V82.7793C113.157 82.2589 114.905 81.5258 116.549 80.5952C117.965 79.8011 119.245 78.7846 120.338 77.5846C121.263 76.5767 121.941 75.3675 122.319 74.0527C122.487 73.4492 122.574 72.8258 122.576 72.1993V67.4561L119.213 70.6256Z" fill="black"/>
<path d="M120.326 62.061C121.25 63.0731 121.93 64.2835 122.313 65.5994L101.995 67.4591L120.326 62.061Z" fill="#FAFF0F"/>
<path d="M122.567 67.4623C122.564 68.0899 122.478 68.7143 122.31 69.3189L116.155 68.7531L101.995 67.456L119.204 65.8664L122.31 65.5835C122.48 66.1953 122.566 66.8273 122.567 67.4623Z" fill="#FAFF0F"/>
<path d="M122.31 69.3188C121.931 70.6333 121.253 71.8423 120.329 72.8507L113.837 70.9433L101.995 67.4463L116.155 68.7434L122.31 69.3188Z" fill="#FAFF0F"/>
<path d="M120.329 72.851C119.235 74.0509 117.955 75.0674 116.539 75.8616L111.628 73.0195L101.998 67.4624L113.84 70.9594L120.329 72.851Z" fill="#FAFF0F"/>
<path d="M116.539 59.0568L101.992 67.456L111.332 56.876C113.148 57.396 114.895 58.128 116.539 59.0568V59.0568Z" fill="#FAFF0F"/>
<path d="M116.539 59.0569C117.954 59.8489 119.233 60.8633 120.326 62.0611L101.995 67.4656L116.539 59.0569Z" fill="#FAFF0F"/>
<path d="M116.539 75.8616C114.895 76.7911 113.147 77.5231 111.332 78.0424L101.998 67.4624L111.628 73.0195L116.539 75.8616Z" fill="#FAFF0F"/>
<g opacity="0.2">
<path opacity="0.2" d="M120.326 62.061C121.25 63.0731 121.93 64.2835 122.313 65.5994L101.995 67.4591L120.326 62.061Z" fill="#FA0000"/>
<path opacity="0.2" d="M122.567 67.4623C122.564 68.0899 122.478 68.7143 122.31 69.3189L116.155 68.7531L101.995 67.456L119.204 65.8664L122.31 65.5835C122.48 66.1953 122.566 66.8273 122.567 67.4623Z" fill="#FA0000"/>
<path opacity="0.2" d="M122.31 69.3188C121.931 70.6333 121.253 71.8423 120.329 72.8507L113.837 70.9433L101.995 67.4463L116.155 68.7434L122.31 69.3188Z" fill="#FA0000"/>
<path opacity="0.2" d="M120.329 72.851C119.235 74.0509 117.955 75.0674 116.539 75.8616L111.628 73.0195L101.998 67.4624L113.84 70.9594L120.329 72.851Z" fill="#FA0000"/>
<path opacity="0.2" d="M116.539 59.0568L101.992 67.456L111.332 56.876C113.148 57.396 114.895 58.128 116.539 59.0568V59.0568Z" fill="#FA0000"/>
<path opacity="0.2" d="M116.539 59.0566C117.954 59.8487 119.233 60.863 120.326 62.0609L101.995 67.4653L116.539 59.0566Z" fill="#FA0000"/>
<path opacity="0.2" d="M116.539 75.8616C114.895 76.7911 113.147 77.5231 111.332 78.0424L101.998 67.4624L111.628 73.0195L116.539 75.8616Z" fill="#FA0000"/>
</g>
<path d="M111.335 78.0456V82.792L101.986 72.1993V67.4497L111.335 78.0456Z" fill="#263238"/>
<path d="M101.986 72.1993L81.6648 74.0654V69.3158L101.986 67.4497V72.1993Z" fill="#FAFF0F"/>
<path opacity="0.1" d="M101.986 72.1993L81.6648 74.0654V69.3158L101.986 67.4497V72.1993Z" fill="black"/>
<path d="M55.3134 72.6157C54.8872 71.1403 54.1256 69.7835 53.088 68.6514C51.8639 67.307 50.4307 66.1691 48.8439 65.2815C47.0006 64.2373 45.0404 63.4146 43.0039 62.8304C40.7631 62.1833 38.4642 61.7574 36.1403 61.5588C33.7387 61.3394 31.3221 61.3394 28.9206 61.5588C26.5956 61.7577 24.2957 62.1836 22.0537 62.8304C20.0163 63.4147 18.055 64.2374 16.2105 65.2815C14.6233 66.1685 13.1901 67.3064 11.9665 68.6514C10.9289 69.7835 10.1672 71.1403 9.74109 72.6157C9.3643 73.9805 9.3643 75.4219 9.74109 76.7867C10.1665 78.2614 10.9283 79.6173 11.9665 80.7478C13.1898 82.0939 14.6231 83.2329 16.2105 84.1208C18.0516 85.1642 20.0098 85.9859 22.0442 86.5687C24.2875 87.2146 26.5883 87.6405 28.9142 87.8404C31.3159 88.0566 33.7322 88.0566 36.1339 87.8404C38.4598 87.6405 40.7606 87.2146 43.0039 86.5687C45.0389 85.9862 46.9972 85.1634 48.8376 84.1176V84.1176C50.4273 83.2316 51.8628 82.0936 53.088 80.7478C54.1262 79.6173 54.888 78.2614 55.3134 76.7867C55.6902 75.4219 55.6902 73.9805 55.3134 72.6157V72.6157Z" fill="#37474F"/>
<path d="M9.45508 72.6125H55.5932V74.9651L9.45508 74.8347V72.6125Z" fill="#37474F"/>
<path d="M28.9269 59.4634L32.532 72.6121L22.0601 60.7477C24.3016 60.0966 26.6015 59.6664 28.9269 59.4634Z" fill="#455A64"/>
<path d="M36.134 59.4635L32.5289 72.6122L28.927 59.4635C31.3244 59.2449 33.7366 59.2449 36.134 59.4635Z" fill="#455A64"/>
<path d="M42.9978 60.7477L32.5291 72.6121L36.1341 59.4634C38.4585 59.6661 40.7574 60.0963 42.9978 60.7477V60.7477Z" fill="#455A64"/>
<path d="M53.0882 66.5691C54.1259 67.7024 54.8875 69.0603 55.3136 70.5366L32.5354 72.6189L53.0882 66.5691Z" fill="#455A64"/>
<path d="M55.3136 70.5364C55.6903 71.9001 55.6903 73.3404 55.3136 74.7042L32.5354 72.6187L55.3136 70.5364Z" fill="#455A64"/>
<path d="M55.3136 74.7041C54.8876 76.1795 54.1259 77.5364 53.0882 78.6684L32.5354 72.6282L55.3136 74.7041Z" fill="#455A64"/>
<path d="M53.088 78.6685C51.862 80.0121 50.4279 81.1499 48.8407 82.0383L32.5256 72.6187L53.088 78.6685Z" fill="#455A64"/>
<path d="M32.5291 72.6221L43.0042 84.4896C40.7609 85.1355 38.46 85.5614 36.1342 85.7613L32.5227 72.6125L32.5291 72.6221Z" fill="#455A64"/>
<path d="M32.5226 72.625L36.134 85.761C33.7366 85.978 31.3244 85.978 28.927 85.761L32.5226 72.625Z" fill="#455A64"/>
<path d="M32.5195 72.6221L28.9271 85.7613C26.6013 85.5614 24.3004 85.1355 22.0571 84.4896L32.5195 72.6221Z" fill="#455A64"/>
<path d="M32.5194 72.6221L22.0284 84.4896C19.9999 83.9032 18.0473 83.0805 16.2107 82.0385L32.5194 72.6221Z" fill="#455A64"/>
<path d="M32.5162 72.6187L11.9634 78.6589C10.9257 77.5268 10.1641 76.17 9.73804 74.6946L32.5162 72.6187Z" fill="#455A64"/>
<path d="M32.5163 72.6187L9.73808 74.7042C9.3614 73.3404 9.3614 71.9001 9.73808 70.5364L32.5163 72.6187Z" fill="#455A64"/>
<path d="M32.5162 72.6155L9.73804 70.5332C10.1642 69.0569 10.9258 67.699 11.9634 66.5657L32.5162 72.6155Z" fill="#455A64"/>
<path d="M16.2106 63.1895L32.5162 72.6027L11.9666 66.5625C13.1897 65.2162 14.623 64.0771 16.2106 63.1895V63.1895Z" fill="#455A64"/>
<path d="M48.8378 63.1896L32.5291 72.6029L42.9978 60.7385C45.0347 61.3213 46.9951 62.1441 48.8378 63.1896V63.1896Z" fill="#455A64"/>
<path d="M48.8378 63.1895C50.4276 64.0793 51.863 65.2205 53.0882 66.5688L32.5386 72.6091L48.8378 63.1895Z" fill="#455A64"/>
<path d="M32.5196 72.6155L16.2109 82.0383C14.6231 81.1507 13.189 80.0128 11.9636 78.6685L32.5165 72.6282L32.5196 72.6155Z" fill="#455A64"/>
<path d="M22.0475 60.7483L32.5194 72.6127L16.2107 63.1898C18.053 62.1482 20.0123 61.3286 22.0475 60.7483V60.7483Z" fill="#455A64"/>
<path d="M32.5291 72.6221L48.8378 82.0385C46.9962 83.0817 45.0382 83.9043 43.0042 84.4896L32.5291 72.6221Z" fill="#455A64"/>
<path d="M38.6581 64.4609L41.2873 61.4789C41.2873 57.9819 37.0145 57.8961 35.1262 57.7276C33.2378 57.5591 29.9983 56.4751 29.9983 60.4553L30.9012 63.7488C33.5081 63.5813 36.1252 63.8216 38.6581 64.4609V64.4609Z" fill="#FAFF0F"/>
<path opacity="0.6" d="M38.6581 64.4609L41.2873 61.4789C41.2873 57.9819 37.0145 57.8961 35.1262 57.7276C33.2378 57.5591 29.9983 56.4751 29.9983 60.4553L30.9012 63.7488C33.5081 63.5813 36.1252 63.8216 38.6581 64.4609V64.4609Z" fill="#FA0000"/>
<path d="M38.6581 59.7784L41.2873 56.7996C37.6059 55.8415 33.792 55.4956 29.9983 55.7759L30.9012 59.0567C33.5086 58.8923 36.1258 59.1358 38.6581 59.7784V59.7784Z" fill="#FAFF0F"/>
<path opacity="0.8" d="M38.6581 59.7784L41.2873 56.7996C37.6059 55.8415 33.792 55.4956 29.9983 55.7759L30.9012 59.0567C33.5086 58.8923 36.1258 59.1358 38.6581 59.7784V59.7784Z" fill="#FA0000"/>
<path d="M30.9012 59.0694V63.7554L29.9983 60.4619V55.7759L30.9012 59.0694Z" fill="#FAFF0F"/>
<path d="M41.2873 56.7996L38.6582 59.7784V64.4675L41.2873 61.4855V56.7996Z" fill="#FAFF0F"/>
<g opacity="0.6">
<path opacity="0.6" d="M30.9012 59.0694V63.7554L29.9983 60.4619V55.7759L30.9012 59.0694Z" fill="#FA0000"/>
<path opacity="0.6" d="M41.2873 56.7996L38.6582 59.7784V64.4675L41.2873 61.4855V56.7996Z" fill="#FA0000"/>
</g>
<path d="M39.9426 60.1568V64.8428C41.0396 65.1969 42.0982 65.6602 43.1026 66.2257C43.9791 66.7233 44.7844 67.3372 45.4965 68.0505L50.653 66.534C49.6277 65.4875 48.4601 64.5907 47.1846 63.87C45.7763 63.0625 44.2694 59.788 39.9426 60.1568Z" fill="#FAFF0F"/>
<path opacity="0.6" d="M39.9426 60.1568V64.8428C41.0396 65.1969 42.0982 65.6602 43.1026 66.2257C43.9791 66.7233 44.7844 67.3372 45.4965 68.0505L50.653 66.534C49.6277 65.4875 48.4601 64.5907 47.1846 63.87C45.7763 63.0625 44.2694 59.788 39.9426 60.1568Z" fill="black"/>
<path d="M42.5717 57.1812L39.9426 60.1568C41.0406 60.5082 42.0995 60.9716 43.1026 61.5397C43.9791 62.0374 44.7844 62.6512 45.4965 63.3645L50.653 61.8481C49.6294 60.7996 48.4615 59.9026 47.1846 59.184C45.723 58.3533 44.1766 57.6819 42.5717 57.1812V57.1812Z" fill="#FAFF0F"/>
<path opacity="0.3" d="M42.5717 57.1812L39.9426 60.1568C41.0406 60.5082 42.0995 60.9716 43.1026 61.5397C43.9791 62.0374 44.7844 62.6512 45.4965 63.3645L50.653 61.8481C49.6294 60.7996 48.4615 59.9026 47.1846 59.184C45.723 58.3533 44.1766 57.6819 42.5717 57.1812V57.1812Z" fill="black"/>
<path d="M45.4963 63.3643L50.6528 61.8447V66.5339L45.4963 68.0503V63.3643Z" fill="#FAFF0F"/>
<path opacity="0.6" d="M45.4963 63.3643L50.6528 61.8447V66.5339L45.4963 68.0503V63.3643Z" fill="black"/>
<path d="M53.2407 67.5225H51.4986C51.435 67.4399 51.381 67.3572 51.3174 67.2746L46.1545 64.0955V68.7846C47.2545 70.1993 47.671 71.7444 47.3848 73.2608L53.0881 73.7917C53.1847 73.3188 53.2326 72.8373 53.2312 72.3547V72.3547L53.2407 67.5225Z" fill="#FAFF0F"/>
<path opacity="0.6" d="M53.2407 67.5225H51.4986C51.435 67.4399 51.381 67.3572 51.3174 67.2746L46.1545 64.0955V68.7846C47.2545 70.1993 47.671 71.7444 47.3848 73.2608L53.0881 73.7917C53.1847 73.3188 53.2326 72.8373 53.2312 72.3547V72.3547L53.2407 67.5225Z" fill="black"/>
<path d="M47.3817 68.5939L53.0881 69.1058C53.5523 66.9027 52.9642 64.636 51.3142 62.5886L46.1514 64.1051C47.2513 65.5198 47.6837 67.068 47.3817 68.5939Z" fill="#FAFF0F"/>
<path opacity="0.3" d="M47.3817 68.5939L53.0881 69.1058C53.5523 66.9027 52.9642 64.636 51.3142 62.5886L46.1514 64.1051C47.2513 65.5198 47.6837 67.068 47.3817 68.5939Z" fill="black"/>
<path d="M53.0881 69.1058V73.795L47.3816 73.2705V68.5845L53.0881 69.1058Z" fill="#FAFF0F"/>
<path opacity="0.6" d="M53.0881 69.1058V73.795L47.3816 73.2705V68.5845L53.0881 69.1058Z" fill="black"/>
<path d="M29.4771 63.8891V59.1999C26.298 57.7344 20.3785 59.2222 18.3948 63.5871L22.4767 65.946C24.6693 64.8494 27.0399 64.1529 29.4771 63.8891Z" fill="#FAFF0F"/>
<path opacity="0.3" d="M29.4771 63.8891V59.1999C26.298 57.7344 20.3785 59.2222 18.3948 63.5871L22.4767 65.946C24.6693 64.8494 27.0399 64.1529 29.4771 63.8891Z" fill="black"/>
<path d="M29.4771 59.1998L28.571 55.8967C24.7275 56.3291 21.2083 57.3877 18.3979 58.901L22.4799 61.2567C24.6715 60.1605 27.0409 59.464 29.4771 59.1998Z" fill="#FAFF0F"/>
<path opacity="0.1" d="M29.4771 59.1998L28.571 55.8967C24.7275 56.3291 21.2083 57.3877 18.3979 58.901L22.4799 61.2567C24.6715 60.1605 27.0409 59.464 29.4771 59.1998Z" fill="black"/>
<path d="M22.4767 61.2566V65.9457L18.3948 63.5869V58.9009L22.4767 61.2566Z" fill="#263238"/>
<path d="M18.207 61.8479L17.3677 64.1718C14.6242 65.8695 12.8916 67.9136 12.1794 70.0531L17.9018 70.5745C18.4264 69.109 19.6217 67.7133 21.4719 66.5371V61.8479H18.207Z" fill="#FAFF0F"/>
<path opacity="0.3" d="M18.207 61.8479L17.3677 64.1718C14.6242 65.8695 12.8916 67.9136 12.1794 70.0531L17.9018 70.5745C18.4264 69.109 19.6217 67.7133 21.4719 66.5371V61.8479H18.207Z" fill="black"/>
<path d="M21.4592 61.8479L17.3677 59.4858C14.6242 61.1803 12.8916 63.2276 12.1794 65.364L17.9018 65.8885C18.4136 64.423 19.609 63.0242 21.4592 61.8479Z" fill="#FAFF0F"/>
<path opacity="0.1" d="M21.4592 61.8479L17.3677 59.4858C14.6242 61.1803 12.8916 63.2276 12.1794 65.364L17.9018 65.8885C18.4136 64.423 19.609 63.0242 21.4592 61.8479Z" fill="black"/>
<path d="M12.1794 65.364V70.0532L17.8891 70.5746V65.8886L12.1794 65.364Z" fill="#263238"/>
<path d="M17.6633 71.3982V66.709L15.9656 66.5564L11.8074 67.6405V72.3233C11.834 74.1839 12.5085 75.977 13.7148 77.3939L18.8777 75.8775C17.8 74.4628 17.3803 72.9146 17.6633 71.3982Z" fill="#FAFF0F"/>
<path opacity="0.3" d="M17.6633 71.3982V66.709L15.9656 66.5564L11.8074 67.6405V72.3233C11.834 74.1839 12.5085 75.977 13.7148 77.3939L18.8777 75.8775C17.8 74.4628 17.3803 72.9146 17.6633 71.3982Z" fill="black"/>
<path d="M13.7344 72.7076L18.8972 71.188V75.8771L13.7344 77.3936V72.7076Z" fill="#263238"/>
<path d="M17.6666 66.7086L11.9442 66.1873C11.4801 68.3935 12.0682 70.6571 13.7182 72.7076L18.881 71.188C17.8001 69.7733 17.3805 68.2251 17.6666 66.7086Z" fill="#FAFF0F"/>
<path opacity="0.1" d="M17.6666 66.7086L11.9442 66.1873C11.4801 68.3935 12.0682 70.6571 13.7182 72.7076L18.881 71.188C17.8001 69.7733 17.3805 68.2251 17.6666 66.7086Z" fill="black"/>
<path d="M23.7738 77.3875C21.3545 75.9919 20.1465 74.1639 20.1465 72.3359V67.6404H44.9021V72.3264C44.9021 74.1575 43.694 75.9855 41.2747 77.3811C36.4425 80.1787 28.6092 80.1787 23.7738 77.3875Z" fill="#37474F"/>
<path d="M32.5256 74.7932C39.3608 74.7932 44.9018 71.5936 44.9018 67.6466C44.9018 63.6996 39.3608 60.5 32.5256 60.5C25.6904 60.5 20.1494 63.6996 20.1494 67.6466C20.1494 71.5936 25.6904 74.7932 32.5256 74.7932Z" fill="#455A64"/>
<path d="M22.4768 78.729V78.1313L14.3923 73.4485V78.1313C15.418 79.1788 16.5867 80.0757 17.8639 80.7954C19.3255 81.626 20.8719 82.2975 22.4768 82.7982L25.1027 79.8226C24.1996 79.5287 23.3215 79.163 22.4768 78.729V78.729Z" fill="#FAFF0F"/>
<path opacity="0.3" d="M22.4768 78.729V78.1313L14.3923 73.4485V78.1313C15.418 79.1788 16.5867 80.0757 17.8639 80.7954C19.3255 81.626 20.8719 82.2975 22.4768 82.7982L25.1027 79.8226C24.1996 79.5287 23.3215 79.163 22.4768 78.729V78.729Z" fill="black"/>
<path d="M21.9329 73.7535C21.0554 73.2571 20.2491 72.6444 19.5359 71.9319L14.3794 73.4483C15.4058 74.4948 16.5745 75.3917 17.851 76.1124C19.3132 76.9417 20.8595 77.6131 22.4638 78.1152L25.0898 75.1364C23.9928 74.785 22.9349 74.3216 21.9329 73.7535V73.7535Z" fill="#FAFF0F"/>
<path opacity="0.1" d="M21.9329 73.7535C21.0554 73.2571 20.2491 72.6444 19.5359 71.9319L14.3794 73.4483C15.4058 74.4948 16.5745 75.3917 17.851 76.1124C19.3132 76.9417 20.8595 77.6131 22.4638 78.1152L25.0898 75.1364C23.9928 74.785 22.9349 74.3216 21.9329 73.7535V73.7535Z" fill="black"/>
<path d="M22.4766 82.8013V78.1153L25.1025 75.1365V79.8256L22.4766 82.8013Z" fill="#263238"/>
<path d="M23.761 78.4937V83.1828C27.4424 84.1409 31.2563 84.4867 35.0499 84.2065V79.5205L23.761 78.4937Z" fill="#FAFF0F"/>
<path opacity="0.1" d="M23.761 78.4937V83.1828C27.4424 84.1409 31.2563 84.4867 35.0499 84.2065V79.5205L23.761 78.4937Z" fill="black"/>
<path d="M26.3835 75.5151L23.7544 78.494C27.4359 79.4516 31.2495 79.7985 35.0434 79.5208L34.1468 76.2241C31.5379 76.3933 28.9186 76.1541 26.3835 75.5151V75.5151Z" fill="#FAFF0F"/>
<path opacity="0.2" d="M26.3835 75.5151L23.7544 78.494C27.4359 79.4516 31.2495 79.7985 35.0434 79.5208L34.1468 76.2241C31.5379 76.3933 28.9186 76.1541 26.3835 75.5151V75.5151Z" fill="#FA0000"/>
<path d="M43.5891 78.1313L47.6838 80.4965C50.4273 78.802 52.1599 76.7547 52.8721 74.6152V69.9292L47.1497 74.0938C46.6347 75.5594 45.4393 76.9582 43.5891 78.1313Z" fill="#FAFF0F"/>
<path opacity="0.1" d="M43.5891 78.1313L47.6838 80.4965C50.4273 78.802 52.1599 76.7547 52.8721 74.6152V69.9292L47.1497 74.0938C46.6347 75.5594 45.4393 76.9582 43.5891 78.1313Z" fill="black"/>
<path d="M43.5891 73.4452L47.6838 75.8104C50.4273 74.1128 52.1599 72.0686 52.8721 69.9291L47.1497 69.4077C46.6347 70.8733 45.4393 72.2689 43.5891 73.4452Z" fill="#FAFF0F"/>
<path opacity="0.2" d="M43.5891 73.4452L47.6838 75.8104C50.4273 74.1128 52.1599 72.0686 52.8721 69.9291L47.1497 69.4077C46.6347 70.8733 45.4393 72.2689 43.5891 73.4452Z" fill="#FA0000"/>
<path d="M47.6806 75.8106V80.4965L43.5891 78.1345V73.4453L47.6806 75.8106Z" fill="#FAFF0F"/>
<path opacity="0.3" d="M47.6806 75.8106V80.4965L43.5891 78.1345V73.4453L47.6806 75.8106Z" fill="black"/>
<path d="M36.4773 79.4029V80.6746C36.1753 80.7223 35.8765 80.7636 35.5713 80.7986L36.4773 84.0984C40.181 83.6852 43.7225 82.6838 46.6504 81.1006V76.3987L36.4773 79.4029Z" fill="#FAFF0F"/>
<path opacity="0.1" d="M36.4773 79.4029V80.6746C36.1753 80.7223 35.8765 80.7636 35.5713 80.7986L36.4773 84.0984C40.181 83.6852 43.7225 82.6838 46.6504 81.1006V76.3987L36.4773 79.4029Z" fill="black"/>
<path d="M35.5713 76.0967L36.4773 79.4029C40.181 78.9896 43.7225 77.9914 46.6504 76.4082L42.5589 74.043C40.3719 75.1416 38.0049 75.8373 35.5713 76.0967V76.0967Z" fill="#FAFF0F"/>
<path opacity="0.2" d="M35.5713 76.0967L36.4773 79.4029C40.181 78.9896 43.7225 77.9914 46.6504 76.4082L42.5589 74.043C40.3719 75.1416 38.0049 75.8373 35.5713 76.0967V76.0967Z" fill="#FA0000"/>
<path d="M36.4773 79.3932V84.0791L35.5713 80.7856V76.0964L36.4773 79.3932Z" fill="#FAFF0F"/>
<path opacity="0.3" d="M36.4773 79.3932V84.0791L35.5713 80.7856V76.0964L36.4773 79.3932Z" fill="black"/>
<path d="M115.815 48.0379C115.804 47.8312 115.744 47.63 115.641 47.4506C115.537 47.2711 115.393 47.1184 115.22 47.0047L106.611 42.0358C106.293 41.8451 106.017 42.0008 106.017 42.3823V50.702C106.028 50.9089 106.087 51.1102 106.19 51.2898C106.294 51.4693 106.438 51.6219 106.611 51.7352L110.216 53.8144L111.355 58.4209C111.351 58.5052 111.381 58.5875 111.438 58.6498C111.494 58.7121 111.574 58.7493 111.658 58.7531C111.742 58.7569 111.825 58.727 111.887 58.6701C111.949 58.6131 111.987 58.5338 111.99 58.4495L113.033 55.4389L115.236 56.7105C115.554 56.9012 115.831 56.7455 115.831 56.3672L115.815 48.0379Z" fill="#BA68C8"/>
<path opacity="0.5" d="M115.815 48.0379C115.804 47.8312 115.744 47.63 115.641 47.4506C115.537 47.2711 115.393 47.1184 115.22 47.0047L106.611 42.0358C106.293 41.8451 106.017 42.0008 106.017 42.3823V50.702C106.028 50.9089 106.087 51.1102 106.19 51.2898C106.294 51.4693 106.438 51.6219 106.611 51.7352L110.216 53.8144L111.355 58.4209C111.351 58.5052 111.381 58.5875 111.438 58.6498C111.494 58.7121 111.574 58.7493 111.658 58.7531C111.742 58.7569 111.825 58.727 111.887 58.6701C111.949 58.6131 111.987 58.5338 111.99 58.4495L113.033 55.4389L115.236 56.7105C115.554 56.9012 115.831 56.7455 115.831 56.3672L115.815 48.0379Z" fill="#FA0000"/>
<path d="M109.278 45.8253C109.454 45.9252 109.617 46.047 109.762 46.1877C109.891 46.314 110.008 46.4536 110.108 46.6042C110.196 46.7374 110.267 46.8804 110.321 47.0302C110.366 47.1575 110.395 47.2899 110.407 47.4244C110.407 47.5611 110.423 47.7041 110.423 47.8536C110.423 48.003 110.423 48.1397 110.407 48.2668C110.399 48.3693 110.37 48.4689 110.321 48.5593C110.274 48.6428 110.198 48.7069 110.108 48.7405C109.995 48.7716 109.875 48.7716 109.762 48.7405C109.591 48.7009 109.427 48.6332 109.278 48.5402C109.102 48.4414 108.939 48.3207 108.792 48.181C108.662 48.0584 108.547 47.9207 108.449 47.7709C108.283 47.5251 108.179 47.2425 108.147 46.9475C108.147 46.8108 108.147 46.6678 108.147 46.5183C108.147 46.3689 108.147 46.2322 108.147 46.1082C108.157 46.0048 108.187 45.9043 108.236 45.8126C108.282 45.7278 108.358 45.6632 108.449 45.6314C108.56 45.5963 108.678 45.5909 108.792 45.6155C108.965 45.6562 109.13 45.7272 109.278 45.8253V45.8253ZM112.318 47.7614C112.35 47.7375 112.389 47.7232 112.429 47.72C112.487 47.7238 112.543 47.7424 112.591 47.7741L113.046 48.0379C113.098 48.0675 113.143 48.1076 113.179 48.1556C113.209 48.1963 113.226 48.2451 113.227 48.2954C113.228 48.306 113.228 48.3167 113.227 48.3272C113.221 48.339 113.214 48.3498 113.205 48.359L109.46 51.1248C109.427 51.149 109.389 51.1644 109.348 51.1694C109.29 51.1655 109.234 51.1457 109.186 51.1121L108.732 50.8514C108.679 50.8215 108.633 50.7802 108.598 50.7306C108.568 50.6914 108.55 50.6437 108.547 50.5939C108.545 50.5824 108.545 50.5705 108.547 50.559C108.552 50.5466 108.559 50.5356 108.57 50.5272L112.318 47.7614ZM109.679 47.7614C109.684 47.7148 109.684 47.668 109.679 47.6215V47.2114C109.683 47.1617 109.683 47.1117 109.679 47.062C109.669 46.9503 109.635 46.842 109.581 46.7441C109.507 46.625 109.403 46.5282 109.278 46.4643C109.132 46.3785 109.031 46.3562 108.961 46.3944C108.931 46.4185 108.906 46.449 108.889 46.4836C108.872 46.5182 108.863 46.5561 108.862 46.5946C108.862 46.6232 108.862 46.6678 108.862 46.7345C108.862 46.8013 108.862 46.8649 108.862 46.9348C108.862 47.0047 108.862 47.0747 108.862 47.1414C108.862 47.2082 108.862 47.2591 108.862 47.294C108.874 47.4054 108.907 47.5134 108.961 47.6119C109.039 47.7329 109.149 47.8297 109.278 47.8917C109.425 47.9775 109.526 47.9998 109.581 47.9616C109.609 47.9387 109.633 47.9097 109.649 47.8768C109.666 47.8438 109.675 47.8077 109.676 47.7709L109.679 47.7614ZM112.559 50.3714C112.736 50.4713 112.899 50.5931 113.046 50.7338C113.175 50.8601 113.29 50.9997 113.389 51.1503C113.479 51.2821 113.55 51.4254 113.602 51.5763C113.646 51.704 113.676 51.8362 113.691 51.9705C113.691 52.1072 113.691 52.2502 113.691 52.3997C113.691 52.5491 113.691 52.6858 113.691 52.8129C113.681 52.9154 113.651 53.0149 113.602 53.1054C113.58 53.1482 113.55 53.1863 113.514 53.2174C113.477 53.2485 113.435 53.272 113.389 53.2866C113.277 53.3195 113.158 53.3195 113.046 53.2866C112.874 53.247 112.709 53.1793 112.559 53.0863C112.384 52.9875 112.221 52.8668 112.076 52.7271C111.946 52.6037 111.83 52.4661 111.73 52.317C111.642 52.1841 111.57 52.0411 111.517 51.891C111.472 51.7636 111.443 51.6312 111.431 51.4968C111.431 51.3569 111.431 51.2139 111.431 51.0644C111.431 50.915 111.431 50.7783 111.431 50.6543C111.438 50.5508 111.467 50.45 111.517 50.3587C111.563 50.2745 111.639 50.2101 111.73 50.1775C111.843 50.1495 111.962 50.1495 112.076 50.1775C112.248 50.2163 112.411 50.2852 112.559 50.3809V50.3714ZM112.963 52.317C112.966 52.2704 112.966 52.2237 112.963 52.1771V51.7766C112.963 51.713 112.963 51.6621 112.963 51.6303C112.95 51.5192 112.916 51.4115 112.865 51.3124C112.786 51.1923 112.676 51.0957 112.547 51.0326C112.4 50.9468 112.299 50.9246 112.245 50.9627C112.215 50.9869 112.19 51.0173 112.173 51.0519C112.156 51.0865 112.147 51.1244 112.146 51.163C112.143 51.2096 112.143 51.2563 112.146 51.3029C112.146 51.3665 112.146 51.4332 112.146 51.5032C112.146 51.5731 112.146 51.643 112.146 51.713C112.143 51.7627 112.143 51.8126 112.146 51.8624C112.156 51.9742 112.189 52.0826 112.245 52.1803C112.317 52.3001 112.422 52.3971 112.547 52.4601C112.693 52.5459 112.795 52.5682 112.865 52.53C112.894 52.5049 112.919 52.4739 112.936 52.4388C112.953 52.4037 112.962 52.3655 112.963 52.3265V52.317Z" fill="#EBEBEB"/>
<path d="M78.5719 16.1389C78.5603 15.9323 78.5006 15.7312 78.3973 15.5517C78.2941 15.3723 78.1503 15.2196 77.9774 15.1057L69.3684 10.14C69.0505 9.94923 68.7739 10.1018 68.7739 10.4833V18.803C68.785 19.0102 68.8445 19.212 68.9478 19.392C69.0511 19.572 69.1951 19.7252 69.3684 19.8394L72.9735 21.9185L74.1116 26.5155C74.1241 26.5867 74.1604 26.6515 74.2147 26.6993C74.269 26.7471 74.3379 26.7749 74.4101 26.7783C74.4823 26.7816 74.5535 26.7602 74.612 26.7176C74.6704 26.6751 74.7126 26.6139 74.7315 26.5441L75.7743 23.5335L77.9774 24.8051C78.2953 24.9959 78.5719 24.8433 78.5719 24.4618V16.1389Z" fill="#BA68C8"/>
<path opacity="0.5" d="M78.5719 16.1389C78.5603 15.9323 78.5006 15.7312 78.3973 15.5517C78.2941 15.3723 78.1503 15.2196 77.9774 15.1057L69.3684 10.14C69.0505 9.94923 68.7739 10.1018 68.7739 10.4833V18.803C68.785 19.0102 68.8445 19.212 68.9478 19.392C69.0511 19.572 69.1951 19.7252 69.3684 19.8394L72.9735 21.9185L74.1116 26.5155C74.1241 26.5867 74.1604 26.6515 74.2147 26.6993C74.269 26.7471 74.3379 26.7749 74.4101 26.7783C74.4823 26.7816 74.5535 26.7602 74.612 26.7176C74.6704 26.6751 74.7126 26.6139 74.7315 26.5441L75.7743 23.5335L77.9774 24.8051C78.2953 24.9959 78.5719 24.8433 78.5719 24.4618V16.1389Z" fill="#FA0000"/>
<path d="M72.0353 13.9389C72.211 14.0388 72.3734 14.1606 72.5185 14.3013C72.6475 14.4283 72.7636 14.5678 72.8651 14.7178C72.9536 14.8503 73.0251 14.9934 73.0781 15.1438C73.1228 15.2711 73.1517 15.4035 73.1639 15.538C73.1639 15.6747 73.1798 15.8177 73.1798 15.9671C73.1798 16.1166 73.1798 16.2533 73.1639 16.3804C73.1566 16.4839 73.1273 16.5847 73.0781 16.6761C73.0319 16.7601 72.9559 16.8236 72.8651 16.8541C72.7531 16.8906 72.6334 16.8961 72.5185 16.87C72.347 16.8304 72.1835 16.7616 72.0353 16.6665C71.8581 16.5687 71.6945 16.4479 71.5489 16.3073C71.4186 16.1847 71.3034 16.047 71.2056 15.8972C71.1158 15.7654 71.0442 15.6221 70.9926 15.4712C70.9484 15.3435 70.9185 15.2113 70.9036 15.077C70.9036 14.9371 70.9036 14.7941 70.9036 14.6478C70.9036 14.5016 70.9036 14.3585 70.9036 14.2345C70.9134 14.1311 70.9436 14.0306 70.9926 13.9389C71.0386 13.8541 71.1145 13.7895 71.2056 13.7577C71.3183 13.7295 71.4362 13.7295 71.5489 13.7577C71.7203 13.7895 71.8849 13.8509 72.0353 13.9389V13.9389ZM75.0745 15.8749C75.1078 15.8525 75.1459 15.8383 75.1858 15.8336C75.2441 15.8374 75.3002 15.8572 75.3479 15.8908L75.8025 16.1515C75.854 16.1821 75.8993 16.222 75.9361 16.2692C75.9655 16.31 75.982 16.3587 75.9837 16.409C75.985 16.4207 75.985 16.4324 75.9837 16.444C75.9774 16.4553 75.97 16.466 75.9615 16.4758L72.2165 19.2416C72.1833 19.2641 72.1451 19.2782 72.1053 19.2829C72.047 19.2791 71.9909 19.2593 71.9431 19.2257L71.4885 18.965C71.4358 18.9362 71.3902 18.8961 71.355 18.8474C71.3256 18.8065 71.309 18.7578 71.3073 18.7075C71.3043 18.6971 71.3043 18.6861 71.3073 18.6757C71.3116 18.6624 71.3193 18.6503 71.3296 18.6408L75.0745 15.8749ZM72.4359 15.8749C72.4405 15.8284 72.4405 15.7816 72.4359 15.7351V15.325C72.4402 15.2763 72.4402 15.2274 72.4359 15.1787C72.4265 15.0669 72.3929 14.9584 72.3373 14.8608C72.2652 14.7401 72.1605 14.642 72.0353 14.5779C71.8891 14.4952 71.7874 14.4698 71.7174 14.5111C71.688 14.5358 71.664 14.5664 71.647 14.6009C71.6301 14.6354 71.6205 14.673 71.6189 14.7114C71.6189 14.7368 71.6189 14.7845 71.6189 14.8481C71.6189 14.9117 71.6189 14.9784 71.6189 15.0516C71.6189 15.1247 71.6189 15.1914 71.6189 15.2582C71.6189 15.325 71.6189 15.3758 71.6189 15.4076C71.6313 15.5189 71.6647 15.6268 71.7174 15.7255C71.7954 15.8465 71.9055 15.9433 72.0353 16.0053C72.1816 16.0911 72.2833 16.1134 72.3373 16.0752C72.3667 16.0525 72.3907 16.0237 72.4077 15.9908C72.4247 15.9578 72.4344 15.9215 72.4359 15.8845V15.8749ZM75.3161 18.485C75.4936 18.5849 75.6572 18.7079 75.8025 18.8506C75.9322 18.975 76.0473 19.1136 76.1459 19.2639C76.2351 19.396 76.3067 19.5392 76.3589 19.6899C76.4028 19.8176 76.4326 19.9498 76.4479 20.0841C76.4479 20.2239 76.4479 20.367 76.4479 20.5164C76.4479 20.6658 76.4479 20.8025 76.4479 20.9265C76.4381 21.03 76.4078 21.1305 76.3589 21.2222C76.3129 21.307 76.2369 21.3716 76.1459 21.4034C76.0336 21.4349 75.9148 21.4349 75.8025 21.4034C75.6305 21.3638 75.4662 21.2961 75.3161 21.2031C75.1418 21.1024 74.9796 20.9818 74.8329 20.8439C74.7032 20.7186 74.5871 20.5801 74.4864 20.4306C74.3991 20.2973 74.3276 20.1544 74.2734 20.0046C74.2286 19.8772 74.1998 19.7448 74.1876 19.6104C74.1876 19.4737 74.1717 19.3306 74.1717 19.1812C74.1717 19.0318 74.1717 18.8951 74.1876 18.7679C74.1952 18.6645 74.2245 18.5638 74.2734 18.4723C74.3211 18.3896 74.3966 18.3265 74.4864 18.2942C74.5983 18.2582 74.7177 18.2516 74.8329 18.2752C75.0054 18.3199 75.1689 18.3941 75.3161 18.4945V18.485ZM75.7199 20.4306C75.7225 20.384 75.7225 20.3373 75.7199 20.2907V19.8901C75.7199 19.8266 75.7199 19.7757 75.7199 19.7439C75.7089 19.6323 75.6754 19.5242 75.6213 19.426C75.5436 19.3041 75.4335 19.2062 75.3034 19.1431C75.1572 19.0604 75.0555 19.035 75.0014 19.0763C74.9708 19.1 74.9461 19.1303 74.929 19.165C74.9119 19.1998 74.903 19.2379 74.9029 19.2766C74.8994 19.3221 74.8994 19.3678 74.9029 19.4133C74.9029 19.4769 74.9029 19.5436 74.9029 19.6167C74.9029 19.6899 74.9029 19.7566 74.9029 19.8234C74.8997 19.8731 74.8997 19.923 74.9029 19.9728C74.9122 20.0847 74.9458 20.1932 75.0014 20.2907C75.0736 20.4115 75.1782 20.5095 75.3034 20.5736C75.4497 20.6563 75.5556 20.6786 75.6213 20.6404C75.6514 20.6163 75.6758 20.5858 75.6928 20.5512C75.7099 20.5166 75.7191 20.4787 75.7199 20.4401V20.4306Z" fill="#EBEBEB"/>
<path d="M19.4661 47.7804C19.4774 47.5736 19.5371 47.3725 19.6403 47.193C19.7436 47.0135 19.8875 46.8608 20.0606 46.7472L28.6696 41.7782C28.9875 41.5875 29.264 41.7433 29.264 42.1248V50.4445C29.2532 50.6513 29.1938 50.8527 29.0905 51.0322C28.9872 51.2117 28.843 51.3644 28.6696 51.4777L25.0645 53.5568L23.9264 58.1569C23.9301 58.2412 23.9003 58.3236 23.8434 58.3859C23.7864 58.4482 23.7071 58.4854 23.6228 58.4891C23.5384 58.4929 23.4561 58.4631 23.3938 58.4061C23.3315 58.3492 23.2943 58.2699 23.2905 58.1855L22.251 55.1749L20.0479 56.4466C19.73 56.6373 19.4534 56.4815 19.4534 56.1032L19.4661 47.7804Z" fill="#BA68C8"/>
<g opacity="0.5">
<path opacity="0.5" d="M19.4661 47.7804C19.4774 47.5736 19.5371 47.3725 19.6403 47.193C19.7436 47.0135 19.8875 46.8608 20.0606 46.7472L28.6696 41.7782C28.9875 41.5875 29.264 41.7433 29.264 42.1248V50.4445C29.2532 50.6513 29.1938 50.8527 29.0905 51.0322C28.9872 51.2117 28.843 51.3644 28.6696 51.4777L25.0645 53.5568L23.9264 58.1569C23.9301 58.2412 23.9003 58.3236 23.8434 58.3859C23.7864 58.4482 23.7071 58.4854 23.6228 58.4891C23.5384 58.4929 23.4561 58.4631 23.3938 58.4061C23.3315 58.3492 23.2943 58.2699 23.2905 58.1855L22.251 55.1749L20.0479 56.4466C19.73 56.6373 19.4534 56.4815 19.4534 56.1032L19.4661 47.7804Z" fill="#FA0000"/>
</g>
<path d="M22.4734 47.1604C22.6454 47.0534 22.8347 46.9771 23.0329 46.9347C23.1659 46.9078 23.3036 46.9144 23.4334 46.9538C23.5379 46.9915 23.625 47.0661 23.6782 47.1636C23.7351 47.2686 23.7687 47.3846 23.7768 47.5038C23.7895 47.65 23.7959 47.8089 23.7959 47.9806C23.7959 48.1523 23.7895 48.3176 23.7768 48.4766C23.7629 48.6326 23.7298 48.7864 23.6782 48.9343C23.6173 49.1071 23.5351 49.2715 23.4334 49.4239C23.3184 49.5975 23.184 49.7575 23.0329 49.9008C22.8639 50.0618 22.676 50.2016 22.4734 50.3172C22.2992 50.4238 22.1093 50.5021 21.9107 50.5493C21.7791 50.5787 21.6421 50.5732 21.5133 50.5334C21.4088 50.4957 21.3217 50.4211 21.2685 50.3236C21.2106 50.2188 21.1759 50.1028 21.1667 49.9834C21.1667 49.8372 21.1667 49.6655 21.1667 49.5066C21.1667 49.3476 21.1667 49.1696 21.1667 49.0106C21.182 48.8545 21.2161 48.7008 21.2685 48.5529C21.3281 48.3796 21.4104 48.2149 21.5133 48.0633C21.6289 47.89 21.762 47.7292 21.9107 47.5832C22.0803 47.4199 22.2693 47.2779 22.4734 47.1604V47.1604ZM25.9704 45.3451C26.0064 45.2756 26.049 45.2096 26.0975 45.148C26.151 45.087 26.2144 45.0354 26.2851 44.9955L26.8128 44.6775C26.8567 44.6452 26.9115 44.6315 26.9654 44.6394C27.0036 44.6394 27.0226 44.6807 27.0226 44.7316C27.0249 44.7485 27.0249 44.7656 27.0226 44.7825L26.9972 44.8492L22.6673 53.0449C22.6312 53.1135 22.5886 53.1784 22.5401 53.2388C22.4873 53.3006 22.4238 53.3523 22.3526 53.3914L21.828 53.7093C21.7829 53.7416 21.7271 53.7552 21.6722 53.7475C21.6341 53.7475 21.615 53.7062 21.615 53.6553C21.6128 53.6384 21.6128 53.6213 21.615 53.6044L21.6404 53.5377L25.9704 45.3451ZM22.9375 48.8835C22.9418 48.8263 22.9418 48.769 22.9375 48.7118V48.2381C22.9421 48.1842 22.9421 48.1299 22.9375 48.076C22.9358 48.0314 22.9247 47.9878 22.905 47.9478C22.8852 47.9078 22.8573 47.8724 22.8231 47.8439C22.7595 47.7994 22.6418 47.8439 22.4734 47.9234C22.3433 47.9889 22.2323 48.0868 22.151 48.2076C22.0697 48.3284 22.0209 48.4681 22.0092 48.6133C22.0046 48.6714 22.0046 48.7299 22.0092 48.7881C22.0092 48.8644 22.0092 48.9439 22.0092 49.0265C22.0092 49.1092 22.0092 49.1855 22.0092 49.2618C22.0042 49.3147 22.0042 49.3679 22.0092 49.4207C22.0092 49.4656 22.0195 49.5099 22.0394 49.5501C22.0592 49.5904 22.0881 49.6255 22.1237 49.6528C22.1872 49.6973 22.3017 49.6687 22.4734 49.5733C22.6168 49.5014 22.7378 49.3914 22.8231 49.2554C22.8864 49.1406 22.9253 49.014 22.9375 48.8835V48.8835ZM26.266 48.0569C26.4395 47.9498 26.6297 47.8725 26.8287 47.828C26.9607 47.8011 27.0973 47.8077 27.2261 47.8471C27.3306 47.8848 27.4177 47.9594 27.4709 48.0569C27.5288 48.1617 27.5635 48.2777 27.5726 48.3971C27.5726 48.5433 27.5885 48.715 27.5885 48.8739C27.5885 49.0329 27.5885 49.2109 27.5726 49.3699C27.5577 49.5261 27.5235 49.6798 27.4709 49.8277C27.4107 50.0017 27.3284 50.1673 27.2261 50.3204C26.9826 50.688 26.6558 50.993 26.2724 51.2106C26.0997 51.3178 25.9107 51.3962 25.7129 51.4426C25.5803 51.4736 25.4419 51.4681 25.3123 51.4268C25.2072 51.3901 25.1198 51.3152 25.0675 51.2169C25.0103 51.1121 24.9766 50.996 24.9689 50.8768C24.9689 50.7337 24.9499 50.5589 24.9499 50.4031C24.9499 50.2473 24.9499 50.0629 24.9689 49.904C24.9827 49.7489 25.0158 49.5962 25.0675 49.4494C25.1284 49.2756 25.2106 49.1101 25.3123 48.9566C25.4281 48.7826 25.5624 48.6216 25.7129 48.4766C25.8775 48.3097 26.0635 48.1654 26.266 48.0474V48.0569ZM26.7302 49.7673C26.7345 49.7101 26.7345 49.6527 26.7302 49.5956V49.1251C26.7348 49.0711 26.7348 49.0169 26.7302 48.963C26.7304 48.918 26.7202 48.8737 26.7003 48.8334C26.6805 48.7931 26.6515 48.758 26.6157 48.7309C26.5521 48.6864 26.4377 48.7118 26.266 48.8104C26.1231 48.8831 26.0023 48.9929 25.9163 49.1283C25.8549 49.2416 25.8161 49.3658 25.8019 49.4939C25.7988 49.551 25.7988 49.6084 25.8019 49.6655C25.8019 49.745 25.8019 49.8245 25.8019 49.904C25.8019 49.9834 25.8019 50.0661 25.8019 50.1392C25.7986 50.1922 25.7986 50.2452 25.8019 50.2982C25.8036 50.3427 25.8147 50.3864 25.8344 50.4264C25.8541 50.4664 25.882 50.5018 25.9163 50.5302C25.9799 50.5748 26.0975 50.5493 26.266 50.4508C26.4096 50.3789 26.5305 50.2689 26.6157 50.1329C26.6813 50.0179 26.7204 49.8897 26.7302 49.7577V49.7673Z" fill="#EBEBEB"/>
</svg>
