<svg width="60" height="60" viewBox="0 0 60 60" fill="none" xmlns="http://www.w3.org/2000/svg">
<rect x="3.79167" y="9.96874" width="43.0625" height="30.9167" rx="3.3125" stroke="#3498DB" stroke-width="4.41667"/>
<path d="M37.4688 51.9271C37.4688 52.7555 36.7137 53.9915 34.3658 55.1185C32.1372 56.1882 28.942 56.8958 25.3229 56.8958C21.7038 56.8958 18.5087 56.1882 16.2801 55.1185C13.9322 53.9915 13.1771 52.7555 13.1771 51.9271C13.1771 51.0986 13.9322 49.8626 16.2801 48.7356C18.5087 47.6659 21.7038 46.9583 25.3229 46.9583C28.942 46.9583 32.1372 47.6659 34.3658 48.7356C36.7137 49.8626 37.4688 51.0986 37.4688 51.9271Z" fill="#3498DB" stroke="#3498DB" stroke-width="3.3125"/>
<rect x="19.25" y="44.1979" width="11.0417" height="2.20833" stroke="#3498DB" stroke-width="2.20833"/>
<rect x="9" y="17" width="9" height="8" fill="#17D2FB"/>
<rect x="9" y="28" width="9" height="8" fill="#FF0B9D"/>
<rect x="21" y="28" width="9" height="8" fill="#CDF334"/>
<rect x="33" y="28" width="9" height="8" fill="#2C1DCF"/>
<rect x="21" y="17" width="9" height="8" fill="#8819DF"/>
<rect x="33" y="17" width="9" height="8" fill="#F17028"/>
<path d="M45 5.905C44.0748 5.905 43.1703 6.14781 42.4011 6.60272C41.6318 7.05763 41.0322 7.7042 40.6781 8.46069C40.3241 9.21718 40.2314 10.0496 40.4119 10.8527C40.5924 11.6558 41.038 12.3934 41.6922 12.9724C42.3464 13.5514 43.1799 13.9457 44.0874 14.1055C44.9948 14.2652 45.9354 14.1832 46.7902 13.8699C47.645 13.5565 48.3756 13.0259 48.8896 12.3451C49.4036 11.6642 49.678 10.8638 49.678 10.045C49.6765 8.94741 49.1831 7.89515 48.3062 7.11904C47.4292 6.34293 46.2402 5.90632 45 5.905V5.905ZM45 11.645C44.6324 11.645 44.273 11.5485 43.9673 11.3678C43.6617 11.187 43.4234 10.9301 43.2827 10.6295C43.142 10.3289 43.1052 9.99817 43.177 9.67908C43.2487 9.35998 43.4257 9.06687 43.6857 8.83681C43.9456 8.60675 44.2768 8.45008 44.6374 8.38661C44.9979 8.32314 45.3717 8.35571 45.7113 8.48022C46.051 8.60472 46.3413 8.81557 46.5455 9.08609C46.7497 9.35661 46.8588 9.67465 46.8588 10C46.8588 10.4363 46.6629 10.8547 46.3143 11.1632C45.9658 11.4717 45.493 11.645 45 11.645ZM45 5.905C44.0748 5.905 43.1703 6.14781 42.4011 6.60272C41.6318 7.05763 41.0322 7.7042 40.6781 8.46069C40.3241 9.21718 40.2314 10.0496 40.4119 10.8527C40.5924 11.6558 41.038 12.3934 41.6922 12.9724C42.3464 13.5514 43.1799 13.9457 44.0874 14.1055C44.9948 14.2652 45.9354 14.1832 46.7902 13.8699C47.645 13.5565 48.3756 13.0259 48.8896 12.3451C49.4036 11.6642 49.678 10.8638 49.678 10.045C49.6765 8.94741 49.1831 7.89515 48.3062 7.11904C47.4292 6.34293 46.2402 5.90632 45 5.905V5.905ZM45 11.645C44.6324 11.645 44.273 11.5485 43.9673 11.3678C43.6617 11.187 43.4234 10.9301 43.2827 10.6295C43.142 10.3289 43.1052 9.99817 43.177 9.67908C43.2487 9.35998 43.4257 9.06687 43.6857 8.83681C43.9456 8.60675 44.2768 8.45008 44.6374 8.38661C44.9979 8.32314 45.3717 8.35571 45.7113 8.48022C46.051 8.60472 46.3413 8.81557 46.5455 9.08609C46.7497 9.35661 46.8588 9.67465 46.8588 10C46.8588 10.4363 46.6629 10.8547 46.3143 11.1632C45.9658 11.4717 45.493 11.645 45 11.645ZM52.6158 12.145L53 9.83L51.3051 9.3C51.2591 8.99073 51.1874 8.6849 51.0904 8.385L52.4011 7.305L51.0113 5.305L49.3164 5.86C49.0556 5.64571 48.776 5.45009 48.4802 5.275L48.7006 3.705L46.2203 3L45.339 4.37C44.9847 4.35008 44.629 4.36013 44.2768 4.4L43.3051 3.07L40.8531 3.935L41.1808 5.5C40.899 5.68785 40.6346 5.89517 40.3898 6.12L38.6949 5.655L37.4237 7.71L38.8079 8.71C38.7272 9.01408 38.6743 9.32341 38.6497 9.635L37 10.265L37.565 12.55H39.3616C39.5247 12.8284 39.7137 13.0943 39.9266 13.345L39.0734 14.75L41.1412 16.195L42.5085 15.165C42.6681 15.2308 42.8323 15.2876 43 15.335C43.1682 15.3862 43.34 15.4279 43.5141 15.46L43.9153 17L46.5537 16.935L46.8475 15.365C47.1836 15.2766 47.5106 15.1628 47.8249 15.025L49.2599 16L51.2147 14.43L50.3107 13.06C50.5008 12.7971 50.6671 12.5212 50.8079 12.235L52.6158 12.145ZM50.0339 11.26L49.904 11.57C49.7344 11.9843 49.4984 12.375 49.2034 12.73L48.9548 13L49.7684 14.22L49.2034 14.68L47.9266 13.825L47.5989 14C47.17 14.2264 46.7054 14.3949 46.2203 14.5L45.8588 14.58L45.5932 15.975H44.8079L44.435 14.6L44.0678 14.54C43.8222 14.5066 43.5803 14.4547 43.3446 14.385C43.1079 14.3156 42.8775 14.2304 42.6554 14.13L42.3333 14L41.1186 14.905L40.4802 14.47L41.209 13.21L40.9718 12.955C40.6526 12.6167 40.39 12.2395 40.1921 11.835L40.0395 11.535H38.4407L38.2825 10.855L39.7514 10.305V10C39.752 9.55778 39.8262 9.11806 39.9718 8.695L40.0791 8.38L38.8588 7.46L39.2316 6.85L40.7571 7.265L41 7C41.3279 6.66245 41.7084 6.36784 42.1299 6.125L42.4407 5.945L42.1469 4.55L42.8814 4.295L43.7288 5.5L44.096 5.44C44.5807 5.36289 45.0751 5.34606 45.565 5.39L45.9379 5.43L46.7458 4.2L47.4915 4.42L47.2994 5.82L47.6215 5.985C48.0544 6.20637 48.4484 6.48263 48.791 6.805L49.0508 7.045L50.5424 6.545L50.9548 7.135L49.7853 8.1L49.9096 8.415C50.0839 8.82901 50.1868 9.26388 50.2147 9.705V10.035L51.7232 10.505L51.6102 11.195L50.0339 11.26ZM45 5.905C44.0748 5.905 43.1703 6.14781 42.4011 6.60272C41.6318 7.05763 41.0322 7.7042 40.6781 8.46069C40.3241 9.21718 40.2314 10.0496 40.4119 10.8527C40.5924 11.6558 41.038 12.3934 41.6922 12.9724C42.3464 13.5514 43.1799 13.9457 44.0874 14.1055C44.9948 14.2652 45.9354 14.1832 46.7902 13.8699C47.645 13.5565 48.3756 13.0259 48.8896 12.3451C49.4036 11.6642 49.678 10.8638 49.678 10.045C49.6765 8.94741 49.1831 7.89515 48.3062 7.11904C47.4292 6.34293 46.2402 5.90632 45 5.905V5.905ZM45 11.645C44.6324 11.645 44.273 11.5485 43.9673 11.3678C43.6617 11.187 43.4234 10.9301 43.2827 10.6295C43.142 10.3289 43.1052 9.99817 43.177 9.67908C43.2487 9.35998 43.4257 9.06687 43.6857 8.83681C43.9456 8.60675 44.2768 8.45008 44.6374 8.38661C44.9979 8.32314 45.3717 8.35571 45.7113 8.48022C46.051 8.60472 46.3413 8.81557 46.5455 9.08609C46.7497 9.35661 46.8588 9.67465 46.8588 10C46.8588 10.4363 46.6629 10.8547 46.3143 11.1632C45.9658 11.4717 45.493 11.645 45 11.645Z" fill="#004F84"/>
</svg>
