<svg width="60" height="60" viewBox="0 0 60 60" fill="none" xmlns="http://www.w3.org/2000/svg">
<path d="M45.2173 0.0151394L44.6602 0H9.84038L9.28326 0.0151394C6.77379 0.157442 4.41391 1.25462 2.6877 3.08161C0.961493 4.9086 -0.000164551 7.32688 2.11195e-08 9.84038V44.6602L0.0151394 45.2173C0.157442 47.7268 1.25462 50.0866 3.08161 51.8128C4.9086 53.5391 7.32688 54.5007 9.84038 54.5006H27.3169C26.1255 52.6413 25.2574 50.5939 24.7493 48.4449H9.84038L9.45282 48.4268C8.52076 48.3308 7.65743 47.8925 7.02988 47.1968C6.40234 46.501 6.05519 45.5972 6.05562 44.6602L6.05864 15.139H48.4449V24.7493C50.628 25.264 52.6687 26.1421 54.5036 27.3169V9.84038L54.4884 9.28326C54.3509 6.86976 53.3298 4.59132 51.6199 2.88251C49.91 1.1737 47.6309 0.154091 45.2173 0.018167V0.0151394ZM24.2043 21.6428C24.1296 21.0986 23.8602 20.5999 23.446 20.2392C23.0318 19.8784 22.5009 19.68 21.9516 19.6808H11.3543L11.0454 19.7019C10.5018 19.7766 10.0036 20.0455 9.64286 20.4591C9.28218 20.8727 9.08345 21.4029 9.08342 21.9516V43.1463L9.10462 43.4551C9.17925 43.9988 9.44822 44.497 9.86178 44.8577C10.2753 45.2184 10.8055 45.4171 11.3543 45.4171H21.9516L22.2604 45.3959C22.8041 45.3213 23.3023 45.0523 23.663 44.6388C24.0237 44.2252 24.2224 43.695 24.2225 43.1463V21.9516L24.2013 21.6428H24.2043ZM13.6251 24.2225H19.6808V40.8754H13.6251V24.2225ZM45.4171 21.9516C45.4171 21.3493 45.1779 20.7717 44.752 20.3459C44.3261 19.92 43.7485 19.6808 43.1463 19.6808H29.5332L29.2274 19.7019C28.6577 19.7803 28.1389 20.072 27.7759 20.518C27.4128 20.964 27.2325 21.5311 27.2713 22.1049C27.3101 22.6787 27.5652 23.2164 27.985 23.6094C28.4048 24.0024 28.9581 24.2215 29.5332 24.2225H43.1463L43.4551 24.2013C43.9988 24.1266 44.497 23.8577 44.8577 23.4441C45.2184 23.0305 45.4171 22.5004 45.4171 21.9516V21.9516ZM34.1506 33.2302C34.3771 34.0132 34.443 34.8339 34.3447 35.643C34.2463 36.4521 33.9856 37.2331 33.5782 37.939C33.1708 38.645 32.6251 39.2614 31.9737 39.7514C31.3224 40.2414 30.5788 40.5949 29.7876 40.7906L28.0163 41.2266C27.7339 43.04 27.7411 44.8867 28.0375 46.6979L29.6725 47.0915C30.4706 47.2837 31.2212 47.6362 31.8789 48.1276C32.5365 48.6189 33.0874 49.2388 33.498 49.9496C33.9086 50.6604 34.1704 51.4473 34.2675 52.2624C34.3646 53.0776 34.295 53.9039 34.0628 54.6913L33.4966 56.6049C34.8258 57.7736 36.3428 58.7213 37.9899 59.3935L39.4826 57.8251C40.0483 57.2296 40.7293 56.7554 41.484 56.4314C42.2388 56.1074 43.0516 55.9403 43.8729 55.9403C44.6943 55.9403 45.5071 56.1074 46.2618 56.4314C47.0166 56.7554 47.6975 57.2296 48.2633 57.8251L49.7711 59.4147C51.4106 58.7481 52.9279 57.8139 54.2613 56.6503L53.6618 54.5732C53.4359 53.7904 53.3703 52.9701 53.4689 52.1613C53.5675 51.3525 53.8282 50.5719 54.2356 49.8663C54.643 49.1607 55.1885 48.5445 55.8397 48.0547C56.4908 47.565 57.234 47.2116 58.0249 47.0158L59.7932 46.5798C60.0759 44.7654 60.0687 42.9177 59.772 41.1055L58.14 40.7119C57.3419 40.5197 56.5913 40.1672 55.9336 39.6759C55.276 39.1845 54.7251 38.5646 54.3145 37.8538C53.9039 37.143 53.6421 36.3561 53.545 35.541C53.4479 34.7259 53.5175 33.8995 53.7497 33.1121L54.3158 31.2046C52.9829 30.0295 51.4633 29.085 49.8196 28.4099L48.3268 29.9814C47.7612 30.5764 47.0804 31.0502 46.3259 31.3739C45.5715 31.6976 44.759 31.8646 43.938 31.8646C43.117 31.8646 42.3046 31.6976 41.5501 31.3739C40.7957 31.0502 40.1149 30.5764 39.5492 29.9814L38.0384 28.3918C36.3943 29.0579 34.8804 29.9965 33.5511 31.1531L34.1506 33.2302V33.2302ZM43.9032 48.4449C41.481 48.4449 39.5129 46.4102 39.5129 43.9032C39.5129 41.3932 41.481 39.3615 43.9032 39.3615C46.3285 39.3615 48.2935 41.3932 48.2935 43.9032C48.2935 46.4102 46.3285 48.4449 43.9032 48.4449Z" fill="#3498DB"/>
</svg>
