<svg width="60" height="60" viewBox="0 0 60 60" fill="none" xmlns="http://www.w3.org/2000/svg">
<path d="M42.5 55V50H50V42.5H55V51.25C55 52.225 54.6 53.1 53.85 53.85C53.1 54.6 52.225 55 51.25 55H42.5ZM17.5 55H8.75C7.775 55 6.9 54.6 6.15 53.85C5.4 53.1 5 52.225 5 51.25V42.5H10V50H17.5V55ZM42.5 5H51.25C52.225 5 53.1 5.4 53.85 6.15C54.6 6.9 55 7.775 55 8.75V17.5H50V10H42.5V5ZM17.5 5V10H10V17.5H5V8.75C5 7.775 5.4 6.9 6.15 6.15C6.9 5.4 7.775 5 8.75 5H17.5ZM32.5 43.125L42.5 37.375V25.9L32.5 31.65V43.125ZM30 27.3L40 21.575L30 15.7L20 21.575L30 27.3V27.3ZM17.5 37.375L27.5 43.125V31.65L17.5 25.9V37.375ZM45.575 18.975C46.825 19.775 47.5 20.85 47.5 22.275V38.075C47.5 39.5 46.825 40.575 45.575 41.375L31.875 49.325C30.625 50.125 29.375 50.125 28.125 49.325L14.425 41.375C13.175 40.575 12.5 39.5 12.5 38.075V22.275C12.5 20.85 13.175 19.775 14.425 18.975L28.125 11.025C28.75 10.7 29.375 10.55 30 10.55C30.625 10.55 31.25 10.7 31.875 11.025L45.575 18.975V18.975Z" fill="#3498DB"/>
</svg>
