<svg width="55" height="55" viewBox="0 0 55 55" fill="none" xmlns="http://www.w3.org/2000/svg">
<path d="M6.875 22H22C23.9251 21.9955 25.788 21.3179 27.2661 20.0846C28.7443 18.8513 29.7446 17.1399 30.0938 15.2467C30.4431 13.3536 30.1193 11.3979 29.1785 9.71837C28.2378 8.03881 26.7393 6.74111 24.9425 6.05C23.9085 4.0206 22.2701 2.36218 20.2534 1.30368C18.2367 0.24517 15.9412 -0.161226 13.6836 0.140583C11.4261 0.442392 9.31793 1.43752 7.65011 2.98861C5.98228 4.5397 4.83705 6.57026 4.3725 8.8C2.92822 9.41367 1.73734 10.503 0.997665 11.8869C0.257991 13.2709 0.0140422 14.8663 0.306339 16.4081C0.598635 17.9499 1.40958 19.3453 2.60449 20.3625C3.79939 21.3797 5.30633 21.9575 6.875 22V22ZM6.875 13.75C7.60435 13.75 8.30382 13.4603 8.81954 12.9445C9.33527 12.4288 9.625 11.7293 9.625 11C9.63408 9.70274 10.1014 8.45045 10.9444 7.46441C11.7875 6.47837 12.9519 5.82206 14.232 5.61146C15.5121 5.40085 16.8254 5.64951 17.9399 6.31349C19.0544 6.97747 19.8983 8.01403 20.3225 9.24C20.4838 9.70744 20.7682 10.1227 21.1457 10.4421C21.5232 10.7615 21.9798 10.9733 22.4675 11.055C23.1038 11.1648 23.6812 11.4949 24.0985 11.9877C24.5159 12.4804 24.7465 13.1043 24.75 13.75C24.75 14.4793 24.4603 15.1788 23.9445 15.6945C23.4288 16.2103 22.7293 16.5 22 16.5H6.875C6.51033 16.5 6.16059 16.3551 5.90273 16.0973C5.64487 15.8394 5.5 15.4897 5.5 15.125C5.5 14.7603 5.64487 14.4106 5.90273 14.1527C6.16059 13.8949 6.51033 13.75 6.875 13.75V13.75ZM46.75 0H33C32.2707 0 31.5712 0.289731 31.0555 0.805456C30.5397 1.32118 30.25 2.02065 30.25 2.75C30.25 3.47935 30.5397 4.17882 31.0555 4.69454C31.5712 5.21027 32.2707 5.5 33 5.5H46.75C47.4793 5.5 48.1788 5.78973 48.6945 6.30546C49.2103 6.82118 49.5 7.52065 49.5 8.25V27.5H2.75C2.02065 27.5 1.32118 27.7897 0.805456 28.3055C0.289731 28.8212 0 29.5207 0 30.25V35.75C0 37.938 0.869194 40.0365 2.41637 41.5836C3.96354 43.1308 6.06196 44 8.25 44H16.5V49.5H8.25C7.52065 49.5 6.82118 49.7897 6.30546 50.3055C5.78973 50.8212 5.5 51.5207 5.5 52.25C5.5 52.9793 5.78973 53.6788 6.30546 54.1945C6.82118 54.7103 7.52065 55 8.25 55H46.75C47.4793 55 48.1788 54.7103 48.6945 54.1945C49.2103 53.6788 49.5 52.9793 49.5 52.25C49.5 51.5207 49.2103 50.8212 48.6945 50.3055C48.1788 49.7897 47.4793 49.5 46.75 49.5H38.5V44H46.75C48.938 44 51.0365 43.1308 52.5836 41.5836C54.1308 40.0365 55 37.938 55 35.75V8.25C55 6.06196 54.1308 3.96354 52.5836 2.41637C51.0365 0.869194 48.938 0 46.75 0ZM33 49.5H22V44H33V49.5ZM49.5 35.75C49.5 36.4793 49.2103 37.1788 48.6945 37.6945C48.1788 38.2103 47.4793 38.5 46.75 38.5H8.25C7.52065 38.5 6.82118 38.2103 6.30546 37.6945C5.78973 37.1788 5.5 36.4793 5.5 35.75V33H49.5V35.75Z" fill="#3498DB"/>
</svg>
