<svg width="60" height="60" viewBox="0 0 60 60" fill="none" xmlns="http://www.w3.org/2000/svg">
<path d="M52.5 35V10H7.5V35H52.5ZM52.5 5C53.8261 5 55.0979 5.52678 56.0355 6.46447C56.9732 7.40215 57.5 8.67392 57.5 10V40C57.5 41.3261 56.9732 42.5979 56.0355 43.5355C55.0979 44.4732 53.8261 45 52.5 45H35L40 52.5V55H20V52.5L25 45H7.5C6.17392 45 4.90215 44.4732 3.96447 43.5355C3.02678 42.5979 2.5 41.3261 2.5 40V10C2.5 7.225 4.725 5 7.5 5H52.5ZM10 12.5H37.5V25H10V12.5ZM40 12.5H50V17.5H40V12.5ZM50 20V32.5H40V20H50ZM10 27.5H22.5V32.5H10V27.5ZM25 27.5H37.5V32.5H25V27.5Z" fill="#3498DB"/>
</svg>
